<mxfile host="app.diagrams.net" agent="Mozilla/5.0 (Windows NT 10.0; Win64; x64) AppleWebKit/537.36 (KHTML, like Gecko) Chrome/138.0.0.0 Safari/537.36 OPR/122.0.0.0" version="28.2.7">
  <diagram name="PÃ¡gina-1" id="vgp57NUbwws_7DSdCRxX">
    <mxGraphModel dx="2208" dy="790" grid="1" gridSize="10" guides="1" tooltips="1" connect="1" arrows="1" fold="1" page="1" pageScale="1" pageWidth="827" pageHeight="1169" math="0" shadow="0">
      <root>
        <mxCell id="0" />
        <mxCell id="1" parent="0" />
        <mxCell id="ZX9Uq3YH2UtdoWoJOYUi-1" value="" style="shape=image;verticalLabelPosition=bottom;labelBackgroundColor=default;verticalAlign=top;aspect=fixed;imageAspect=0;image=data:image/png,iVBORw0KGgoAAAANSUhEUgAABRUAAALeCAYAAAA08PaKAAAAAXNSR0IArs4c6QAAIABJREFUeF7svWewXGd+n/nrcHNGuIhEIHIkQDAAJMFMDqnhSDMaz1iypRlZkoNkl+Uv/rK1Va7dctV+2Kq1y5JWwbKkkTSjncgJGnI4zJkAwQgCRM45XFzcnLp763kbL3DQ6BsAgoi/U9XVffuc8573fc5pVPHhP6QKhUJB3kzABEzABEzABEzABEzABEzABEzABEzABEzABExgjARSlopjJOXDTMAETMAETMAETMAETMAETMAETMAELisBxzldVpwe7BolkEqlrtGZfbZpWSp+Nn4+2wRMwARMwARMwARMwARMwARMwARM4CIJWCZeJDAffkMRuFEko6XiDfVYejEmYAImYAImYAImYAImYAImYAImcHUJjEUYcsyNIlauLm1f/XojMNZn/3r4fVgqXm9Pn+drAiZgAiZgAiZgAiZgAiZgAiZgAtcogXJCcSyS8RpdjqdlAleUQKlIvNbFoqXiFX08fDETMAETMAETMAETMAETMAETMAETuDEIlMrC+HcUIcn9yc9JUWLheGM8C17F2AgM9+yXk4mlv6d4hWtJNFoqju2++ygTMAETMAETMAETMAETMAETMAETuKkJDBeFWE4iJkGVysVyUsRy8aZ+tG74xQ/3zCe/H04WjiQRr7ZgtFS84R9dL9AETMAETMAETMAETMAETMAETMAEPhuB4aIS46hjTXu2PPxs98FnX78EEIDDRR8mV1VOFPJdufMtFa/f58EzNwETMAETMAETMAETMAETMAETMIEblkA5kZgUG6PtLyccC4UkrvP+OCtcbligXthNSeBC8Zc6j0PqzJ+j1VOMv7143HDy8UpCdqTilaTta5mACZiACZiACZiACZiACZiACZjANU5guHTlkaIVx7JvJKEIEkcxXuMPhqd3yQRGEovlpOJoArFc2nRpV+krEcVoqXjJj4RPNAETMAETMAETMAETMAETMAETMIEbj0CUeyNFIkaBkTy2+LmY4oko4f3C4xT2lZOI5aTilRAjN94d9IquFoGxPMPnapCGX0FIa05KxOJnfid8X1xJMjpxNHk4UiTj5eZiqXi5iXo8EzABEzABEzABEzABEzABEzABE7jOCIxUEzEpBs+PYixKkWIEYlEgxs9RGkZZUioXz0nFojWJIvI6w+bpmsCoBKIgLB5YlIhxK41I5Pvi/uIxfIzSsXjOOdEYj71QSJ5/jXNjjjrViz7AUvGikfkEEzABEzABEzABEzABEzABEzABE7hxCIwldTnokDORh8mV5/NFmYgsicck30s/X7gvOdr5NRZvHMJeyc1NICkRz5EYvoZiURyeH3F4vmSMo5wvHM+dU04kfh5Rv5aKN/eT7dWbgAmYgAmYgAmYgAmYgAmYgAnc5ARGSncu3ZeMRjwXoYhwzJ+VisiLfJ6/ESFROhYhjyQwb/Lb4OXfBARGasZyLkKxoHQ6HWhcmMocIxWL78njkmnR5WouWireBA+Yl2gCJmACJmACJmACJmACJmACJmACnzeBcs1YSr+LEhB5mJSG574/JwyJWIzRiuzn76LEuHKpmJ83M49vApeLwMj1SosyMZ2OEY7n11aM8jGZGl0qEUtTokvnfbkEoyMVL9cT4XFMwARMwARMwARMwARMwARMwARM4DohUC6VeTSpmDzn/AYtRel4oahMBzFCNBWvmKoZP4MqRlpdJ9g8TRO4ZAKlvx+ieXnF75N/XygJ+f2cH7mYjGJMpS7cHydarnGLpeIl30afaAImYAImYAImYAImYAImYAImYAI3J4GkDCzXRCUpBospzMWow2QaM8fEfXF/MmoqSsMoDJMpmueLkHO15m7Ou+FV32wEyv2+YBDFYqlgLErHcMQZAX9h1GKMXIyRjck6i6VCsbQxzGeVi45UvNmeYK/XBEzABEzABEzABEzABEzABEzgpiMw1nTnKAtjyvP5sqMoN0qjHJMRiJlM5oLIxJsOthdsApdIICkVc7lckPfxVRyyfFfoYrr0uTqMpfJ+tA7RlyoXLRUv8Ub7NBMwARMwARMwARMwARMwARMwARO4XgiM1IwlqMIznZ2LMvFcZOI5yUh0YuzwXEzZRGJks1khEnlFuXipguJ6Yel5msCVIJAU+kNDOQ0NDSmfL4rG4m/tnEQkSvH8CMVi6YGgIcOxyQ7UF36+1N+speKVeBJ8DRMwARMwARMwARMwARMwARMwARO4SgTKpTxHkZgUinyONd7i9+dqvhXrJiIyknUSEYsxOvEqLc+XNYEbmkAsN5CMWiSKMXZij12gk/KwXN3SzyMV2lLxhn70vDgTMAETMAETMAETMAETMAETMIGblUBph9lSkTicUCyt7xb/jimWSMSKioqzzVduVr5etwlcaQJRLBK1WIxcLNY9PT/9uSj+k5HD5YRiPC+u4VKiFS0Vr/QT4OuZgAmYgAmYgAmYgAmYgAmYgAmYwBUgMFqE4vmpzee6Nye/j2MQoUiqczZ7rmYi+y5FRFyBpfsSJnDDEkjWXYxy8dzv9EKZOFK9xaRYvJTfsqXiDfuYeWEmYAImYAImYAImYAImYAImYAI3M4FkhGFpTcVkNOJIKc+kVhbTm4lOzJ4XEXUzs/XaTeBqE+A3TBp08hXnFNOfk9GKyUYu5WRiaTTjWNZnqTgWSj7GBEzABEzABEzABEzABEzABEzABK4jAuUasyS/S0Y7lX6flIxEJ5LqzPulRDJdR8g8VRO4bgkQsTgwMBAEYzGCOC3+h0CMUkx2aC/tDJ0UjBHAWH/rlorX7SPjiZuACZiACZiACZiACZiACZiACZhAeQKlohBJUForcfgIxcLZjs7IxGTUk3mbgAlcewRircXBwSHlcrzy59VVTP6Gk01chusMbal47d1jz8gETMAETMAETMAETMAETMAETMAEPlcCpc1ZykUnMoFzXZ0L531mH9KhWD8xG+SiNxMwgeuDwNAQ6dBDGhwcDP8Tga00SrH497lIxnKRi3G1o8lFRypeH8+FZ2kCJmACJmACJmACJmACJmACJmACoxIoVzuRk5LflxOKsTkLQrG6ujqIxViDbdSL+gATMIFrhgC/5ZgOzefSuopRKtIhOikdkwJxrPUVLRWvmdvuiZiACZiACZiACZiACZiACZiACZjAZyMQU5zjKKUpz6UNWjguSsYYnUgNxdEilMYyy96BAZ3u6tXJzi61dfWovbtH3X396ukfUH9I08wrfyaaCsFRkcmourJC9dVV4dVcX6txDXWa0Fiv2qoqVVVkx3JZH2MCNzUBfuNRLCIXqbOYjFYs18SlNA06KRtHgmmpeFM/al68CZiACZiACZiACZiACZiACZjAjUIgmfpcvilL4UxdxXx4T9ZUhEFlZWVoynIpEYpBVkrqHxxUbz+vAbV1devQyXYdPNmuo6c71NbZra7ePnWXSsVCIVyzIptRDVKxploNNVWa0NigyS2Nmj6+RROaGtRSX6vaqkpVV1So0oLxRnlsvY7PiQAykTRoXnGLEcjF/2lAGnRKmUw67B6uvmLcV26aloqf083zsCZgAiZgAiZgAiZgAiZgAiZgAiZwJQmUS32O3xUbOaD9imIx/l0o5M82ZUEoXmoNRcbO5fPac+ykth04os37D2n/iVM6frozRCQiAYk8bAzCsFp11VVBImbS6TAXzh3K5dXV16/T3b1noxoHhnKqrshqUkuj5k6ZpOWzpmn25AmaMq75SqL1tUzguiMQf+dIRSIW+Z2Va9gSO0SPJBaHi1y2VLzuHgtP2ARMwARMwARMwARMwARMwARMwATOEUjKRP7jP9ZH5IhkRGL8zPfJKEXSnmOE4qVEKZ7q6tHhtnbtPnpCe4+e1P6Tp9TZ0yeCoUhjJsKwub4uvNdVV6u2ulJ1VZUh3TmTToUU6BxSMpcLUYydvX3hfMY91dUdIhwHhoaCgJzU3KhpE1o0q3W8ZraOV2tzY4hcjPXhLva56OvrU29vb7g2DBoaGs6L1ETGIGU6OjpCJGdjY+NZMTPWa3F+T09PuAZ86+vrQxOcy7kxdn9/vwYGBoJAYh1VVVUXXKKtrU2dnZ2aPHly2f2Xc04e6+oTiL/5+Fwwo/gbL02Djt8nazDGFVgqXv176RmYgAmYgAmYgAmYgAmYgAmYgAmYwGUnUJr2nKyrGD9HiZhs0sJEknUUxzqxeL3BoZx6Bga07eBRvbd9r9Zt3aWO3r4gC2+dPFHzpk3S4pnTgwRsqKuVUmkVlFImJdVlEZ5SnjkU+0UoV5DoHUFAZX9OKtZk7Nbuw8e07cDhEP14rL0zyMUJTfW6f8k8LZ81XVPGNYWai0Q+Xux28uRJHT58WMhFRNytt94amESJ0t3drVOnTmnv3r1qamrSvHnzLrordldXl44ePRquwdgzZsxQTU3NxU51xOMRl+3t7eJaXGfatGmqq6sLQjQZgbp58+awljVr1qi52dGel/UmXMODxTRo5HMUi+W7QhdTosfatMWRitfwTffUTMAETMAETMAETMAETMAETMAETGA0AkmpmIxSLArEGJV4YR3FdDqjqqrKkPJ8MY1ZuN5gLqd9x9v0zpZd2rzvUKidSIrzgmmTtWTmVE0b16yq2loNpqt0OpfVqaGU2gakpsqUptSktLQ5o56hgjoGpUnVRavYPlhQbUbqGJA+7cipMlVQfSavhtSgUkP96u7p1o5Dx7SF9Op9h1VXXakZE8dpzcI5WjpzmqaOv3hJtmfPHiHaTp8+rQkTJujuu+8OMi6mgR84cEC7d+/Wvn37NGXKFK1YsSJEGhK1ONaNKMeDBw+GaEWk4ty5c8M1LueGLEImEq1IpCIRlUSnMW8EY0tLS7jc+++/r23btumxxx7T+PHjL+cUPNY1TCCUGDgTzRo7QifrK5Z2iGYppR2gy/0bYal4Dd90T80ETMAETMAETMAETMAETMAETMAERiJQWkeRY6NYTKY+JyMUi7XVMqqoyAY5djFCcQh5NTCo7YeOaeOeA3p3+x7xXVNdreZPnaTZUydr8sRW5Sqq1ZlL61hfQSf6kYcF9eUKmt+Y1q31GTVXSu0DUvdQQYub0urJSRvbc5pbnw7Rits782ofKGgoL02oTmlcVUpNmbz6Ok/rwLFj2rLvoPYcPRHmQiTk7XNmaMmMqUEskg491jVt375dH374YUiBHjdunJYuXaqJEyeqtrY2YN+yZctZ6XjLLbdo+fLlQQwi7pCFsCQSENHIq7q6OkQHEjFIhCP3ANmHtORYjiHakc98xzgcg+Dh+uyPaakx7Zq/GZd7hZg8ceJEkITxWCIU+Z7oxyiOmBPff/rpp2LepDtzzscffxzWhDxljYhHxmYsIhcvJf3dv9DrgwDPWZTOfB6pIzQrSqZDJyVjcrWWitfHvfcsTcAETMAETMAETMAETMAETMAETOA8AskIxVKZmEx7jvtophJFY2VlRZBUF9uYpad/QCdOd+r/e2293t2+N9Q9vH/pPD22YrFuu/UWdRWy2tOV10en8trfk9epAZrDKEQgTqxO6aFJWc1pyOi9tqEgHGkZ/cCkrA71FvT9fYN6cmpWCxqLkvHVI0P68FQxXbO1OhWE5IqWjForC6pQTr947xO9sWm7Ptl3SPOmtmrNwlv1+O1LNbGpQenQ3Xb0Dan40UcfhfqCSDkiCIkkJGoR8ffBBx+E/Qi4mTNnavbs2UEYHjlyRJyL+CNtetasWeE1adKkIAuJbty0aVPYD2PEHenT7Gd8Uq6Re4zFPeFeEAXJNaLoZR9RhQhCzkP6EfG4bt063XbbbeFY9nEdxiN1m7Gi7EQ+sg+ZiFhctmyZduzYEa47derUIJg4FonKWIsXLw7jebtxCQwN0RF6IMjkcpGKyajlpGAulw4dRGOh9F+hG5edV2YCJmACJmACJmACJmACJmACJmACNwyB0lqK5cRispZijGBEFiCPeI01og8hSY3Dj/ccCCJv+8FjqqjI6PY5MzV/+hSNHz9Bp1Sjg33SoZ6C2gYKIQpxIK9QQ/GW2pRWT8hqQlVK/Xnp1aNDoXYishCpeKAnr+/sGQzikNToxU0ZfdKe08encmEfarKpIhXOn1aT0uw6Kd/ToWMnjum9HXu171hbuK93L5gd5rRk5rTw92huETG4cePGEMnHduzYMa1cuTL8TaTh/v37g7BDDpL+PGfOnMAsRiMSGYj8Q/YRgYjY++STT0LkILIRUUmkIhISWch3CEvEI+O3trYGEUhUIUKTaEVqLiJ3GIP6h0RREh3JnA4dOqS33347RFQiCpGVzJHzEYVEPtKIhc8IwzfffDPIROaFXCQqk/nxHZKTtXANpCnr5v1yN5G5YX5wN8BCeNYQijy/yWjF2AG6tHnLaLUVLRVvgIfCSzABEzABEzABEzABEzABEzABE7j5CAxXS7EYjRijEnNBHiQ7P0ehONYoxZDCOzCoHYeP6fVN2/Xqxq0a11AfxN2jK5coU9Og47kKbTyVCxGHCMW4ES/YUiUtaszo4cnZEJ24vSOnd07k1FCR0pz6dJCK+3ry+vbuQdVnpYVNmRDR2DVY0N7uvDaczOnkQOFsIxdqMM5vSGteY0Z1+V4dOnpEr2/cqq0Hjqi5rjaIxUduW6Tm+lpVV44ceYdURLIhCxGERPEh14jeQ9YhX/ieqD+EH8ch3UJdycHBEM14/PhxvffeeyHSb9GiRXr99ddD5OMdd9wRRCFyb+vWreFYmLOPBjBECsboQmQm16EWIsKQa7Cf73khIKdPnx7kIfOlTiI1EZGAyEdkIpIQAYnkZC58fuGFF7R27VrNnz8/3JJ33nknnM93iEdE5xtvvBHOv/3228MYF1Mv8ub71V3/K44dzXkvivfUmZT79NnPdFNP1lR0pOL1f9+9AhMwARMwARMwARMwARMwARMwARM4S6Bcl2d2luv4HCMWY32+i2nOQs1Eui7/9fNvBHHXPzik33jgLq2cN1u1dQ1a35bXB215nR4saDAfMprPbhUp6Y7xGS1uTmtWXVqvHctp/YmcOgcLIR26VCoiIYleXNKc0ZKmtKozKf3i0FBIqe4cKo6cVjH6cVZ9WgsbU1rVktbO/Qe0ftsuvfLxVk1uadR9S+bpnkVzQyOXkbYoFZFusNm1a1eQd4hX9iHeiFBENiLwSH8mEhDJSNQgXJF/dJFGyiHzkIrIuQcffDCIGaQiDVMQiUSJsXE8opBIRo5BKCItud6SJUuCVGRsjicFmmhKRCLH8z1yEanJ30Q+EgHJ91xrJKm4fv36sJYnnnginIdYevfdd8MaFixYEOZwuTtT+yd7bRHgOYnPLc9dKhVlYlEujhateJ5gdPrztXVzPRsTMAETMAETMAETMAETMAETMAETGI1AaYOW+Hfs+FyMTCxGKUaJgCxAVhEpN9a0Z+ZBx+UPdu0LNQwbaqp12+xbtGLerapoaNH2nrR2dRZ0qDd/oVBMS82VKT08KavJNSmd7C/o/bactnXkhR8k4rBUKnK9mow0rjKleydmNbs+rR2dee3symt3V07dQwrnsjVkpSk1aS1qymhiqkc97Sf00oebdfjU6SBGvnTX8pAKPb6xflicSalIVGFseoKY4zOykXqDpA3Djc87d+4MEo5oRjgiB2mIQoQhkYpvvfVWEHN33nlnEJGIPq6DwON4hCXncA1Snbku9yimR1M/Eekb7x1Skeuzn3Rpohv57ujRo2GdCxcuDMKRlOq2trazUpEIxueff17333//2UjFDRs2BKn45JNPBqmItOQ71sNaLRVH++XdGPujVCw2CqIpS4xWPPeebOQSV31BR2hLxRvjgfAqTMAETMAETMAETMAETMAETMAEbh4CpfUUkx2fy3V9Zj9CEaHF+1ikYo4ovMEhvbpxm1766NMg6+6cP0tfunuF0lX12j+Q1RvHhtQ1VOzSXLrVV1D/kPTmjLJpad2JnPZ25UM3aDYiFWfXZXRvaybUTfz+3sGzQxCxeM/ErJa1pJVSSgd78vq0I6+jvflQqzF3RizWZFMhspF6jdOy/fpoxx69uXm73tu5NzSPuX/p/CBBqa1Ybs00LkEIUg8RoQa7zZs3h5RjJCKSkMjF999/P0g96hgSNQjPGFFI1CINXYj044UAZD+ijwhC5N6ePXsCe2QjKc5IRSIeadoSowyj8EUyJptk0PSFlGWO5/qrV68O16MWItGKREjSJIY5EwGJrEQ0kv780ksvhQYw7OfadH9mzY8//nhIn0YqsjbemQsMqNPo7cYmENP3Y3p/jE6MkYrxbyhEuVi2vqKl4o39oHh1JmACJmACJmACJmACJmACJmACNx6B0kjFpFSMkYlEIJ37nA+yCLGVFFYjkenq69eBE216dsMnenPzDt01f5ZWL5yj2+fN1u6elPb3FHSkLx+EYjLlOY45viqlW+szml6TCqnL753MBQE5eObg5opUiDRc2pzW8f6CXjlarPEWt1tq05pRl9b0WsSiQifp7Z25UJeRcdjSKYkU67kNGc2okary/Xpr01b907sfKZPOaPXCW/UvH7xb2UxGmTSJ0+dvpCUTeYh0I3IPkYhkQ86RihzFIKIRqch3Bw4cCHUUkXwx6hORh1BETiIZaczCcbFeHdyRiUg7IhGJMkQWIvO4l9wToiAZn3kk7xHj0QiGa7Jv+fLl4VzGoAkMMpAmLsw5RloSzRiFIdFoiEvqQTIvxluzZk3oJo1Uil2qOYfjXFPxxvv3onRFPHOkPvNs8JyUa9RSmgYdBeN575aKN/7D4hWagAmYgAmYgAmYgAmYgAmYgAncWASSUjHWUEy+R5kYG7ag/YhUQ26NZWOsQ23toUYhqc/HT3fpNx+4S8tmTdPkcc063FtQ+0BB/blCWaHINeqzKU2oTqkmk1LvUEH7e/JnIwzZT71EjiENujtXCHUTk1tdNqXGrDQ+PaRMX4/6unt1srZFXelK9cVQxTMntFSmQqp1Qzal7QcO6Y3NO7Rh+x5Nam7UV+9dpRmt4zS+4cI0aCQcMo7OyPX19YEPDVqof4gARLLxHVGApCQjBpGJpDQTbUh0YWzcQmoyKdFIGtKQ6RoNR86DPanQRCFSb5FUZSQh10HuIHA4n2syj6RUJOKQa/JiDGo8cm3ORQrGc4iI5Nj4HeNS95HvmQPnxWNIu2ZOHIOc5HlhHCTpWBv4jOU58jHXLgGeTaQiYpotGa2YjE4sjVq0VLx276lnZgImYAImYAImYAImYAImYAImYAKjEkgKRA4uJxSTHZ8RAwgjBNhYtqGhnDbtO6S/eu519QwM6JYJ4/S7j68NQjHWNBxuHKIKM2kpE1InFWotljjAosRIFZuukBqdL0gDZ5wi32fP7NPQoIba2zVw6JAGT51S3ZIlqhg/XkpnNES0VYG1FyMluS5bb3+fjp06HRrLtHV06fa5M/Xw8oVaMH1y2D+W1O+xMPIxJnC9E4hSMf5PitjAKRm5GH8z5bpBpxypeL0/Ap6/CZiACZiACZiACZiACZiACZjAzUQg2fU5KRTPNWkpdneNHZ85hmg70lrHmvq871hbiPT77uvvat60Vq1dukBzZszS0VylNp3OjYibCMR5DemQ2lxfodDtmZqJpRuRhVOq01rSnA51Fkl/RjK2nvluQmpQVccP69QLL6hn+3bl+/rU8uijql22XNkZs/Rx+5B2d+XVMViUi3SErkqnNLdemlM9qJ+t+0Af7d6vzp4+fePhNaEbdEU2Y6l4M/1YvNYRCRCpSmQt7/y7gjiMYnG49OcYxRhko6WinzATMAETMAETMAETMAETMAETMAETuD4IlDZoSaZBk+pcFIkIxcKZ93yQBDGtdaxReq99sk3vbNml93fu1UPLF+oLd67QwaFqbeqUNraX6cqSwNdQodDxGalI9OFLR4a0p/vCc5Ldn0mN/ofdg5pSk9KCemllY0F1e7er8PEHOvXii+rfty9Ij4ZVq1R/992qX3OvtqSatG2oKnSTRiwSQVmVkW4fl9G941Pac2B/qK/4wgeb9dsPrwnRipNbmoJY9GYCJlCsuUq0YrJhS2zWUtr9+TyZSAiypaIfIRMwARMwARMwARMwARMwARMwARO4fgiUk4qlNRWJOoq1FBGMRCnSpGWsQhEaf/fi23pn666QUvzFO5fp3tuW6Sf7B7WzK6+2gXJtWYoMOb6lKqWvzahQdUb66FROm9rzoRFL6VYqFb+zZ1BrWzNa1ZDXVPXq5Pe+p7Znn9XAsWMqDAycuUBK9StXauJXvqLKJct0tGWqXjw8qL3deXWc6fMytyGtlS1pTc0O6L3Nm/X//vxlPXqmE/Qdc2eqrrrq+rnhnqkJfI4EYomE/v7+IBfLCcWYCh1+36nUef+OOFLxc7w5HtoETMAETMAETMAETMAETMAETMAELieBkaRiTHeOoiCmQ1dUZENTjrFsg0M5dff16y+fe02f7jusFbfeolUL5mratFv09IEhHezJn619WG68uqw0rSatL07LqjcnvXBkUEd66dZ84dFJqdifJ016SIvr8pp0dI8G33xVXRs2qGfr1pD2rPy5SMfs+PGqnjlTzV94QqkVd+hYY6s+6EyHiEW6TJNWPbMupXvGp3Rw7y793UtvaUJjg5bOmqYv371CzfW1oaEJHZU//fTT0P2Yje7HDz/8cGikkmxoQyOLLVu2hNfevXsDS7o8P/TQQyocPKj+AwdUGBxU9ezZqpkzZyyYr4lj6HL96quvhig1uk6vXr06dJGmUQwbnbG3bdum7du3h8Yy5TZqdNLMhu7Z8GMcmtFcj9srr7yi9957L8i1pUuXasWKFRo/fryyAwMaOHxYfXv2KF1bq8Y77lCqqkqpMt3Er8d18+8FzzjPQRSI5d6TzVviOi0Vr8c77jmbgAmYgAmYgAmYgAmYgAmYgAnclASS6c4ASIrEKBOT76lUOjRnqR5jdF5nb58OnWwPTU6OnOrQ19feoSlTpmmgqkm/ODSkkyNEKTKf1uqNeSEcAAAgAElEQVSU5tSntbY1qyN9ef14/6B6hlS2uUtSKtZlpMPdQ2o5cVB67x2d/OlPNXDkiHKdneXvcyql5ocfVuN996lm5SptSjXrk96M9nQVNJAvqKEipaemV2io7ZB+8e5HOnzqtKa0NOn3v7BWrU2N6u3t0a5du/TLX/5S//RP/xSusXLlSv3u7/6uZs6cGURZ3BBqv/jFL/Taa68FsThp0iTdd++9+uY3vqH+devUuWGDCv39alq7Vs0PPEAb3YuKCr1aD/JPfvIT/eVf/qWIUlu0aJH+xb/4F1qwYEHoAs324Ycf6o033ggvOkSzJSPVYmfr5uZmzZ8/X8uWLdOdd94ZxOJYJfbVWnu568Li6aefDjwef/xx/eqv/qrokp1ta1Pn+vXq+ugjVUyYoNZ//s+VbWlRuurGiXhlzdRWJNY4nS5GIyabtcQo52Qn6PA8uKbitfQIey4mYAImYAImYAImYAImYAImYAImMDyBkZu0UEexWFcxNl5AKPKiSctYtqOnOvTezr36+bsfh7H+468+or6qFm3rSevDtpw6y0QcJse9tT6txU0ZLWhMhyYqSMXhKjAGqdiQ1gOtWbVW5DTQN6D2p3+ojhdfVO/OncojORIRiqXzzzQ0qGbhQk348pdVWLxcRxta9erRIR3oob5iQU9OrVDz4Cnt3LdPL330qSoyGf3HX31U0ye0hKYu3d3d+ulPf6pvfetbgRnRh4ik22+/XVOmTDl7uZMnT+rv//7v9c4774jPyMd7Vq/W4w89pPYf/EBtzz0XWlAzj4lf/WqQTanMtV+38WKlImKJCE5qdPJsxDp8/M3z1draql//9V8PfG655ZaxPG7X1DHDScXCtm069t3vqnf7dlVNn67J3/xmiEqtOCNfr6lFXOJkEIq8KJuAVIzyMJkOzdCWipcI2KeZgAmYgAmYgAmYgAmYgAmYgAmYwNUmkJSKyajFXA51Fxu1nHuPUjGZzjvSGnYfPaHn3t+kTXsPqrmuVn/wKw/qQL5O69ry2tedV9/IjZ+1tDmt21oyaqpIaUdnXr88PLyFnN+Q1m3NaS1pKKj20F51vv++Tr/xhro3bSpGKBaGr90Y1pBKKTtunOqWLVPjgw+psGyldlU0a0tvVnu68lo1LqNpmV6lek7p26+sU0dPr3738fs0f9pktdTVBPFKpOJ3vvMdtbW1acKECVqzZo0effTREHnHhjg7fPiw/uIv/kIffPBBkI9PPvmk7r3nHi1bvFin335bpz/8MBzbctddarn7bqUrKs6mxiJqenp61NHREc5FzFHfkhTj2traM8soNr3gWqTeMi/kDbKO+8Zn7jX7kvu5t+xP1sok4ozrkd7NOIxBOjKRg6XHXoxUPHXqlFpaWnTHHUSuFoUr1zhx4kTg0t7eHpoBkT5+zz336K677grHRMnd1dUV5hXr9nEs0aBxffFY5pxsGhKfX6JF2cc6EJh8H+eAHGbdbHwPW8Yv98xHjpzDnGDL/SDl/X/9r/9VNlIxdfy4Tr7zTmgWVDlunCY88oiqWluVPZMmzpjMjXtMGjGfWVusY1qscVpsmBTXk7yXfB87LjMnuDIv7ltMRYcJ3/Pieuxj/LH+z4LR/t3iOS3XrIXzmBvbBUKRaEZHKo6G1vtNwARMwARMwARMwARMwARMwARM4NogUE4qIiyS3Z6T6c/IFURGFAOjrWLzvkP69svr1Ds4qJmt4/UvH7xbG3uq9fLRodBhOTeK57tzfEZ3jMuoJ1cINQ7fPnGhhSRKsD4r3d6S0R2NOTW2H9fAurd0/Ec/0uDx4+enPKfTStfUKE2jmWxWQ+3tIdX4vC2dVvNDD6npwQdVuXyFtmea9WFXJtRWvKUqp9nVg/qTf3pJe46e0K+tXqmVt87Q7MkTwhBEH/785z8Pac2IHuoC/uZv/qZWrVoV9iOKSJMmim3r1q1B8vzO7/xOkI/U2zuwbZuO7NkTjp1CTcE5c4LMQiQhmI4cORJSh3mPQg3hRAo1L0Qdcghhc+zYsSA3EWhII0QX0X/cQ+4xUZLsR/Cxn7RjaiByfxFCnHf8+PEwTmdnZ/iO+848SWnmxbVjzcOLkYoIQdLCSQ8nEpGN72BDpOfOnTuD8KIW4QMPPKCnnnoqXB95x7xhwNyRf1H8TZw4McyNdbBGnluO51i4wyXKUOo7wmjatGlhHYyByGStvJBxbIyDHOYYxmatfMcWBS+MuB8IUfhwfSIrf/SjH+n5558PxyXTn/t7e7Vnx47QMKi2rk7Tli9XfWPj2fvCXFkjNTr5zPncN+bAtVkTLGAf7wVzZv68ogTlmYnfsz7GIJWc54n7eejQoXCP4cTY3HuOgdFYf9/D/f6ZX5SKHBMjFJMRi3xf2gHaUnG0f1G93wRMwARMwARMwARMwARMwARMwASuEQLJTs9MKf6d7PYc05+jZElGg422jA937dOf/fwVjWuo18JbpujJO5fr3c5KvXB4qGxdxNLx7puY0d0TsqGhy5aOnD48dWHyc0NWWjkuo8X10szBdnU8+3N1vfNOiFDMDw5KuXMiMl1Xp9p580IDlExLi049/7z69++/IC2aiMWa+fM1/stfVm7+YnW0TAr1FRuzhdAJ+v/58fPavO+g7l+6QKsXzNaSmdPC1GlEsm7dOr300ktB2jQ2NuoP//APgxhDoCCzqC344x//OEQsIsL+zb/5N2el4/e/+1299MILYazHn3hCT37xi0ESIZd2794dJNWOHTuCYIyRigggpBDNTb7whS8EkYkYomnKu+++GwQnkosahcwDEYWoYp40VyEyEMG3fPlyPfbYY0GcIaNYw+bNm7V///6z6e8xZZl5L168ONQ8RPyxfVapiASDyfe//3199NFHQdTNnTs3NLD56le/GgTnJ598Ehgg8JBrMbqWZ5J5MyfWOH369CAKkZQvv/xyaKCDdCWaM94HBNqDDz4YuMGTKFOOZ2zmEmUYIo/x7r777sCIz2zMj6YzNGTh3jAGY3PPkZV79uwJ7JBrSan46ebN+sfvfEed7e2afsstevzJJzVn7txwX5Ckb775Zqi3yfiIVu4za+MeE9XJc8X3pNczJ4Q1x3MfaRJE3UbWyTqQjMhZ5oU0nD17dhDP3F+OR0yzEaHIOESFUgfzszbHYdwYKRs5ltZULG3UEv52pOJo/6R6vwmYgAmYgAmYgAmYgAmYgAmYgAlcGwSGl4rFaEVSoGM9RY4l2qs07XWklby7bbf+7x89p4XTp+i2W2fo7iULtP50Vi8fHSXv+cygD0/Kas3EjD49ndenp3P6tON8qTihKqWZtSmtaklp3OHdqtyyUadefjnUqxtqaztvajTDqJ41S0333x+kItGKp154QV0ffBCOP29Lp0PzjIY771T93atVtepOHco2qLq2SrPrM/qTn72kj3bv15KZU3Xf4nm6Y96scDriC+n3j//4j0HIIfz+7b/9t3rkkUeCHNy4cePZZiWx7uJv/MZvaOHChUEo/c//+T9DXUY2RNrXv/71EJGGvHruueeCCEIoIci4F9ybGLWIdCKVmhqOc+bMCRGTiEXO4W9SiL/4xS+Gc5GKSEOapiCxkHd0a6aGIUIIEUnDGSIGidqL10MUIat4FhCVSEzWhsTk+LE2aikXqchaiM6j3iTsiNYjbRzxx7zefvvtEAmKQIMd6ycqMEZVIvWYEynV999/f5gz4/zsZz8LcpVjY3ovEXpIOXjBl2jGZ555Jsg2NqQpkgshRyQn1+L4r3zlK6GLM+vfsGFD4Pvxxx+HiD9+F8g8rsF+ogFhx7rgFBu10BH6T//0T4MoRvKxNmQokaRIae4La0WaMmZcI/NBcDIfxkfmkh6+du3aMHfuI2MjJ3nWOJ5nijUwF0QhUZesl/OZM99zL3geWB/smCfC9bNsMe08doBONmqh2VOyeUtMt7dU/CzEfa4JmIAJmIAJmIAJmIAJmIAJmIAJXGEC5aRiaQfozyIV3/p0h/7Pf/yZ7l00V6sWzNHCW2frvdMZvXV8bFLx0SlZ3Tsxq/fackEq7uw8JxXTKWl5c1rLG6V5mV71PP+cTv7856FWXe5M+mrASQRUJqPaJUvUuHq1xj/1lConTVKeeoGbNqn9lVd04qc/DX8noxo5T9msmu+7LzRNydw6N3TrrarI6G+ef0Mf7Nyn1pZGPbhsQRCLbMgZpM+f/MmfBAGGoKMLMvIH4YX4ofMzqc9IL9KekWZEvyHFSqXi1772tSDsXn/9df3xH/9xEGhEwd17771BEDE+wowISPYRbcY+ovsuVSoSCbd+/foQEYj4IvIOUcn1+BtxxfXYvvzlL+uf/bN/FiTcs88+O2apiDAjou63fuu3dNttt4WxEGB79+4NtQh5Zz0xuhIZ+rd/+7d66623QvQf1+N8ZChzQsZxDhvz/L3f+71wbpSKSDq2WIMQpkg5hCiSFHkajyFFmIhEUnWRxEjD2K36j/7ojwJbfhOkN//whz8M9xxG3E+iAfmb8WJNRK47FqmIgEYoMw/WgshkLqyRZwp5zL3hniMGh5OKyLnYQZsxY5QrzNlYO88iIpP7yJgwQGAStfmf//N/DrLzs2zwYZ7FDtDn6icW058tFT8LW59rAiZgAiZgAiZgAiZgAiZgAiZgAtcEgYuVirEm3Vgn/8am7frf//7HenzlYt29eJ7mzpih3X1ZbT09Nql4+/iMljRlQoQijV2O9RalYk02pRClWCNN7D6poZeeU/e776p782ble3pUOJPWybGZpiZVz5yp5ocfVtOaNaqcOjVEKdIJeuj0afVs3aqOt99WxzvvqG/37vMbutChmDpzc+eq5clfUf3tt6u6daK+/8YGkdpdVVGhB5Yt0ANLi41YELJEpxFth0BERiGuiJwjwo0U2x/Q4bmtLdQSpFYg6aZIoHJSEWHHRnQezV0Yn1RlRCRpzsgsrkGEH5FnCEfGQ9RdqlQkWg8ZR8owogmxRSQl1+IazJ8oPcTRr/zKrwSxiKQiknKskYqsn/GWLFkSBCHPIdz4nqhMBBjPGuxIySXNGuHGvIiuY41EMSIQkW2ITmQc6b5E5P2H//AfgggtlYqcQzQeQhJWiEAEL9GlpCsT7UlUJy/Wh3BDHhK5yUYqOynHyEbWS1QhoowozyeeeCJECHIfkXXcMyJT2UaTivBFosKPFGbuM/NEbsKIMbkfiFsEIHJ0OKkIk0WLFoX5IB95NrhnzAnOyFaiVhHQrJk5kiJORCP3+r/8l/8S1v9ZNuaPVIwNbxCdxeYxSEW6QacurKfo9OfPgtznmoAJmIAJmIAJmIAJmIAJmIAJmMCVIxDr0UUZxnuyKUsUjslIRdI7Y6fcscz09U+26X/7u6f1K3cs031LF2jejOnqyGd1rG+UDi1nBp9Rl9bkmpQO9xZ0qr+grqGC6G1cm5UmVKZUe+KQUls36/gPfxiE4NCpU+dNK11fH4Rg0z33hCjF2oULi5GLRCGe2QZPnlTfnj1q++Uv1blhgwYOHVKBWoxxO9PcpeXhh9X8wANBLK7fc0ifHj6uEx1dWrNoju4/IxU5BQEU01GJckP+IHFIU0VEIXhgizCjiQsii5TZ4aQicyVNGeGEqEEaIZtikxGuGdNM+Y4XkY+XKhWjFKO+IPc+1vNDnhH1hhhFfCXTeols4/uxSkXEZWywEtOFkVqxVmSsS4gYY61IS8RhrHmIDERGIqqQishDalUiPUkR/k//6T8FERmlIlGjHEu9RdLKYcQ12Bgz1j9kLtQcRMYxF+b5wgsvhGPY/t2/+3dBDhMZSfQoNSlJWyaSkohUJCwijdRtUuBhMpb0ZyQeUvV//I//Ea7FmESp8twQqYikQ/5997vfPVtTczipyL1AfHI+a6HeI5GziFHmQn1Hoi2RrohGIl1jx3K4/tf/+l/DNT/LVk4qnotSPD9Skeucra/omoqfBbvPNQETMAETMAETMAETMAETMAETMIErQ2AsUjF2gs7ni5GFlyoVn7pzeYjoWzpruiorK0bt+hwJZMlATqVCU5dcoSBUJN2e04WC0vmcTv70p2p77rnQlOWCLs5ENM6fr+ZHHlHr17+uTF2dUun0sHC7PvpIp994Qyeefjp0hS7d0lVVarz3Xk3+xjeUmzBRhwbzeu2TbVo2a3oQi3FD8CETEYFEliENSTVFIvId6c8IrV/7tV/TN7/5zXBa7O48XE1FovCIVCQSL6aUch5iDnFEpBvyDZlEMw++v1SpSNQkco5mKUTHETlIdBwpuEQJJrcYgXexUjGmE1/AOJ0Oab9RxJLKTUoxG9IN+UdqNu9EESLvYk3AyKOcVOQc5CjM6Tid3GKXZAQhUYtRXCJQEZ3JDanIvURwIuNIc0YIUpuRqNPk9td//dd6+umnw/xogDNSTUXuGXz/6q/+Kog+hGmMtiT6kY1rITi5LrJzOKlIZCORk8yHewmrP/uzPwuCFSlNDUfkKlGb3AeiTv/mb/4msLycUjE+0/w7E7s/F1Ofi1KRjc9slopX5t98X8UETMAETMAETMAETMAETMAETMAELguBKyEVQ/rz3z2tx1ct1ZqQ/nyL9vVltT1RG3GkxSxrTmt+Y0Z7uvLqzhVUlVZIea45dlCd69aFlOXuTz4pSsD8hZ2hiSxsefzxEGGYqqo6L0Kx9Lr9R46o8913deRb3ypGK56pB3f2uHRaVVOmqGbBAjU+/IjyCxbqSK6giS3Nmjq++exhUVKR/kwdQDgTOYjoQdIhHEnfRcgho9hGkooISNJtiVRDDFFvj+g8BB+Ckeg6ItsQQohFIulInR1JKhJNh6BijgjLZKMW5BKRiIg4pBNijfGZB5KKKD26NDNG7Gp8sVIROYoMJZqQqMEolmL0IiIWsUbDECQjDBG0NJ2J9RY5NjZfgQPyE4FXTioizrjel770pVDHMbkR4YhA5cW8EOmslxcp2HwfJWiUioyH3ENA0uCEiEqiFZMbUpEu36RyX4pU/Pf//t+HaEKiJtmQitS55NqjSUVqdTKfa0EqxnvrSMXL8s+2BzEBEzABEzABEzABEzABEzABEzCBq0/gSkjFNzfv0P/xnZ9q7dL5oVHLvFmztOEiGrU8MplGLRlt7cirZ6igxkxBM3uOq3Lzh6EpS++uXRo6cWJYmE333qvmBx9U45o1yjY3F2splmwFZGQup769e4NUPPajHxWlIo1bSrdMRumKCo37whdUf999qly0RFXNTaqsrjp7JFyRXOvWrdOf//mfhwgwIjyJDEMGUjeQSDFSUKlrx0YE2XCNWpBqCDwi2ZCSROgRSYgA40VEHS/GoNEG49JRmhRs6voRVUf9RQQe0WtE/jEe3ZppfEKEXlIqIu5eeeWVINMQQUTRIc6oQ8i5jIuIQzZeqlREtCFamSc1/qJ4QhTCqiigitFsRH7Ck0Y1pDEjU1kPc2IMUo5hSidm5Gs5qQgDJCWijZTz5Pb9738/rBdph0hEkBJ9yLqRijRjgTsbUpFIQBghXRGscKG2JFGQzBkpyZwRynSeTnLi2HLdn0nv5l4SjUpkIR2cf+d3fifIYZgzJlGU3DPkMscOF6nI91Eqsp6rFakYn+kLOz87/fnq/+vvGZiACZiACZiACZiACZiACZiACZjAZyAwFqnIMaU1FYsNF87VJBxpCuu27tL/9f1ntWL2dK2YM0u3L5qv9aczevXo2Bq13N+a1X2tGXUMFFSVSWliakBdv3hGnW+8rq4PPlCO9NTc8GOla2tVt2yZJnzpS6pbulRV06dfMN38wIDyvb06/v3vq/3VV0N9xXxf3/kNW5JnpVLKjhun+ttuU+tv/bZqZs1U9kx9Pg6LtSiRP9TVQzwh/ZCDyCbScJFpiB9k0khSkVRVpBQikWYiCDQkE2KL75GUCD7EILXziGojKo4oN6LakIrITa6DwPzKV74SZBnn/sM//EPYh0xLSkXqPiIOic6j4QeSkpRfpBzbn/7pn4bGHp+lpiJSEQGKOCOyMrklU2L5HolI+jXXZa1s1C8kyhOmRO0hQInMhNNwUpGoR6Qi7JMbdQxhRZTjfffdF8alGQ6CE1lJnUj4siEVaYKD4COVne+J4CQC8rd/+7dD3UbkMOd9+9vfDjU0eR5Ga9SCIIXJf//v/z3cD+4jwpZnhGhFpCoikwZABw4cCJLxepKKURIn05+jbISr058/wz/kPtUETMAETMAETMAETMAETMAETMAErgaBct2fY7OWfJ4KhudLRSK3ECdR/Iw25/d37tUf/+wlTWlp0pKZ0/To7cv0bkeFXjgyNKa6iqsnZLR6QjbUUayvSGmcBnT6tdeC/Dv18svlowlLJlUxcaJqFy0KEYsNd9yhigkTlK6sLMo/IgR37w4RitRT7KGZRXd32VTq5LCM2bBqlSZ/85tBVKZrai5AQWrsiy++GFKMSdlFnEQp+Hu/93uh+3NMbR0uUhEJSC1BBCWdhhFmyDhSqbkX7COdGrkVG3w8+uij+oM/+INwXV7MAZHJeURIkgaMQEOkcQ5Rb0mpiFAkIo4IS75HbCExEXjU+2N/aVfji01/5vqIO+obwmGkDalIBCLNRhBrcKTZysMPPxzEH2sgghEOyNuLlYr/7b/9t9BQhehNGqMgUWHFWKRUkyaOsGX7/d///VC3MjasgS2/BcQoHb5JN2acWPsR+cg2mlRE3iJpkYYIUsaHKbKRfQhH5kB0JDxY47UsFVlL7P5c7PZcrKVYlIeOVBzt303vNwETMAETMAETMAETMAETMAETMIFrnsDwUrFwJuIuH6KieHEsYgmRM1ap+Mneg/rbF94KHOZMmaivr71TH3RVBanYO1TQhVUQz0e2oiWtVeOzGleZClKxVjkN7dqhzrfe0okf/1iDbW0qEFU42pZOq+Wxx9TyyCMhYjHb0hKatgydPq3Tr7+uo9/5jgaPHVOupBHJBcMiRrJZ1S1ZElKqx3/pS6oYN06pTOaCQ4mgozYhdfUQXmxEtZFa+6//9b8OzVVixOdwUjFGKlL3kKhHhBW1E4k6pAs09wFhSTQkkYVEJCLbSPH95JNPQiQizUKITCStmGsipIimQ3yRRs21k1IRUUYzmYMHDwYBidjixTPAmFyPyEH+RmCSUs35yLexdn++GKmIUCP1m0hFUoeJ9kSqkjaN4GYd8EWCshZqTP7RH/1RSPdG6pGCzHnDRSqSoo5ghQUyEVlHWjUik47JiFT28fx/4xvfCPIQGQyjn/70p0EAIm2JIJ06dWqYA9GGnMM64TSaVCQSlPtCCjcRkLGpCk1aGBd5zFjcN9bPvbzWpWJMW49S8UK5WOzCHn8D4bO7P4/2L5n3m4AJmIAJmIAJmIAJmIAJmIAJmMC1QSBKRWaTFIxEKRYK52RiFItRKiJzxrLtOHRMP1n3oXYfOa6JTQ36g195SDsHa/TG8ZyO9OY1MIpVXNCYFs1aZtZnRCfo7oG8JqlPFft3q2PdOrUTXbhp0/CpyolJhojFBQs07otfVN3ixaHGYueGDcWoxxdeUJ4aiiOkUjNUprFRlVOmaPxTT6lx9erwOV1ZpdSZbrZJJkgg5BsdnRFFbNQCJJ0VEUd9vdGk4te+9rUgcpFbNCpBUhKpRq08oh45H2FIeiyiiQ7TRNLRsAURR0Tht771rSAcEVLIL6Qb5zIGsop02qRURIgR4fj666+H/YzLeURG8kKiIcx4UfOPyD4kH0Ls85CKRL3FGoXIVeaLnEXssX7WwRxhxNz4jjRlpCLp0ERdjiQVY5p4THFG5MGcd9ZLUxpYwpkOzkhF6mMicpkPL+4zTDkPOch58IYf92u0Ri1IRSQxIhruvPbv3x8kMuMxLveANZPyzv1GqiKQSdkmepR7xjqvhZqKQ0PFezY0NBie+xipeC5a8ZxQtFQcy7+kPsYETMAETMAETMAETMAETMAETMAErjECpVIxysVcDttXOBuhiNhBNBaFVDZEK45lO3SyXW9v2aWXP96iTDqlP/ziQ+qqbNaW7rQ+ac+pa2jkUabWpDSvMa07x2fVnytoc3tei5rSmpTrVsXxw+p4/XWdfvtt9WzdOnrEIrUQm5tVv3JliDJsoFbd0aMh9bntF78IHaSprVh2S6WCUERGNt5zj+pXrVLVrNlKU18yfS7aKnkuzJA/RP7R6APWdDomUpGIQVJl4xbTRRFzsW4g0Yik4yKoiMIjFZdxkEpE7yF62WIXZCIYSSUmWpEIQyLmkIk0Y0GuIcY4h/G4NhIL8YU0I4qPeSE8EWFE/5FqzPnIUe47YyJCOYfrI8tYD1GMrIf5MX+uS91G5CZRdsg5NiL+OIYXXGhGghAjDXosG12PEYekATMHeCLamAPX4XvmxMa4pA8zT9KJia5EyCFbmVdyYx9zItqRVHBkGCIvRh5SH5FxkYqkgSMU4QAnxB/j884x8V4Q6cg4XJ8X0pAUabpacz1S2RmPOpXcZ3ghR2MXayIsI3vWyT7uHfKSfVyLe/Xggw/qnnvuCfKYmpvct/iMsVZkK+dQA5P7zHPGeXQfZ31IWM5BerMeZC0p9zxLn2Vj7YODQ0EqRpGYTIFONuKxVPwspH2uCZiACZiACZiACZiACZiACZiACVwlAkmpyBTi3zHdOdmohe+IxspmK4JYHMvW3tWjnUeO6TuvrFd7d4++8fAaNU6YrPZUnV4+OqRTA9RtHH5rrJBuqU3ryWkVoVnL84cHtbQ5o7mNac2oTWtg+zZ1rl+vo9/7ngaPH6eN8ujTymTUdM89mvDrv67aefNCTUVSqbu3bNHA4cMX1lMkLbOiQjVz54YU6tavfU2DqZQKqbQqshmlEymc5S6OAEKCwS9GncExGe0Zm+ZEecU4CKHSTsiIQSQRYhFxg5BBEiKlEEHlxuW6RMAhx5BWCCpkFmInpl1zHuIwXo+xEWykAHM9xCASEmGJDCOCjmNYA+ci9/gOgcZakGt8x3tcJ9fmGF7JY7juWOL5oxcAACAASURBVDbOQYIhSHnnb9aMqGN+fMc12GDCuMlITuYRI/5Kr8f9YZ28WENkBCekKnOGFWuNkYjwQ9Ih47gfSEDGZz5wgg/ncQznwJY5MEfO4b7EbteMy9/cf86LdU2ZJ9eBJTKSZjSkoHM+tS7Xrl0bokTjPWHs0jkyb46P4zIP5sNxUXzH+TC/GAU7lnsy3DHMg+uxpmT35ygWOe9sc5YzTZ+c/vxZiPtcEzABEzABEzABEzABEzABEzABE7jCBEqlYlImlgpGBERRIlWqsrJiTDPtHxxSZ2+f/uKZV7Xt0FGtXTJPy+beqpaJU/TDfQM60jtyXcWKlDSxOqUv31Ih+k1vaMupZ6igqbVpPTQpq8qeLg0cPKD2l18O6dAhFXq0jYYpEyeGqMNxTzwRUpjp9nzymWdC1CK1FWngErdMQ4MqJ08+m/JcPWuWDpxs12Aur+kTWoJYHKkbdpQr8ESqxEY3yXOiVEQAwZmN42JEaDw2irkYqRePQ2bxSkaAsS+Oy/GcG8UwUokxozSOsid29ua4KMUQY8wjyrRi1GoxNT7WyWM/38dO4eXWyfHx3CiVLqY+J3OFDwKNubGxZuQh40TOkUms+xmvyVyTTJOPCcewThgl5SFrLl1XXFvkF8UsjBmf+SA1k0Ke75NsOaf0eUD8kqpNRCesEKZEcRIJytyIUKSOI8chBqnTSNQl0ZPJe1LuXsbrRZkbj4nyMu6PzYTGWjN1uJ9a8TlF8Baf+VKxGO9/8jqWiqP9w+X9JmACJmACJmACJmACJmACJmACJnANERhLpGJSjkTpgGwZy1aUFgX9zfNvasOOPWqur9VDyxdpxcIF+tnBIe3uzquj6IeG3ZoqpCenVmhcVUrH+wva05VXczqnB5sGVdnXo0JXpwZPn1bHm2+GpiukNA+bxhyvkk4r29Sk5gceUMNdd6n+ttuCUKTGYuf772vw5EkVBgeVrq5Wzbx5ali5Uk333RfkIt2hj6UrlK+p0bQJLaocYyr4WHj5mJuXABGY3/ve90SaNxGiSEUaxyAViZYkUpHUeAQq6dfUd6R+Is1hrrWtr68oaAlCLG3QUq6uYpy/G7Vca3fS8zEBEzABEzABEzABEzABEzABEzCBYQjESDZ2Jxu1xAimcu9EYhEhNpYtjv/c+5v05uYd+vTAYT115216as0qfdSR0ubTBW3rHLlbS21GunN8RnMbMmqtSamtv6BsT6emdhzV0J7docFK0/33q2/PHnW8/bZO/fKX6j9wYPTppdNK19aq8e671fr1r4foRaIUj33ve+reuFFDHR2qmjJFLY8/rgm/9mshmrFv3z51b9qkhrX3q2b+fGVHiVIcfRI+wgSKBEjfJrX5ueeeC81f+O3E6Er2x4Y11IqkdiZSkfqJY61veqU4M+9iZGyxnmL6TM3RZE3FZOpzMmLXUvFK3SVfxwRMwARMwARMwARMwARMwARMwAQ+I4GRpGJSKMbPsQ4cUjGKgbFMYevBI1q/dbd+/PYHWjlnhh5ZuURNEybpyGCFdo4iFSvSKd1Sm9ItdWlNr0mpu71D/Vu3aOi1lzR45Eiod9jyyCMhipDt9GuvhWjDns2bR59aOq3KqVNDKnTzQw+pavr0UFeRqMWBY8dChCKRipWTJuk0zSw+/jjsb1y7Vo133KnaRQuVqakZ/To+wgRGIUBkHzUzaRpDB26a81DrkNRnUqdJqaaRCvUaiWCkkzi1FkdKvb/S0GNafEwjTzZpSaUQjOckI3Mr/TfEUvFK3zFfzwRMwARMwARMwARMwARMwARMwAQukUA5qchQpbUVoyzgHcFB+nOy6cJol+/u69fGPQf0Ny+8papsVgumT9aTd92mbG2jTgxIQwUpP0zPljS18zIpja9KaVJVQfm2thCReORv/zY0Z0lls6Gjc/P996t+xYogA0ljbnvuOQ3R8binZ+Tp0Wglmw31FUlxrl28OEQ9kgJdv3RpSHemu3TbM8+oZ8uWEBmJgCR1mgjJbEPD2fGTIrb0osm0z9F4ef+1QSDWcWQ2NDYZaePY2CgmNom5lFUgEZGJNH4hepHUZ6IRaUZDx2wawdDJ+lrc+PeB+oyxfmesI1lMgS7WHo2Ri+dFKJ5pdmSpeC3eVc/JBEzABEzABEzABEzABEzABEzABMoQGE4qJpu0JAVjbM6B5CjtNDwSYM7be7xNz2z4WJv2HlJv/6D+4IsPae60SaqqqlbHYEF9ueE7QUex2JCVKgb71fPhBzr27W+rd+dODba1hdqHDbffHqRgwx13aOj0abW//nqILuzbsWNM9z5LF+FlyzTx619X1YwZSldWBqHY/uqrOvmTn2jwxAnlenuVymRCB+jmRx5R7fz54dpxQ6jEF2uOG0Ix8rrW0lXHBOcmPYh7SBdsNmTeSBvpydRCZKNrdLK798XgiwI/2SCG82ODmNj05WLGvFLHxhRtfgPxf0CUNmqJMrFcCrSl4pW6U76OCZiACZiACZiACZiACZiACZiACVwmAsmGLeVqKybFIpdECBCNNVr0VnJ67d092nbwqF748FN9sHOfHli2QKsXzNbyW2dof09BB3sKOtKXHzZikWjFcZUpLayXGtsOq+vDD0OqM+9IxMrW1pCq3PLoo6qaNo1Jnu0K3btrF0XpRqSVaWwMDVsmf/Obqpw2TfmuLp1+8011vPOOOj/4IHSErpo6NRxDlGLdsmXKNjeHKMe4nThxQjTcoBNx7O7LPlg1NzeHFxFn3q59ArFB0f79+8PzTsrxSBv3fOPGjeGQZcuWXdRv49qnMbYZIhOJtIxCPVlHsVyDlqRgDP+uFJL/m2Ns1/RRJmACJmACJmACJmACJmACJmACJmACV5FA/E/5+B6lQLLzc2mNRWq8EXU31ppuuXxeA4ND+vm7H+vnG4ryZe2S+Xrq7hU6OFChbV3SR6dy6slJ5YIWqzNSa3VaT0zNal5dQenBQZ36+c/V/vzz6t22VbmeHqVratR0771qWrtWzWvXqmvjxtARuv3FF0PjFTo6X7CRepnJqHrmTNWvWqWJX/0qXWvUs21baNrSt2tX6CadaWhQ4+rVYT/HVkyYcMFQO3bs0EcffRS+J6IM6QofWE2ePFmtra1qaWkJTTeiqOW4KF8iY86P+2EchUz8nvPjxucYxcZ78nv2RbkZr1NOGnNOHGO4Wpnx2UhG0MVGIowdx41rS+6L804+VzGSjeOS647z5Ps4//iZceCRrPHJvJPPYUxZjtdiX4wa5DvGjM8sx8bI0eQ9ifeD46lxyLZkyZJwbjwuMovXJuX3pZdeCsc+/PDDoURA8l7E+xCvnYxkjd/FCL/4/MR7krxu7KYcOV3FfzbOuzTrQ6zSpEUizflc/cT4LCSjEznZUvFauXuehwmYgAmYgAmYgAmYgAmYgAmYgAlcIoHhpGIUW1GARMnD36QtV1ZWBHkwli2IoEJBWw8c1Xs79oiO0BMa67V64Rwtn3urCrXN+vBUTru68jrWd2EqNFepzUprW7Na1JjWhMqCdOSQ+jdv0okf/ED9e/dqqLNTFS0tqlu+XC2InRkzlOvoCCnMne+9FwRh6YaIJOJw/Je+pMa77hJp0BxPFCQRjvnu7tAMJtRRfPBBNaxaFeQl6dGlGwKKDr505aX+HVGJUVAhmZCMcCBNlrp5SCSiF5uamsKxvb29QcrAl/18njJlStgX5Rc19oiIjCLv9OnToWEH4/DOcZzPNdhH5Bg1+LgGjT64JmMwD65H3T7kDudOmjQpRFWWE8XxGWFcUoKZW2weQmow12Tctra2MC7zIw2Ya7Ju5sK1mB9z6uzsDPu5HmN1d3cHYYd4jetgnYgqzueajDlhwoTwHdfiHI7lu9iRnH3UI2R81sE1ELlcF6bMLykZuU/8zbUYDz6RF9yJVGSj6zJziOuIshhmtbW1YU7DScVYG5FxYz3SeK0on1n7sWPHwhzYmDP3jHM4nyYuvFgn37HmpLgcy2/w8zom/s8HGPAqNmVJnamhmD7vPT5byX83zspFRyp+XrfI45qACZiACZiACZiACZiACZiACZjA50MgKRVLPycjFJMNWyoqKoOoKUbjjX1ep7t7Qn3FH775no63d6qqskKP3LZIM6dN01B1o7Z1FrSjM6+T/QUNlrjFTEqa35DW4uaMbmtJS9QwPH5cA6+8qO4N76rnk09CY5aK1tbQcAUJWD1jRmjY0k5X6PXrQyOXwsBASI9OVVaqZvbs0OiFCMfs+PGha/Spl14KadX5vr5zadWPPRYawVRNmTLsYpGKpMDOmDEjyCykFMIETsigKLWQRMgXxApMkUR09UWEIY4QZkVxWxXGQsxFqYgwQ1wisnjFphgcS0dgxqRzMAIMucff3EP2cw3GjWIMgcZ+xkDuEU2JIGTc0o2xGBcpx/xihCDHTp8+Pcz94MGDZyMW4zWRnVOnTg379u3bd5YJYjEKV9YWo/SYByIVofbpp5+GNcAnytbIk3fmjZRjP3NgDK7D2Hxmgzv8WNuRI0e0bdu28DfnIEV5frkXrA2xFyUf9w/ByRzYli9frsOHD4fjmBPjR2kZpeZwUpE5IQzjulgjc2FNXD/eA8Zm3Jguzzx5hg4cOBCeC67H/eMc1gMjpOrV3OK/F7Hjc6y7eq6R0zm5iGhkuyBC8cw/IE5/vpp30tc2ARMwARMwARMwARMwARMwARMwgUsgkKxkFtNYGaY05TkpFUlxjLIsyoKxXrqnv1/rtu7WSx9v0ZubduiOebN035J5enzlYh3sT4c06A0nc+oakkpjFqvSClLxV6dn1TskDQzlNTnVr65n/kknf/y0+g8dOtvxueXxxzXu8cfVeM89oTZi+8svh+YtSEaRnjxuXBCPk//Vv1IhlwvdnQ//9V+rf8+ekPLMMaRST/zKV1S7YEHZlOfkmpGKH3/88dnIQ6RVMqINqbZr164gumJ04pYtWwLHlStXBhGIuOKFgEIS8o64i5FdSLFnnnkmSEsiIoloQ1ohpB566KEgnZgDY3IeYoxrIhJvu+22IM0Qg3zH/vnz5wfhhYhjTkTkIaxKN2Tm+++/H8ZnXUTocQ4yac6cOdqzZ48++OADLVy4MIyDeGNeHLt27VqxTvZzHtGBXHvz5s1hDIQgAo2NcRYvXhzmgaRDVkaBxmckH2tnHIQazPj+nnvuCdL2rbfe0syZM8M1kISwZM5r1qwR6emvvvpqGJsXkpV7QpQi60CoMndYwY15vfzyy+EePvnkk2FuXA9ByzG8EHyIX8YaTiqyzp07dwbWrIV5cx85Hw4xQpX5cn1eUdgjGEmphxNsuVecx1y5/8zxam7x3wsEaRStMUV7uDqKlopX84752iZgAiZgAiZgAiZgAiZgAiZgAiZwmQkkxWJMe45iMYqDZDp0rImH9LiY2oqMOZTL61RXtz7avV9vfbpT+4+3qbaqSrfPmaFFs2dq3ISJOtqf0s6uQkiHpjv04JlmyqRBT6pJaWlzJkQtTqhK6XDXkOqP7lf9zk069eyzoR5iDuFDtOCKFUIuUgMRUdj+0kvq2bpVua4ujXviiZAqTY3EUy++qI633lL35s1hX5Z04TVr1LRmjRruvFMZUpkTdfLK4Y9SkegyxBHyEIGCOCJab+vWrUHmIfeQYkiX3bt3h5RX5BtiKzZ5QSZyDmMgAqOIQU798pe/1NKlS7Vo0aIgtRB2e/fuDeIMsfb2229rxYoVQXYhwIh0Q5zxOdYwRAIRRUgDEvYhGomgRFIhtRgP2cW9nTt3bpjjK6+8EiL2GJd58QzEOnpIR17MKQq9Dz/8MMiwO+64I0g0+Nx5551BrPFMMU/GYD/r5/pvvPFGkGcIOCQd6+Mc3pGUb775ZqhvyDFwgQeycPXq1UEucj5rYG1cA6nI9sADD4Tz161bFzghFbkmfyMKGZNzYuQirFg7c4hSkehCWMEYHvBh/sjfefPmXbJURCYS/Ykw5NmBD9GPjM19IQUbjjwzHBfvC/cOAXs1N+aITOTZhXcUisX6iTH1uRitWFpTkXknU+0dqXg176SvbQImYAImYAImYAImYAImYAImYAKXSGCkaMXhUqBjCmxshlGuFt9I0zl48pQ+3X9Yb27eoQMn2lWZzej2uTNDR+jmpiadzFeFyMWjvQW1DxTUOVRQX06qTEvjq1JaPTGreQ3pUIOxLj+ohs6TGnzlBfW+uz40aSHNGbHYcMcdIb25etYs9e3bpz7qL7a3hzqJiML+ffvU9txzIeUZoRjSpxcsCFGOdUuWqGqM0WBRKiKEEHPIRJgg4BBtRJxxDBGFRJkhZJB3iKOYxowo4zykIhKpdENKvvjii7rrrruCnGRjXOQaco4ottdeey1cA/HG9elIjfBDRvE34ox7xpwQhIgyhBbykYg7ouBKpSLC77nnnjs7boxCQyoi66i1iNRDdhJJyIYAZD6rVq0K4g+BShMT1o4kI2owCj8kHmM8++yzYd68EHqkKT/yyCPhuHJrJxWcyEykItd6/fXXQ+Qk94C1kjbMXG+//fYQlbhhw4YwHiKQDZasDenIPYv1FtnHHJkD9+mxxx4Lco97FVOvEbOsmchIZOpIkYrMHfEYIxURwVyXe43c5BoI0FjfErnId8hLolD5HEVjrG0KR9Z6NbdYRzHWXY3isDRKMdls6DyRmKidYKl4Ne+kr20CJmACJmACJmACJmACJmACJmACl0ggKRUZIkqCGKWY7Lib/C5KquEafIw0HTpC9w0M6uPdB/TO1l166aMtqqmq0ILpk/XoisWaM2WSmhobdagnr91deW3tzOtIb17dQyRfSyvHFWsrzqzLqGMgr46+IU0f6lD+nTd09Nvf1uCJE6ErNI1WaNyCRKxbtiyIRGovUlexY/16HfvOd0KtRZq6sLU8+mh4EeVIExe6Q49li41akEdIQVJ6k5Ll3XffDVGF999//9m0VWRgrJcX00dHk4rIK6L3olREqkWpSNQd0XqkHBPth0BEphFll+wUzfdIRSQi0grpiDRj7kiyZLQqog3JiPBj7gtIBT/T2RqpxNgIMYQbEZJRhiINEX2kJsOGOSalIvKTjTGRishNrsH4w0nF0rUjFXkhFZF0XBOJyRqivGKusUYj94A5RKnIeHGOpJLzHMctSkXWyByJvETyEdUIEyIW4YIoHEkqkrKNVEQAwgZhSEo080WaEpHK/PibewEHXsyFNGzmBx/WFGsVsg8ZWa7+5Vie1ct1DIx4scW5DScWOSbui9d3pOLluhMexwRMwARMwARMwARMwARMwARMwASuEoHSSEWmUdq0pTT9Oe6P9d+SabpjXQZjnujo0p6jJ7Vx70FtO3RUbZ1dGt9Qr1mt4zVr8kRNGDdeVbUNymWr1T5YCOnQvBqyKbVWp7S4KaN8QRrI5dWUzqlwYF+IOmx/5RV1b9wYxCLRhkQdIguJWEQ0nn7zzSAVuzZsCE1ZMjTGWL48yEeat5AyXa7L83BrQ5xt2rQpyDxEEVIx2eWW9Gci9pBKvBBDyDi4kY6LVCKaEFk0XKQi0X5RrJGKzJaUiggwJBZjkILNdYhCJKoOKcWGGCsnFYlUJNU5CrfkOmNNRaIuEVmMi6RkQ3whFlk/0XNcF0HKORyP5EOmJqM0EVFEFbIhQJNSEaGIWGSdMEQCssW1E5EZhSpCEeb33ntvWOP69etDnUlkXUzRhgVrQmpGqQhvNs5n7jzDrCmmoRMVSMQlNRVZC5GMpEoj/ZCDrD2mQZOGHCUoYzLfZGdmxCP1GGPzHfgR3cnGcwIvngGiHnmR4syLdTBvUse5Z8hLJBzHwoWIUsTw1diSHZ9jU5xz0Yl0fyb1uSgR42+gVCgyb0vFq3H3fE0TMAETMAETMAETMAETMAETMAET+BwIJBu1MHxpxGIUi8mUaMQAUgZJlpRoFzO9nv4BtXV2660tO7V+6y4dOHEq1FmcPK5JS2dO1exJEzR1HFGDWQ0oo45cRn2FtCoyaS1szKo6mxLNZam5WBgcUL63Tyee/lHo5Ny3a5fyAwPKtrSo5aGHQmfobGOjjv/gB8Uaih0dQSjWzp+v8U89FYRi1bRpFzP9cCzyCGmIZEK0IYuSPJB7yCQkFhxjR2jkEZKMSD+i0vgeoVVOGCH+EGdEyyHe2JCVRBnyHbIQmYesREQhyhBU3BskJPcNMcZx1BBEVBHdyHfMC/FYrvkHAo25c30+x/Tc2GSGyDqi72KkH3ITecY6kKwx/fnuu+8ObEj3fu+998L8kY6cR8QmUZaxkQoSD4acw8a1+Y4U67h2xuXFGIg+BBzr5TOCkPUyBmxIA0dAkjoe18g9gRXSj7VwDsKTtHDkIRKSsZgDjWpgy31hfRyH4ON+I/+YGxvHJiMeYQNb+LFu7m+so8l1mGNMpWY/G+PCiXGJkIz1FtnHPBGKRD2WS5G/6Af3Ek6ACQwQisw/me5cfOZj1+dztRS5TGmTluSlnf58CTfCp5iACZiACZiACZiACZiACZiACZjAtUIgSsXY0IN5lTZqSf5dlIxIkHQQKciQSxGLpELTwKWjpzcIxU/2Hgr1FvccPaGCCqqvqdbk5kbNaB2vqeNbNLG5SU31dWqqrdH4uiplg8g4sxXyyufyGti/X6ffelMnfvQjDR4/rsLgoDI04xg3Tpm6OvXt2aMhUp7punvffeFFp+iK8eNHbcpS7n4h24g0i1FypZGbCCNEFMfwjphBMCG9OAexxDFIIyLdktFu8XoIMwQg6bKxYzIiEkmFnORcZE+MeEP6MA6Cj2twv7gO9yim0HJNXozNXHiVbsyVYxiXaEquwfmMy1y4DutnjJjGHRvWxCYs7CcCMEYQItvY+I75MH6UZ5zLftbDfjbG5jtkaFw70Z3MCdHHGMyN67DG2Kk68uV8WMXu04wZG83EexJlL6w4D9ZsnIP0ZOzIFK5wiWxL1xMZxmsgb/nMc8ELsQsL5s04rAUG/PZYH+Oyn7nFNbEP7jBnX1JeXql/Q5LNWfgc0565fpSLyRqKyUjFOMdy9VctFa/UHfR1TMAETMAETMAETMAETMAETMAETOBzIJBMeWb40hTocp2g43cIoJgKfbFNW+JSGIuoxSOnTmvf8VPaf/ykDp86HaIYu3r7lc2kVV1ZofrqqhDJWFtVoeogM9NKn2n6EAXl+OoKTent1tRDe9W7fn2ISiTNmRqJpD/zGYFIhGLTAw+oYeVKVU6delEpz8lbgBjilRSrpRxYX7K5RewyzHExCjRZk66c3ENqcQ1Ys/E310VSRYETr8E+xFPcFyNMowDi+GS9TP5ONispvT7j8WL8ZNp7fFaiLGUNcW3l5hg5sC/WZ4zdpKN04xqxZifHscaxrJ05cC7jJdce709sLBTXxnEx8o732NEcFjG1lznGdTM2f3Ncsk4l3yfXk2THNRCGHB9TmJMCDh5Jdsmu31HixdqFMSp4pPv0OfzTEIZMPr9xLeekYoxOJP25+DlupRGKloqf1x3yuCZgAiZgAiZgAiZgAiZgAiZgAiZwlQnEtOekeEkKxtL6ilE4IFuQSeXqp13skmIjlz3HTmrHoWPavO+QDp5sD4KxF0EToiQLRUmTLoqMonzKazCX0/xpk7Rm7gw9vmC2en7xrNpfeEH9Bw8Wm7QQVVVTo/rbbtO4J58MtRTH2uX5Ytfh403geicQf/sxYjUK3xiNG2snxt998p21D9fxOcnFkYrX+1Pi+ZuACZiACZiACZiACZiACZiACZhAmQjFc3KxwN6zUXUxSjE27YhRWLG+4qVGLEZJmcsXgkAkerGrt0+9A4Pq6OnTqa5une7uVWdvX+ggjUREMqZEI4t0iGhsbWrUrNZxWjhlotKHD6v/k4068ZOfqH/v3tD5ufGuu0K6c9Patco2NChdXe17bwImUIZAbMxCtCX/QyGZ9pwUiMnaisOJxOH+TbBU9KNnAiZgAiZgAiZgAiZgAiZgAiZgAjcAgdI0aJZU2rQlCsVk+izHxZTVZIru5UASriepn5qBPf3q7OtTT1//Wak4RH23M1KxIpNRTVVlqLnYXF+rityQ8ocPq+2FF9S7Y4cK/f1qfvDBEKlYM3fu5ZiexzCBG5JAFIox/TsuMqY9l6brl0Ypxn8T4nmWijfkY+JFmYAJmIAJmIAJmIAJmIAJmIAJmECRQJSKkUeyK3SpTCzXyCWVSquiothw5LNEK17O+0EH6KG2NvXt26fBY8fUcNddqmxtvZyX8FgmcEMRiL/tWKcyCsJkPUi+KxehOFwJBEvFG+oR8WJMwARMwARMwARMwARMwARMwARM4EIC5aIVyzVuifUVY8RiPAZ5EJu3xKYSV1MwFnI5IRbzXV3FJi10Ha6p8a03ARMoQyBGKFI/MTasKScVk/Iw2fm9tAv8aL99pz/7MTQBEzABEzABEzABEzABEzABEzCBG4zAcB2hkzKxXPRiFBA0b4kdfUcTCzcYOi/HBK47AvH3Hjt98x4bIiUbspRGJw7X4Xmsv3lLxevuUfGETcAETMAETMAETMAETMAETMAETGBkAslU6FLBWBSLxXTpQqHYjTkZsRhlBBGLl6N5i++VCZjA50sg2ZSFBkzlhGK5bs/xfyIk30s/jzRzS8XP9756dBMwARMwARMwARMwARMwARMwARO44gSSIhGZEP+OjVvyedqnXCgWo1yMYiFGK/Ieo5yu+GJ8QRMwgWEJIBGJTOQ92dE92XylXLfnUqEYRaSloh82EzABEzABEzABEzABEzABEzABE7jJCZQTixc2bykvFpNyMXaETorFsaZH3uS3wMs3gc+NQPyNUj8xisVy0YixTmLcF6VhMvX5UoRiGKdQ2h7qc1uuBzYBEzABEzABEzABEzABEzABEzABE7hSBMr9536yjiLzuFAyXpgKHeeLVKTWImnRlopX6i76OiZwPoH4m43NWGKdVI5CII5UNzEZsRjlYinfi/ltWyr66TQBEzABEyFEagAAIABJREFUEzABEzABEzABEzABEzCBG5jA2CIWk+nQRbFYWmsxyoqYEh3/Lu0YewOj9NJM4KoRiJGJSERepDxHoVgahZgUi1E2Rol4OSIUIwRLxav2OPjCJmACJmACJmACJmACJmACJmACJnBlCJQ2a+GqyShF/j5XbzEfJpUUi8l0aPZFsUjkomstXpl76KvcnASScj92d46/1SgML6yfmFYqVeSV/H2WRiGWdn++WMKWihdLzMebgAmYgAmYgAmYgAmYgAmYgAmYwHVGoLQbdLJ5S2kTl3J/J1Ms6RwtFc6mQCMtSInmHdl4MemT1xlGT9cErhiBGJEYG7DE3yC/v+JvrBB+c6ViMf7Ne5SN8XN8T9ZQTO672MVZKl4sMR9vAiZgAiZgAiZgAiZgAiZgAiZgAtcpgeG6QpdGMiYlYoyKKo1cLP5NJFTqPKGYTiMWzwmNpNi4TrF52ibwuRFISvzk7zApFeNv73xJWIxGLI1STMrE0kjE+D8TPmuEYoRhqfi5PRYe2ARMwARMwARMwARMwARMwARMwASuLQL/P3vnAm9jtfX/0TmR2KEOb7Zr6b8TKbm9uV8K2dpELklyjXLPJZQjyiGXXJJbREjlWmKHNuUepW13kS775MUuW20Rtkt0Tv/PmJpPcz37edZaz7rOZ63f8/mcz7v3euYcc8zfmIvXtzHmsGvewl6qQMP8s1VDFznnv//l1MUrdzBegRVXiYxFho2yTFq9800vReANFIiuAvJqAc5IVO9LlN8v+Z268h26UtOsQkG1u7P6uRVQNO802KxiQMXonh2sDgWgABSAAlAACkABKAAFoAAUgAJQIOIK+JOxKCHhX3ct/gUP/5rPMPKvOxjVjeQFHFf9mVXlCUXMpZgRFwMLQoEwK2CG+b6gvfX36K97Ev/KWPQEjeas4FA2ZbGSCFAxzAcH5qEAFIACUAAKQAEoAAWgABSAAlAACuiogC+wyD57wo8rANGq6YtaIi3n5c2KZKh4RQmUROt4IuBTOBUw32uqfr/kd0ICdrssw6uuMoPFv0qgpQ25h1A3ZQFUDOfpCJHtYFNPQ+QGzEABKAAFDAWsSmQgDxTQVQH8PaprZOBXOBXAn9PhVBe2Q60A/pwOtaKhs2cVm7zg7woU/GusPSS0giIMRP7+9yvNXGRHWvU+uNDtBpZiVYHvvvvOlVsz/10tvx+y6Yr8XqlZu9ZZh1e+c2rJswoT1e+x+f5EO9gYjKDIVAxGvTDM5aA/k3EuDJZhEgpAASjgXIEJVQsZ/yXa+WzMgAKRV4D/Hj322MjIL4wVoUCUFCj56kT8OR0l7bFsYAqIf+SeXhnYZMwKmwLW9yz+tZxsyCI/uTL+KtGk5cpdilfeyHESZlx5K99dec9ARI6Xc8xAE/+xJGyhdrXhEkm96fjx467ag3q2zWX+V74nMmv3yrassgs9Ab0E+X8BfnN2o5Udu8+CFRNQMVgFQzwfUDHEgsIcFIACQSkAqBiUfJgcBQUAFaMgOpaMqgKAilGVH4sHoACgYgCiRXhK3pLov0qgr0BAT4f497/uXrzy0rPM8wookY1exM+KCasMLkDFCAfdJcsVL/8Y5eTkuMTbv8696rCvTELze4b3Vz670gTJDjqqYNGc7RhOwQAVw6luALYBFQMQTcMp2QczaFnPZnT54nnhXeHEMtRtyTZKKF5CC28zt2+gE4e+odrdhxD/vOrJ9tR+xipKathCC//ghD4KACrqEwt44p8CgIqeOp27fIm6pK0WHy5t1o4K5cvvn5BBjEo7kkndNq+hxU3bUrNySUFYwlR/FABU9EcljNFJAUBFnaJh7Ysd0DNnF8oMKw9Y+Cdg7D1oPr25ahc93K4ezX/pcaMzNK+Y8cVhemPVTnpxXBf67IvDlNx+Ao0Y1Iqe7JsiHLJb/7MvDwubk5/vrL+I8DAsClxfrjudOnUqLLbDadTbtQ+e7zzhoRUoVEua8wLIvLvwtnYo9gyoGAoVQ2gDUDGEYkbJlIR0jQeOE9COn/Wje9E3W9ZS54VplFipapQ8u7KsBJ71ej9t+BdVh7C41goAKmodHjhnoQCgoqco0YCKOJiRVQBQMbJ6Y7XgFQBUDF7DSFqwylqU4M+jxPnPEk4ef+z4KWp0/1jK+uEXKl3qH7T9veeoxI1FBVjMPn6KGrd8nurXrkjzX+otAGPztuNp5JMP0OB+V6Ci+sj1j//8K93b6nmqV7sivTK9VyQlwFoaKVCkTDc6ffq0Rh5Zu+IE5MmxVmXQVuXS6op2UNHJ+sGKCagYrIIhng+oGGJBI2zu0vlcWjmwnVi1w8zVlL9ggqUH5kxGmSWYm3OcFndtRCUqVKGLZ0/T0fSdIsuxTvdhtGnCIGFLwkoJL+9I6URfpr4p3vHPLcctED9LW2eys8TvvEZipWrCvvyMx9/WpI1HpqLcA69ttslwVK5lzr7c89o02jpztJijW2ZmhI9BTC0HqBhT4YyLzQAqeobZDBWf+SiNPso+Ss3KJtFrB9Pp2qvz0Tspj9Cdxa5k0g/ankqrMg+In2snlvXIbrR6x+M4E/LMbxfFnENnTtGI6g1o7McfGJmK0oc92Uev/H2UVJleanjlH46qzVIJhSm1VRe68c+/O2d/vpfG79smxpnfxcVh9nOTgIp+CoVh2igAqKhNKBw5Yu5aK++Ck0bU9+s3pVO7R6fRIx3q0xsrd9Ka14dQi2bVKDf3N3rw0Rdp155vxLR6tW+jZ4e3pQc6TaGnh7Smof1b0vGffqWG94+lH378RYxZuXgwNah7O7XrMtVj3uqlQ2n+a5vp2QlX7ue89tr8lPb2P6lqlZsc7QuD3aVAQskulJubq73TssO5naN20M/qc1/ZiPJ9JEGiui9ARc2OI6CiZgFx6I4/WYDmMQzjds1/QWQxXlc8UUA/frhcOvvgfgH8ylavLyDl+y8MNjIec3OyxTsJEiXUY3hYrmYDD7iZvmK+sQbb5tJsmaloLn9mcHg6O0usd2TfDgM48ryPX58pPv/lcKawcVuT1gJiqnv4x01JfoFVh9JieJQUAFSMkvBYNmAFABU9pbOCigwNuTS5SvFESlm3lOoklhWQTy1bLlHoOmqT+gYNqVqX+lWpRQz4Fn+9X0C/n87nGu+6VaomoOJnOdkGnDSXPzM4/CH3jACUu48dMUqj2dNXDuwTn39/+qSwmXJzBeELrzctY7eweUuRGyJewh3wAYzCREDFKIiOJYNSAFAxKPmiOtmfsmh2sHvfubR991e0askQat91GjWoU4lem9NXlDVn/3SKGiSPEZ+9+vLjtP/z/6MmD4yjUcMepCe6NxXQkZ+3Xx9G817bTBOmvkOb146mxBJFqWGLsdSgTkV69eUnxLw+Q+bT2jeHi/H87qayxcW8hIQCUdUJi4dPgYIlOtP581euGNP5sQN88jtkBw/9zUw0j2MtABV1PhER9A1QMYJih2Epf6CiCuC4FFpmFJarXl9kITJU5J8Z1nkDkBIqmrMceW6Nh/t6gENpp/XEJZRQPNEWKspMxurte9uWRqvZigw073t6eh6IiHsaw3C4omQSUDFKwmPZgBUAVPSUzgoqpv7ft5awTgI/tqDehyhtlE4obGQYylWsyqtVqCjBZbeK1QSctHrUbEXOYpxQp1keiIh7Gu2/EoCKAf9xgYlRUgBQMUrCh3hZc+aiNJ99/Feq0+yf1LDu7fTanD4GYPwo7V+UWOJ6OpZ9iuo1H00N61aiRbP7UHrGIbqn1fP0z6cepHsb3CF+HjWsDT018AHa/9mVd8sWDKDqVcpT/eRnBYzkefKZMvNd+ue4FeLX+nUq0to3ngJUDHGsdTJ3TfFO9Ntvv+nkkiNfrGCgNKBeJ2AHCc3gMFogUd00MhUdHYHwDwZUDL/G4VzBH6jIUO5I+k6jcUs4oKIsaTbvlaHlTXc3toWKZuCozpeZkAwSVfhpBqE8B1AxnKcssrYBFSOrN1YLXgFARU8N7cqfOeMwIV9+D3jHMznrUJYp8+9WGY3qCr6gojnjUZ0ry5sZJD5Ts5GRNan+LMukARXtvxuAisH/uQELkVUAUDGyeodrNbusxfUbP6XWnV6ktW8+RS2Tq9O6jZ9Sm04v0jtvDqOWzWuIOxXr3sdQ8Qp0TP/sEDVOeY7+OexBqlihFD3YeWoel8eP7kidH2rgASNTN6WLsQwSl80fQJ17vyzmvfsmoGK4Yq6D3fzFOtGlS5d0cMWxD04AoL9j/R3n2FkHEwAVHYgViaGAipFQOXxr+HOnYjQyFdUdm8GnCgBlpqLMlJTzzPu6dC7XyKhEpmL4zpMOlgEVdYgCfHCiAKBi4FBR7QwtgR/fZbgyuSMN27VJGDZ3kPYFFc0l1tI787zcy5cMqIhMRScnnghQ0ZleGB19BQAVox+DcHlw9uwFSnloIu3Y/XWeJRrUrUipK0bS2dwLVLvpP6lRvdtp8dy+9On+Q9QoZSyN5kzFhncaPw9/srWHDYaRMgOS53XrM0eUWHMG5HUJ11KrhyeJ8eveGoFMxXAFWAO7V9/QkX7//XcNPAnMBW8Q0FsWI6+mA0C02jWgYmBnIWyzABXDJm3EDPvq/syOqHcaWt2p6KT8Wd63yPcmcqOUUNypKDMpz+ZkG76eOPS1kWHJzVp4LfU+R3kvJO5UjNhRi8hCgIoRkRmLhFABQMXAoeLig/tt7zFU33EjFXkXoz8AkMubuTmM+T7G7349YXy+OvOAaMoim7jgTkX/vxSAiv5rhZF6KACoqEccwuEFlzI3aDGG2j1Qi5bM62cs0fWJ2bRq7R7aseE5Kpl4PdVqMkpARR7z6f7vRWOW0cPbUr/H7qOWHa/AwfXLR9DsV9+ncZPX0Pb3xop5KoycNONd4x13m27daQoxuOR5uFMxHNHVw+bfr+9I//nPf/RwJgAvfIFBX+8DWDLsUwAVwy6xswUAFZ3ppetoc3fnfAUKikYsfIciP+p79Z1aCu3vnYp1HxtOnyybRZcvnjc6Q/MaVt2fkxq2ILW7MwPJ6h160TsjuggYaX7PdiQ4NPt8bdEbqGipm40u12r3Zwk67bpf6xo3+JVXAUBFnAq3KQCoGDhU5ExF9X5DfzpD82pcMs2PzGI0lyrbdX/+4sRx0Zzlwu+XRRfq66+5lsoVLmrYUbs/mztRu+1chtNfQMVwqgvb4VAAUDEcquphc9L0tTRy7Ju0bvlwaplcw3CKS6JbdZxML4x5mEYMbk0MGV9fvoPKlP4HzZ/Rmx58dKroAs3vOCORoWPWD1e6P7/7FpdRX7Glznv3zeH0QKfJYhx3fv7HDQkik2vvlvHi7kY8sanA34o+RP/9739jcnNuBIocCEBFzY4joKJmAdHYHdxbqHFwYsg1QMUYCmacbAVQMU4CjW0aCgAq4jC4TQFARbdFDP5CAX0UuKpIB9FFHI8+CgAq6hML4QmgomYB0dgdQEWNgxNDrgEqxlAw42QrgIpxEmhsE1ARZ8C1CgAqujZ0cBwKRF0BQMWohyCPA4CKmsUEUFGzgMAdKBDnCgAqxvkBcOH2ARVdGDS4HJQCyFQMSj5MjoICgIpREB1LQoEYUQBQUb9AAipqFhNARc0CAnegQJwrAKgY5wfAhdsHVHRh0OByUAoAKgYlHyZHQQFAxSiIjiWhQIwoAKioXyABFTWLCaCiZgGBO1AgzhUAVIzzA+DC7QMqujBocDkoBQAVg5IPk6OgAKBiFETHklAgRhQAVNQvkICKmsXErR1/NJMR7kABKBBCBXAZcgjFhKmwK4C/R8MuMRbQUAH8Oa1hUOCSrQL4cxqHAwpAgWAUwN95wagX+rmAiqHXNCiLyFQMSj5MhgJQIMQKIFMxxILCXNgVQKZi2CXGApopgExFzQICd3wqgExFnxJhABSAAjYKIFNRv6MBqKhZTAAVNQsI3IECca4AoGKcHwAXbh9Q0YVBg8tBKQCoGJR8mBwFBQAVoyA6loQCMaIAoKJ+gQRU1CwmgIqaBQTuQIE4VwBQMc4PgAu3D6jowqDB5aAUAFQMSj5MjoICgIpREB1LQoEYUQBQUb9AAipqFhNARc0CAnegQJwrAKgY5wfAhdsHVHRh0OByUAoAKgYlHyZHQQFAxSiIjiWhQIwoAKioXyABFTWLCaCiZgGBO1AgzhUAVIzzA+DC7QMqujBocDkoBQAVg5IPk6OgAKBiFETHklAgRhQAVNQvkICKmsUEUFGzgMAdKBDnCgAqxvkBcOH2ARVdGDS4HJQCgIpByYfJUVAAUDEKomNJKBAjCgAq6hdIQEXNYuIEKmYfzKD3nutDHWetpYTiJTx2sue1afT97jTqMHM15S+YYLnL3JzjtLhrI7pvxDRKathCMyXgDhSAAjooAKioQxTggxMFABWdqIWxsaAAoGIsRDG+9uAEKqZnHKKeA+bSxtXPUGKJ6z2EmjR9LW3c8hmlrhhJCQkFLEXMPn6KajUZRbOm9KCWyTXiS2jsFgrEoAKAivoFFVBRs5g4gYreXAdU1CywcAcKuFQBQEWXBi6O3QZUjOPgx+nWARXjNPAu3rYTqOhtm4CKLj4EcB0KBKgAoGKAwoVxGqBiGMUNxLQTqGjOVMzcvoFWPdme8hUoSDfXuocunj0tMhXff2EwFStfkWp3H+Lhkq9MRWmPJ5WtXl/Y4mflwHZUJLEMfZn6pvj9jpRO1HLcAvGzOoc/P52d5TVbMhCNMAcKQIHIKQCoGDmtsVJoFHACFb84cZyG7thAy5p3oBtNWf2zP99LH/5wiJY2a0eF8uW3dO6n87mUsm4pja/dlJqVSwrNBmAFCjhUAFDRoWAYHnUFnEBFc6bi+o2fUquOk6lgwWuoaeM76dfT50SmYr9hC6lShVI0YnBrj/35ylSU9nhSw3qVhC1+Uh6aSOXKFKelb20Xv3d5uCEtmddP/KzO4c+PZOV4zZaMuuBwAArEkAKAivoFE1BRs5gEChXP5mTTsp7NqPXEJVSuZgMB/vgJtPyZgaXZHoPE+56e7mH7yL4dtHZkV+q8MI2uK55olFP764Nm8sMdKAAFTAoAKuJIuE0BJ1DR294AFd0W+fj1F1AxfmPv1p0HChWPZZ+iBi3G0PJFg6hx/coC/PETaPkzA0uzPQaJs1/s6WF7684D1LHHS7Rjw3NUMvF6o5zaXx/cGif4DQV0VABQUb+oACpqFpNAoWL2wf308eszDYjIGYPq71bb9JapaJ7Pv78/aQh1mvcebXi+H91St5nIfGQby/u3pvvHzKXcnGzHPmgmP9yBAlAAUBFnwOUKOIGK5kzFtCOZ1G3zGrr26nzUoNRNdObSbyJT8ZmP0ujWosWoX5VaHur4ylSU9nhS7cSywhY/XdJWU+mEwrQq84D4vX1SZXqpYYr4WZ3Dn/+Qe8ZrtqTLwwX3Q6AAoGIIRISJiCoQKFT8NON7mjor1YCInDGo/m61CW+Ziub5/Hv/pxbRB++OpscGvkLJTe4SmY9sI7ndBFr4ch86dvykYx8iKi4WgwIxrgCgon4BBlTULCbeoOL60b08So5rPNzXaNTCpchqY5ZgoaL5TkZZav3glDcEVLz70YGiuYsKFQ9/vNWxD5rJD3egABQAVMQZcLkCgUJFBoRtUt+guY1bUd2S5QT44yfQ8mcGlmZ7DBIn1GnmYXv3sSPUZ+s6eiflEVGCLcup/fXB5eGC+yFQAFAxBCLCREQV8AYVuz4x26PkeODjyUajFi5FVhuzBAsVzXcyylLr1UuGCKg4tH+KaO6iQsUt275w7ENExcViUCDGFQBU1C/AgIqaxcQtmYpWUBGZipodJrgDBUKgAMqfQyAiTERUgUCh4uc52fTKgX0GROSMQfV3q014y1Q0z+ffR+3ZTCuTO9KwXZvontLlReYj2+i8aSVNbdCCjp8769iHiIqLxbRUAFBRy7DAKS8KuCVT0QoqIlMRRxsKRFcBQMXo6m+1OqCiZjEJFCryNhZ3bUT3jZgWkTsVraAi7lTU7DDBHSgQAgUAFUMgIkxEVAFvUHHQ9lSPkuOet9cwGrWszjzg0ZglWKhovpNRllrPv7e1gIqPV64pmruoUHHnj4cd+xBRcbGYlgoAKmoZFjgVBqjIJms1GUWzpvSIyJ2KVlARdyriaEOB6CoAqBhd/QEV9dM/j0eBQsWE4iU8Oi/XfWw45fz7ILUav9Bn9+cz2VkefrSfsUqUNnvr/mwFFRMrVTXmcAfq/+3cn7Iy9qD7swvOHVyEAnYKACribLhNAbdkKlpBRWQquu206eEvoKIecYAX/isQaKZiYonrPTovjxr2IB34OouWzR/gs/vz0awTHg6uWz5clDZ76/5sBRWrVy1vzOEO1IP73k+79n6D7s/+hx8joUBQCgAqBiVfWCYjUzEssgZu1AlUDHyVyMzkOyD5aTluQWQWxCpQAAqEXAFAxZBLCoNhViBQqMhuOb3P0Fv5s687Fa2gIu5UDPPhiFHzgIoxGtgY3pYTqKi7DHwHJD9L5vXT3VX4BwViQgFARf3CCKioWUzcDBW5mcuyns3o8sXzQtWy1esjS1Gz8wV3oIBTBQAVnSqG8dFWIFCoyEBP7bw86K469M2pHJrVqKXP7s8/5p7x2Pbipm1FabO37s9WUPHOYiWMOdyBunflmvTJTz+g+3O0D5Xm6wMqah4guJdHATdDRW7m0qDFGDp//jexr4b1KiFLEWccCkRQAUDFCIrt51KAin4KFalhboaKkdII60ABKBA5BQAVI6c1VgqNAk6gYmhWDJ8VvgOSn5capoRvEVh2vQKAiq4PYdxtwM1QMe6ChQ1DAc0UAFTULCBEBKioWUwAFTULCNyBAnGuAKBinB8AF27fzVBRlkxf+P2yUL52YllkKbrwDEbaZUDFSCuO9YJVAFAxWAUxHwrErwKAivrFHlBRs5gAKmoWELgDBeJcAUDFOD8ALty+m6GiC+WGyxooAKioQRDggiMFABUdyYXBUAAKKAoAKup3HAAVNYsJoKJmAYE7UCDOFQBUjPMD4MLtAyq6MGhwOSgFABWDkg+To6AAoGIURMeSUCBGFABU1C+QgIqaxQRQUbOAwB0oEOcKACrG+QFw4fYBFV0YNLgclAKAikHJh8lRUABQMQqiY0koECMKACrqF0hARc1iEgtQ0VsXaH733nN9qOOstZRQvISH+t7eaRYmuAMF4kYBQMW4CXXMbBRQMWZCiY34qQCgop9CYZg2CsQCVPTWBZrf9RwwlzaufoYSS1zvobu3d9oECI5AAY0VAFTULziAiprFxO1QUQLF1hOXUFLDFkLd9aN70ensLOowczX9cjjTFipqFgq4AwWgABEBKuIYuE0BQEW3RQz+BqsAoGKwCmJ+pBVwO1SUQHH5okHUMrmGkK/rE7PpSFYOpa4YSd9mHrOFipHWGutBgVhTAFBRv4gCKmoWEydQUWb2FbiuKB1N3yl20n7GKgPmZW7fQKuebC8+L1u9voB6/Kwc2I7KVK1NnyybRZcvnqfGA8fRiUNf05epb1LhxDLUbck2kUV46XyuGGu2nZtznJb3b033j5lLiZWqeijIa74/aYhhg1+yn2uGdqTkf86ijeMH0JnsLLFOi1Ev04Z/9b8y/6qrxO8fzhwtshizD+6n7XOeF69+/u5LylegIHVemCbW4/UXd20k7PC+Lp791dIXzUILd6CAKxUAVHRl2OLa6VBBRe7EPHTHBlrWvAP9dD7X+PnGggm2+g7ankq3Fi1G/arUCioGaUcyqc/WdfROyiN0Z7G/svpV+zzmlQP7vHaHZr87b1pJUxu08LATlHOYrJ0CgIrahQQO+VDACVSUmX1FixSi7bsOCsvrlg83YN76jZ9Sq46TxecN61USUI+flIcmUr1at9H0Oe/R+fO/0cSxnejgtz/S0re2U9kyxWjvlvEiizA396IYa7adffwUJbebQAtf7kPVq5b32BGv2f+pRYYNfsl+tuk8hRa89Dj1fnI+Hc06IdaZP6M39Rr0yp//3LlK/D5i7Bsii/HTjO9p9PgV4t3nXx6hggWvoR0bnhPr8fq1mowSdnhfv54+Z+kLDhsUiDcFABX1izigomYxcQoVl/VsRvV6P021uw/JkxHI7zhjsFzNBgIOFkksQ/c9PV38zA9DxiP7dgjwyGCx+kO9xbtb6jYz7PG4luMWEMPCtSO7GmDPTjYJ/C6c+sVyrFrifDYnm6SPnNWovmOoyH4xJFX9Z18481H6tee1abRr/gs+/dIszHAHCrhGAUBF14QKjv6pgNuh4rnLl6j/tvViNzX+p5QHoARUxDG3UgBQEefCbQo4hYoNWoyhZ4e3pRGDW+fJCOR3nDHYuH5lAQfLlSlOs1/sKX7mhyHj1p0HBHhksNivV3PxLrnJXYY9HrdkXj9iWNixx0sG2LPTVQK/E7+ctRyrljgfyz5F0kfOalTfMVRkvxiSqv6zL5z5KP2aNH0tPT95jU+/3HYO4C8UCEQBQMVAVAvvHEDF8Orr2LpTqMgZgG2nLhcZfAz+Pn59pgEL5c/5CyaId5xB2Gnee7Th+X4GODTfY8jArlj5inRHSieRDXjfiGki81FmLd796EAjE9Lb5hj2bZ05WgxRswzNUFH13wwV1YxHtsfZlAw/1SxJb1mTjsXHBCgABfIoAKiIQ+E2BZxCRc7467Z5jbHNxU3bUpXiiZSybin9mHuGSiUUpsn1mtOET7aJrEXOVFTn1E4sK7IFFx/cT+P3bRN2RtVsJGDg7M/3Gp9de3U+I/PQW0YjZ0hOz9hNvSrXpDF7thhrqrbYflLRfxiZirxml7TVtCf7qFif91C3ZDnjM7k2+y73xePaJ1WmlxqmuC3E8NekAKAijoTbFHAKFTkD8J1lT4kMPgZ/U2elGrBQ/pyQUEC84wzCD94dTY8NfMUAh+Z7DBnYVapQiro83FBkA86a0kNkPsqsxaH9U4xMSG/aMuwbOfZNMUTNMjRDRdWOpIxFAAAgAElEQVR/M1RUMx7ZHmdTMvxUsyS9ZU26LfbwFwoEqwCgYrAKhn4+oGLoNQ3KojeoyMCPS5T5YehX4+G+HvcTqlAxfcV8+n53mgCMDBUlsHtwyhsCKko46Asqcomx+jDU46xIJ49aEs3ZibJRi/ozl1uboaIKRSVU5D2rIBJQ0UkkMBYKOFcAUNG5ZpgRXQWcQEUGeD02v02Lmj4oyoMZ3H34wyEBCb8/fdKy/JlLiuWcW4rcIMBd6YTCAs6ZMwlH7dlMqa26CBDJ7/jxBfHYB34YSvKc+2+qQM3KJYnP7DIVn/kozbCtlk7zurL8Wfp6T+nywrZ579GNGlYPRgFAxWDUw9xoKOANKjLw4xJlfhj6DXw82eN+QhUqzl6wiTZu+UwARoaKEtitXjJEQEUJB31BRS4xVh+GepwV6eRRS6I5O1E2alF/5nJrM1RUoaiEirxnFUQCKjqJBMbGugKAivpFGFBRs5g4zVRUOyk7yVT0Byra3ZvoTTKGf/yo4FEFf/wuGKiITEXNDizciXkFABVjPsQxt0EnUNG8efWeQjuouDrzgAEeC+XLL7IW5d2GDPfs7lRkWPjdrye8QkVZ+jy4al0BOdn2e4e/NeZYQcUX6zWnDhuX0/jaTQV8ZBsMOh+vXFNkXNrdqYj7FmPn6AMqxk4s42UnTjMV1U7KTjIV/YGKdvcmeosFwz9+VPCogj9+FwxURKZivHwTsM9AFABUDES18M4BVAyvvo6thwoqcpdlb3cq+oKK8o5G3gDfY2jV1dlqc7IpiyzJ5jEMGtNXzRfNW4LNVMSdio6PFCZAgaAUAFQMSj5MDrECb7/9NrVt25bWrVtHLVu2tLTuDSoylFuVeUDMk6W/6mf8uSxn9gYVZZmzdIBLpDkjccK+bQZUlHBPliSra9rJwtmDbVLfoAu/XzaGSNsy21FCSwkzJVTkUm314RLpdkmVPaCiudRbLckOcahgLoIKACpGUGwsFRIFQgUVucuytzsVfUFFeUcjb4rvMbTq6my1YdmURZZk8xgGjXMWponmLcFmKuJOxZAcMxiJUQUAFfULLKCiZjEJFVSU9yjadX/2Byqauz/L0mdfJccSQHJnaX7UjtKykQt/rnZ79rf8maGi2v25escnKGv/bnR/1uwcw53YUSAUUHH79u306KOPUvny5Sk1NZUSEuy758aOcvG9k++++44eeughOnnyJO3du5cSExNDIsj69euFXT5TNWvWtLTpJFORIZtaouxvpqJdxqGaSaiWUnNGoz+ZilYl0qpNu0zF3h+stezwrGYjyvsUZUYjMhVDciS1MAKoqEUY4IQDBUIFFeU9inbdn/2Biubuz7L02VfJsQSQ3FmaH7WjtGzkwp+r3Z79LX9mqKh2f+7fuznt3PM1uj87OGMYGrsKACrqF1tARc1i4gQqauZ6VNxR72tkMIkHCkCB0CoQDFS8fPkyTZ8+nUaNGkX/+c9/qEGDBoCKoQ2Pdtb++OMPWrFiBfXs2ZMuXLhAZcqUCQoqsj0+R/nz5xd7TU9PF5mK7777LlWpUkV8dunSJcqXLx/x35/8BAoVE/LlF2XD/Ph7pyKXKDPo+yH3jJijlj+rUDH38iXRIKVOYlnb8meGfDxGQj8ZXNWOat9cds3j+b5Gme04t3Erj/JnM1Rku9MydhvNY7Q7THDIbwUAFf2WCgM1UcAJVNTE5ai6od7XyGASDxSIZwUAFfWLPqCiZjEBVPQeEHP2pNpZWrNQwh0oEBMKBAoVOUOtV69exJllr776Km3ZsoWOHj0KqBgTp8J6EwwRGSDPmDGDnn/+eTFowYIFQUHFn376ierVq0d///vfqUePHpSUlESjR48Wa2zdupXWrFkjgPWuXbvoxhtvdAwV1RJlLgUec/c99PrXGaLjMj8M+fjx1v1ZLU+WHZpl6bHaQXpAldr07qGv88BHqaY5a1J+rkLCzF9/Ed2kfXV/lt2n5f4+y8kW8HDnj4eNbtSD7qpDn/z0g7h7UTaCieHjGdNbA1SM6fDG5OYAFb2H1Zw9qXaWjskDgU1BAQcKACo6ECtCQwEVIyS0v8sAKvqrFMZBASgQCQUChYqnT5+m/v3708CBA0WZateuXenIkSOAipEIWpTW4IzCYcOG0b333ivuO5w8eTLNmTMnKKiYlZVF06ZNo//7v/+j/fv3i3Lqc+fOUaFCheiGG26gatWqCdDI6wYCFaMkFZaFAiFVAFAxpHLCWAQUAFSMgMhYAgrEqAKAivoFFlBRs5gAKmoWELgDBeJcgUCholk2QMX4O0iTJk0KGiqqqjGofuCBB+jbb7+l22+/XWQpFilSJI+wTsqf4y8q2HEsKgCoGItRje09ASrGdnyxOygQTgUAFcOpbmC2ARUD0y1sswAVwyYtDEMBKBCAAoCKAYiGKUKBUEJFzoLs168f7dy5U5TTt2/fnjp06CDu7JR3KUrZARVxAONNAUDFeIu4+/cLqOj+GGIHUCBaCgAqRkt5+3UBFTWLCaCiZgGBO1AgzhUAVIzzAxDE9kMJFTkrkSHihAkTaPjw4fTss8+Kn1euXCkat6gPoGIQQcNUVyoAqOjKsMW104CKcR1+bB4KBKUAoGJQ8oVlMqBiWGQN3CigYuDaYSYUgAKhVwBQMfSaxovFUEFF7gDNTVn4jsa5c+fSzTffLO5YHDx4MA0ZMoTq16/vka0IqBgvJwz7lAoAKuIsuE0BQEW3RQz+QgF9FABU1CcW0hNARc1iEm2ouOe1afT97jTqMHM15S+YYKlO9sEMeu+5PtRx1lrKPrifPn59Zp7xuTnHaXHXRnTfiGmU1LCF3yr7s74vY+zfsp7N6PLF82Jo2er1Df9U3xOKl/Aw5e2drzXxHgrEqgKAirEa2fDvK1RQ0amngIpOFcN4tysAqOj2CMaf/8FAxfUbP6X+Ty2ivVvGU2KJ623F6/rEbKpUoRSNGNzaq8A8btuurzzspWccop4D5tLG1c94XcNp5Nj3qbNSKXXFSEpIKOB0ut/jQ+H/pOlraeOWz8Luq4xTl4cbUq0mo+ho1gmPfa5bPpxaJtfwuXf29+C3P9KSef18jsUAdysAqKhf/AAVNYuJ26CiGcxJOaMFFSVQbD1xiQEz14/uRaezswRY/OVwpgFE7XzX7EjAHSgQVQUAFaMqv6sXB1R0dfjgvIsU0AEqvv322+IqgnXr1onu73iggDcFdIOKS9/aThPHdjIAZCigXDRPQCj8jxZUnDWlhwEReR8NWoyh5YsG+QSLgIrRPHGRXRtQMbJ6+7MaoKI/KkVwjBOoKDPrylSrS+nL51G+AgWJYdr7k4bQmewsuiOlE7Uct0B4r2bvFU4sQ92WbCMJ1TK3b6BVT7YX82+udQ9dPHtaALhL53JFtiHb4kfas8tU5DErB7ajo+k7RXbgr8cOG5mKcg0pZfsZqwzoZ7e+ao9/lnMYWC7v35ruHzOXEitV9YgO2+L9q/tjf9cM7UjJ/5xFG8cPEPthDVqMepk2/Kv/lflXXSV+/3DmaCMDc/uc58Wrn7/7UmjTeWGaWO/S+Vxjn/9z6x1iTMO+zzrKyIzgkcJSUCAoBQAVg5IvricDKjoP/0/nc6nzppU0tUELuqXIDdQlbTU9XrkmNSuX5NxYEDPSjmRSt81rDAujajaiflVqBWEx+KlfnDhOQ3dsoGXNOxDrJH++0aaqIvgV3WPBH6h44cIFmjVrFr344ov0888/09/+9jdq164dTZ06lUqXLh30ZtevX08PPfQQbd++nWrWrBm0PRhwrwJ8Bh599FEqX748paamUkJC3sonp1BRwqXz538jzmhTMwsZJo0c+6YQrGDBa2jHhudoy7YvjM8kLLQaV71qeeJMudNnztP+zw/RO8ueIv7MDOU4w7BVx8lGUGT2XG7uRUp5aCJt33VQvDODSQZi7HPDepVExt/WnQdEpuLyRU9Sxx4zqF6t22j6nPfEGJ7LmXYMOMuWKWZkTprXkGtLH4sWKWSsz+9qVL3FyPiTdo5lnxJwjtdRbXuDj96gohoP1R5roL6T++asTG/6c0apzFRUoSLbM/thZefY8ZNGfNgOZyuqMVP9cO83C55LBQAV9TsLgIqaxcQpVOQy33q9n6ba3YcQZ+R9s2WtgF/8MEhrO3U5XVc8UcDB6u17G+PUzD22wTCyXM0GApbxw7+vHdmVbqnbTMyRYI7t8WNV/vz+C4ONjMAj+3YIUMkgMKF4ouELQzm1xJkzB63WZ6jJ9vhhMMqwkP2RYM8ubDJD8sKpXyzHqkD0bE62sTaXaJthqfRf6lIksYzwRfVf3aeTMm/Njh3cgQK2CgAq4nAEqoA3qMj3JL777rsCbvA/Pq+99lqxzHfffUcrVqyg7t27Bww63Fz+rELFO4t5XtERaByczmOg2GfrOnon5RFiH85dviTg5j2ly0cVLKpQESDRM6q+oKLsnr5gwQLxfWvRogX9+9//pilTptCNN95ImzdvpnLlyjk6KvwdZrv58+cX89LT00WmIn+vq1SpIj67dOkS5cuXL0+HdkcLYbBrFODzMH36dBo1ahT95z//oQYNGoQEKmYfPyUgWd+ezUQmoVqu/GnG9x6l0PyOH4ZKavmzuWTaahzPk+WzKmxjINem8xQDOKqQa/aCTcYc9vPhni/RWwsHCR+S202ghS/3EZBS+lLpttIeUJHHSdjI0JLBYr9ezQWoTG5yl7FfuSfeR8ceLwlwyg+DwmeHtzXGHcnKEfa+zTxmlG/zOLN+cpy3Emw7qGgVD2nvbO4F232rJetW+ttBRTUW3uKtZiryHBmzCkklhZ7lyhRHabRr/jTx7iigon6BBFTULCZOoaIEhxLWnTj0tQBfajYfb1FCQM5OVAFhbk62x52IDO/s7kiU2YGqPXmnooSQdz86UGTsyWw++bsqs7oGQzl1PfmuxbOz6c0n7jcyHb3Zswohg7+tM0eLV2qWoRkqqvqZoaKa8cj2WNv7np4uwKs/+9TsaMEdKBCQAoCKAcmGSZxdMGkSzZkzh/bu3UuJiYkemmRnZ1OtWrXo6NGjtGHDBkpOThbvu3btSkuXLqWePXvSq6++GpCOTqEig7yUdUvpx9wzVCqhMKW26kIMrRhitUl9gy78ftnjc4ZurxzYR4XzX0PvH8kU78bXbipAHI+VWX1W46RtCer2ZB8Ve1zctC3VLVlOwDv+7Nqr89GbzTvQ5PSdRqainZ/mrEK2JTMb1Xe1E8vS0mbtqFC+/DRoeyrdWrRYHkhoBxDNQM/KLu+D/f/fG0vT/AP7DC2++/UErco8YGiYkC+/5TiZCWmlO9tWYzS5XnOa8Mk2kbVojpW6z9mf76Xx+7YJjVlTCUr5d9aA/eJHh0zMgA77n5N8QcVt27bRvffeS//6179o5MiRBuT7/PPPqUmTJiLD8OWXX3YE/3766SeqV68e/f3vf6cePXpQUlISjR49mmbMmCEaK3HHdgZLu3btEuAST2wrcPLkSerVqxdxxir/2b1lyxbx53soMhXN2XS+suskGPR2p6IKoMx3+nGmXMkSN9jeqajei6hCRTXCdncnys9lpqIEh+Y9WfnE9wrKrMWh/VOEjyrsVNdUoSJDUfV+SBW4MfC0e+ygolU8pB+cMejPnZG+9FfvUPQ33qpNs++Russytr/l+uwOUFGfWEhPABU1i4k3qMiZiF+mXknv51LkGg/39YCFEnyZoSKDQxWQqcDx8MdbPRqzmIEfZ+vJR8I5/t2cqegLAqq+83zZPCV9xXzL9aU9WXotfWg8cJzInHTyqCXRnJ0ofVd/lrDVrgGN1JbXVxvQOIWdTvzGWCiggwKAijpEwZ0+eIOKubm51KFDB8rIyKAPP/yQKlasKDbJQGLo0KE0b9488Q/UQB4nUFFCNFlizBCKIdgzNRsJiNWtYjUB3hhA/ZB7RkC53ceOiNJgFQQePfurgJGf52TTqD2bjZ95nARWbIOflxqmCHvyZzUzkAGZVfmzBI5mP3veXoN6bH6bFjV9UGQVsv8f/nBI+Pn96ZMCis5t3MoAlqUTCov17R4Geqo9q3ES+pntTqjTTMBCflSdeP/dKlUzsh3lz1IzhqVyTd4/686QlsGoqjvvx6r8mdeTmrEGEpgmFf2HEQu2q2rOOi3+er+IE68vdYp0mXkg59tqji+oOHDgQFq1ahXt3r1blKTKh7MNBwwYIMAPvytVqpTfLmVlZdG0adNEJ/b9+/cTQ6Vz585RoUKF6IYbbqBq1aoJ0Dhs2DBARb9Vde/A06dPU//+/YnPGpe/838gOnLkSEBQkYEalwDzw9lr7R642yMbUYVM1yVc61F+LOeYMxXNJcR24yR8GjuyPT359GKjUYvqE89Vy2nVd7I02Q7ImaEiw0EGaL6gorl5CWc0Nml0pwcstIOK5uw+zjRUsyjtTp23PahZh6o9Lju3au7ij/52mYpqlqm3eJuhoiyJl/szl2m799sGzwEV9TsDgIqaxcRppqKagWgHFXmLTjMVzZDQLvPRn0xFXl+Fmv5mKr791COW9yZ6CxlrwI8KHu18DwQqIlNRsy8M3Am7AqGCimF3FAtAgT8VcAIV7UpqzZ+rsO34ubN5YJXM+lPnqYBRZtMxFJve8H7qvnmNAc5UsFmleKIlVCxR6Dq/7hCU2ZES6nFGpcxO5HcSeNqVD/tTYqyuwVmP0u7K5I40bNcmo0zabEvCPhUwyuxEOxBod4+ieqci66zu0+6LIIGxhLpqpqYKHN34RfIGFRn0PfDAA/T7779bAp433niDunXrJrILOfMwkIeBEq/x7bff0u233y6yFIsUKRKIKcyJEQWCgYpmCbxlKjJ8VCGWVQYcl0xb3ctnldEo4RffU3j46M8CKpqhnF3WmwrX7DL2AoGKdgDQ6t5HmSWoW6aiP/r7c6ciZ4baxdsMFdEJOkb+MLHYBqCifrEFVNQsJuGAit7uVJTNWO4bMc3jTkUzVGRYt2v+C8Z9jVYZfWrWoXrXoAoV8xdKMO5tVJvBmNc336lo1dXZKnRqabds4sK+p6+aL5q3BJupiDsVNfvCwJ2wKwCoGHaJsUCIFfAGFdWS1/ZJlen+mypYgjYzgFPvOmSoqEIstZTYDBXVcfKdhIpcbq0+nNHXLqmyJVTkcXZAUN2T+I9qf5Y5Lz6438haZPjnDzD0J1NRzYZU7c6/t7WAijKb0hdUVBvQqFBRbRDD+5Fly/yzVabi6swDHvuUmppLzPlzjrnMqFTviFSBY4iPY0TMeYOKXKZcp04dAQyXLFmSx5+NGzeKOxYD7dos72vcuXOnKHtt3769yELmu/X4u4gnPhUIJVSUoE+9Y1A2alGhIt/nx3cHNqp3e547FVWo5W0cR0s2Gin2j+tEsxQVKspMOR7Hdxf2G7aQuMkIg0v1TkXzPYzyDkHOulQbtfjKVJR3SPJ6nH2pdkM2l2jbZSry3EjdqcgwUy3JlvtmjSQMtNPfCiqauz97i6PdnYryTkt/7pGMz2+r+3YNqKhfzAAVNYtJOKAiwzV/uj+zFHUfG045/z5IrcYvJIaE8l5C/jwrY4+4S5Abr1hBRZ6vdn8ucF0RqtK6qwEruSs0l1DfO+QF2r/6VdFlmcuO1c7Q6vqqPf5Zlj576/7M49S98u9qt2vZyIU/V7s9+1v+zFBR7f58a6MU0S3b6u5IzY4W3IECASkAqBiQbJgURQUikanoL1RUQaAEla81bUuDt78nOjybm7HYdX+2y1Q0w89gMxXt7lRkv/puXUdzGrcSJd5WGZAyU9FfqCihnromlyzbZR3aZS3aZSqa4We8ZirK+0sbNWpkCRW5wQo31Jg/fz498sgjjr+5nJXIEHHChAk0fPhwevbZZ8XPK1euFI1b8MSnAqGEiiro4+7F/Xs3py8PHjUaojAw4/JgLm99ekhrWr7mIwH8OKuNS2C5VFgCK6txKhiU0WJANWdhmoCKasktd5eeOv5Rmrdos8hilMBOlifL8mf+3Kr7sLn7sz9Q0a7DtLdMRQnu2A/eQ6Ddn80lxLLsm+GhVTdpu31Lf7zpr8ZI/daomsomMVZ2WFtudmPV/Rmlz7H15xCgon7xBFTULCZOoKJmrselO1aZkXEpBDYdswoAKsZsaGN2Y06gomx+Iu/wkyDqxXrNqcPG5bZ3KvoLFeXdi/J+QBbdfKeiekehXfkzf67eNSj97FaxKj3/yVZxN6BsgMJrBHqnIs+16/4s72P0daeiv1BR9dPuTkXz3YdWmYrqnYzyTkW2zeXN8n7J3MuXhH51EssK/ePpTsVwQkW+k5HLpidPnkxz586lm2++WdyxOHjwYBoyZAjVr18f2Yox+yet942FGirGqYzYNhSAAhYKACrqdywAFTWLCaCiZgGxcMfcdKb9jFWi4zUeKBCLCniDih988IEoq7v22mtjcevYk0sVcAIVeYt2XZ59dX+26qRsLn+ekr5TqPjVyZ+NsmQuGTaX5spmLvLzz3Ky83R/tvJHgkTZMXrM3ffQ619nGF2RnXZ/liE3d5TmsmG1wYu37s/+QkWGlLL7stqxWt2n2rFZAmD20dz92cofCRJlV+8BVWrTu4e+9uiAHQ/dn0+cOEENGzakGjVqhKX82aV/TMDtMCsAqBhmgWEeCsSxAoCK+gUfUFGzmAAqahYQuAMF4lwBO6g4a9YsUeJWunRp+uSTT+JcJWxfJwWcQsVw+W5uaBKuddxm19xx223+6+hvtBu16KgJfIquAoCK0dUfq0OBWFYAUFG/6AIqahYTQEXNAgJ3oECcK2AFFefMmUPPP/88cQOAAgUKUKVKlYjv5cIDBXRQAFBRhyjY+wCoGPr4eIOKvNqoUaNo0aJFtHv3bipfvrzhAJcvDxgwQHSF5nelSpUKvXOwGJcKACrGZdixaSgQEQUAFSMis6NFABUdyRX+wYCK4dcYK0ABKOC/AmaoyJf5jx49mn7++WfDCIPFChUq0Geffea/YYyEAmFSQBeoGKbtwSwUyKOAL6i4Z88e4kYtY8eOpZEjRxr3HP773/8WTVq4+/O8efPo6quvJgaN7777rvgz/tFHHzWut/juu+9oxYoV1L17d5GhjgcKeFMAUBHnAwpAgXApAKgYLmUDtwuoGLh2YZkJqBgWWWEUCkCBABVQoSJnuvA/SHNycvJY43sVb7nlFvryyy8DXAnToEBoFABUDI2OsOIeBXxBRQaFw4YNo+nTp1Pnzp0FRGRo+MILL4hNfvjhh1SxYkXxs2zscvToUdqwYQMlJyeLzxkSLV26lHr27Emvvvqqe8SBp1FRAFAxKrJjUSgQFwoAKuoXZkBFzWICqKhZQOAOFIhzBSRUXLJkifhHKV/6b/cwWOTun1999VWcqxb722dI8d///tf4n/l39Z35Z3/H+juO7atjGZgce2xk7AcBO4QCfyrgCyrysMuXL9Mrr7wiQOKxY8fob3/7GzVv3lyAxltvvdXQMjc3lzp06EAZGRkesHHGjBk0dOhQkdHYq1cvaA8FvCoAqIgDAgWgQLgUAFQMl7KB2wVUDFy7sMwMBipmbt9A708aQt2WbKOE4iVs/ePuxcXKV6Ta3YcEtIfcnOO0uGsjum/EtLB2Pc4+mEHvPdeHOs5aS2dzsmlZz2Z0+eJ5w+d8BQpS54VplFipqtd9sL/L+7em+8fM9Tk2IEEwCQrEsAIMFZctW0aDBg2iX375xedOGSyWLVuWduzYQRcvXvQATxIu+QuL/B1nhkregJaTsVjfExyquvLfVQwl5P/Mv6vvzD/7O9bfcWxfHbtx40ZARZ/fVAyIJQX8gYqxtF/sxf0K8J/Zf5xe6f6N2Owg+/gpqtVkFB3NuvIfYsuWKUZ7t4ynxBLXE79LbjeBFr7ch6pX/euOUx6Xm3uRUh6aSEP7p1DL5Boxqw82BgWCUQBQMRj1wjMXUDE8ugZsFVDxL+nMUHHN0I7UdupyAwwyRF07sqtPsAioGPBxxEQoQAwVy5UrR0eOHPFbjeuuu44SExMFVLSCS/7CIn/HmaGSN6DlZCzW9wSHqq5+H4YoDET5cxREx5JRVQBQMaryY/EAFIhlqCiBYt+ezWjE4NZCnUnT19KchWkCLPJjBxUDkBJToEDcKQCoqF/IARU1i4lTqMjgTWbw3ZHSiY6k7zQyFfe8No22zhwtdiiz+g5/vNX4rPHAcSJb0WocZ//ZZTT6ylRk2LfqyfZi3bLV61OHmaspf8EE8Tvb/DL1TfFz+xmrRKajtHcmO0t8zvtoOW4B+YKK0h7/Xx5vZee+p6fTyoHt6Gj6TkMDuTfph9RBs6MAd6CAFgowVOT7ttq0aUOnT5/26dM111xDTZs2pZUrVxoX/PuchAFQIIQKBAMV045k0qg9mym1VRe68c+/t6xcG7Q9lW4tWoz6Vanl1XN/xwWz/Wh0U/7pfC6lrFtK42s3pWblkoJx3+vcL04cp6E7NtCy5h2I12yT+gZd+P2yMefaq/PROymP0J3F7KszeDDP7bxpJU1t0MLrWI7XqswDeXwqlVCYJtdrThM+2SZ88XY2wiaGF8OAitFQHWsGo4BTqLh+46fUquNksWSXhxvSkawcSl0xkhISCpD6rmG9SuJzfjjjr1yZ4rT0re3GvCXz+omf0zMOUYMWY+j8+d88sgjZVr9hC+mXk7lUs9otwtbWnQeMtaV9XrfrE7OpUoVSBjiUerDtNp2n0DvLnjIyESVonDKuM815NY227zpIBQteQ5vWPEOjx6+gU7+eoy8OHKEVi58U7zlTsWSJG6jngLlUtEghMZ6fdcuHGxmMDCpHjn1T2Gna+E4qUrggyf0FExvMhQK6KwCoqF+EABU1i4kTqCghWvX2vQUcZGAnoWL2wf0epdD8jh+GbyosNJdMq+PspPEGFSXkbD1xCZWr2UAAvSKJZcS6DC9PHPraAxg+OOUN2vB8P7qlbjOxB54vMxJ5fbX82ZypyO/Z/49fn0m8HiPNFhoAACAASURBVGctWtm5rniiR/kz+/H97jQBO385nCmgLM9nwIkHCkABTwXknYqpqanUpUsXOnXqlK1E+fLloyZNmojL/fFAgWgpEG9QMRo6Rwsq9tj8Ni1q+qABBhkC99m6zidY9BcqSi0jtb9QxQ5QMVRKwk6kFHACFSWQmzWlBzWuX1nAQn4Y+H2becwAeBWSShogcfaLPT3GMRjs2OMl2rHhOSqZeL0oTWZ7XGLMcFBCSnUclyZL+Lh80SBjbQaV3uCdLGFmEKhCQKmtWv6s+sw21fJnhooMPp8d3laAS9VPdd9yP43q3Q6oGKkDjHWiqgCgYlTlt1wcUFGzmDiBimomH9+haP5d3ZoK9LzdqaiOCwQqSsgnsxMltOw07z0BD+9+dKBXeKeWKjuBimo2JM9T7ahQ8R83JQnQKeEjjw32jknNjhDcgQIhVUDt/rx582Zxgf+vv/6aZw0GivXr16cPPvggpOvDGBRwqoBTqMjZcDIDrn1SZfoo+6iRqTj78700ft824YLMitv542Hjs1E1G4lsRatxnD2nZioyAJuSvlPY+urkz4Y9Hsfvum1eI95xVpyaKalmzy1u2pbqlixHXdJW0+nfLtLBkz/TvMYP0JJvMujxyjVF1qAEYj/mnvGwpa7B67AtmWWovqudWJaWNmtHhfLl9/BfjYMv6GZnj22oWkn9ZLblnuyjYhnpw/enT3pkKpqhIo9lffh5qWEKWdmZ27iVAI9sW81sVHWVfsg9Wu1PzZqcsG8bJeS7htKOZhLrzOeGM1f5rJizJ72t4/Rs240HVAyVkrATKQWcQEXOHpw6K9UjM1H+PnvBJtq45bM875YvepI69phByU3uEkBOBXnHjp+k/k8tMu44ZHDIGYEbVz9Dn2Z87/HOam11rje91AxKHicBoxVUlH6aoaKa8aj6wvs++O2PBkTkrEX190jFEetAgWgoAKgYDdW9rwmoqFlMvEFFtXSYS4Rva9LGIxtRhYr5CyUYZb9yi7KsWIVol87n2o6zk8ZbpqKaBcglz9Knls/Np1VDOlg2d1HLpXlNWarNP/vKVFTXO7Jvh1F2rdqxgopcDq0+UhvNjgPcgQJRV0CFiuzM1q1b85RCM1CsU6cObdt2Bb7ggQLRVMAJVJTwqFvFagIOMgCSUPHznGyPUmgVXplhoVoy7W0cg0MVDJZOKEzP1GzkUZrL0I0fCSu/+/WEAGYSas2/tzUN27WJeK4K0hgqSuAoASPb4vk9b69BKpDjzz/84ZCAhwzuGKoyfJPzpW27OHqDihLSWtlj2PjKgX1i3dzLl4x9L/zqU7EU70e1XaLQdT6homrzmY/SLO1UKZ6YR2Or/UvI6g9UlOdElmWn3FxB+K/G307nUJeMAypG808crB2IAt6gImfkqSXLXGJsBQ45U5HhGpcAqw83Rfng3dH02MBXjIYnZqgoS6nlPC4h5ixGBo4qwGRYp66tAkhuuuLvo5ZEc2ahvFNRZirKxixmqChhJ6+lQkUu0eZHZkwCKvobCYyLBQUAFfWLIqCiZjEJVaYi3xcoS3wZ7tllKpohYKQzFc2A0mmmoizX5nsR1Y7UvjIVfWVManYs4A4UiJoCZqjIjnBn55YtW9KZM2eIgWKtWrXEZ3iggA4KOIGKavYZ35Nn/l3djwR0EhzZ3aloN858X6McZ4aKck27uxLl5/eULi/AozpOhXDe7v1TQdzuY0cM0MfZif7cK+kNKqq2zfY4w8/XXZR2++E1rTIVzetZ6adCxVuK3CAyPaV+PN5896U/UFGFoOp9jTKuE+o087lOqL4vgIqhUhJ2IqVAKDMVrTL0zF2UzVBRBYfqnr1lRcr7G31lKrKN1e9+7FGKrPpTo+otQUNFZCpG6qRiHR0VAFTULyqAiprFxAlUlFmGspRXvVNRhYqXzuUK4Fauev08dyqqUNE8zk6aQO9UVO9rlHcnJv9zFm0cP8DIYGR/ds1/QXR05sdbpqLa/ZmzEVWoqNrxdqei3LO8l1Kz4wB3oEDUFbCCiuzURx99RK1bt6Y77rgDJc9RjxIcUBXwBhXVUlQuWb3/pgoe2YgqVEzIl19AIVmSy2vwHDNUNJfc2o0zwy8VPqol2LL0lzP5rJqhmGGj+juvbddoxtyERK6z+OB+I2uRIaA3sCp19gYV1ew81Z7MsFRhnrSn7l9+xhmd/mQqWmUDqs1c2I4VVFTjqsaMf/YHKko4ar6v0QwVva0Tqm8uoGKolISdSCngBCr6e6ci34Eo7x2U5c8yA1CFiuY7FdXOzFz+rALHQO5UVP3lOxv5YdCo3ukYbKYi7lSM1EnFOjoqAKioX1QAFTWLiROoyK6r3Z+rd3yCcjK/otYvLBa7YsjGHZULJ5ahOt2H0cH3V4vmJOkr5osO0Jzdx2W/duPef2EwFStfUTRQUR9zl2X5TnZztuv+bC61luPV7tN1HxtOWRl7xN2LCcUTPaCi7HIt15Nl0tzNmR87O7JhTPZX6QJWmrs/o/RZsy8B3NFKATuoyE7++9//pv/3//6fVv7CGSgQqkzF1ZkHPGCbXQaiGaJ5y1SUpb8M29RxatTMUEqWMssx3qCiXaaiOftQp0xFfzMv7TIVZbmxOTNQ1ckKKpp1VWMQSqjobZ1QfVsBFUOlJOxESgEnUFFCOS5Z5jLlwX3vp117v7Hs/sylz3u3jKfrEq4VjVqsoKLagIW7P8vSZ/7cnKmors0/+9P9Wfz77Pgp0QzmaNYJIam6hsxa3Lf/e6P7s9PyZ86alN2fec+tkmvQmbMX0KglUgcY60RVAUDFqMpvuTigomYxcQoVNXMf7kABKBBjCniDijG2VWwnRhRwAhXNQEu9U1GFijJrsE5i2TyZiipU9DbOLlOR7zscumMDLWvegbhkWb1TUb2fj7P5uPx3duOWNDl9p9GYxQzP1OxG6Vu3ilXp+U+2igYwMgOTwx3pOxWttBpds7FoNCMzGGWTF38yFdXuz+ayZtWOtzsVZczkvZqsSyigIme0Wu1XXSdUXzmGimPHjqXnnnuO+Pzb/e9vf/ub1/c8T6cxOvkSKm2wpyvn85577qE/Tq8M6CvA2Yj8eOvAHJBhl06SkFI2e3HpNuA2FPBbAUBFv6WK2EBAxYhJ7d9CgIr+6YRRUAAKREYBQMXI6IxVQqeAE6jIq6qlt90rVadvTuXQnMathEMM6GQX5QFVatO7h74WII5LhrnTL3cNbpdU2XYcNw6RZbLeyp/Vjshq92VzabXa5EVmwJkzF9X9yE7Saik3dycec/c99PrXGQbIDLT7M2ujPrKjtLfuz1bdkNXxXGLOD+tWv9RNHo1aZJduuaa507KdnW6VqolS9s9ysumdlEdIduZelXlAmJJl7dJuqKAi2zOX3DNsDPUjMxX/+OMP8va///73v17f81ydxujkS6i0wZ6unFFu+uYvVJQlyJxVyI+aLRjq75Jb7Jk7S3d5uCEgq1uCBz+DVgBQMWgJQ24AUDHkkgZnEFAxOP0wGwpAgdAqAKgYWj1hLfwKOIWK4fcIK0CB8CqA8ufw6gvroVfAaflz6D2ARSgABdyqAKCifpEDVNQsJoCKmgUE7kCBOFcAUDHOD4ALtw+o6MKgweWgFABUDEo+TI6CAoCKURAdS0KBGFEAUFG/QAIqahYTQEXNAgJ3oECcKwCoGOcHwIXbB1R0YdDgclAKACoGJR8mR0EBQMUoiI4loUCMKACoqF8gARU1iwmgomYBgTtQIM4VAFSM8wPgwu0DKrowaHA5KAUAFYOSD5OjoACgYhREx5JQIEYUAFTUL5CAiprFBFBRs4DAHSgQ5woAKsb5AXDh9gEVXRg0uByUAoCKQcmHyVFQAFAxCqJjSSgQIwoAKuoXSEBFzWLiBCpmH8yg957rQx1nraWE4iXCvpNg18vNOU6Luzai+0ZMo6SGLcLmr/TzwSlv0Ibn+9HR9J151ipbvT5d9z+J9D9Jd1Dt7kPC5gsMQwG3KwCo6PYIxp//gIrxF/N43zGgYryfAPftP9xQMTf3IqU8NJGG9k+hlsk1HAtk7jgtDUwc24lGDG5tay/YdR07iglQIA4VAFTUL+iAiprFRGeoGKxUkYaKKmxl0LhmaEdqO3U5JVaqGuxWMB8KxI0CgIpxE+qY2SigYsyEEhvxUwFART+FwjBtFAg3VAx2owwV23SeQu8se4qqVy0vzGUfP0XJ7SbQwpf7GJ8Fuw7mQwEo4FwBQEXnmoV7BqBiuBV2aD8QqFimWl1KXz6P8hUoSJ0XphnQLHP7Blr1ZHvhAWfmdZi5Wvy8cmA7unj2FP383QFqP2MVJVaqJjIIz2Rnifd3pHSiluMWkARx4sOrrqIWo16mD2eONjIjreznL5hA60f3omLlK+bJAPQFFe3s8fJs88vUN4Ur7DNnOkp7Vn6bMzitoKL0s/pDvYUmZarWpk+WzaLLF89T44Hj6MShr8WahRPLULcl20Q26KXzuWKszH6UvjgMM4ZDAdcoAKjomlDB0T8VCAVU/Ol8LnXetJKmNmhBdxazrwTwd1ygwfnixHFqk/oGXfj9sjBRO7EsLW3Wjgrly0/8buiODbSseQe6sWCC7RL+jrMzEOx8f/eediSTXjmwz9ifv/MwjghQEafAbQo4gYoM+HoOmEv1a1ekWfM3UcGC19CODc8ZYG/S9LU0cuyVfyPIdxWSSnpkKnZ9YjYtfWu7GNPl4Ya0ZF4/r5DQCiqasxADXddtsYK/UEA3BQAVdYsIEaCiZjFxChWX9WxG9Xo/LQAeQ7LT2VkCHv5yOJP4XeuJS6hczQYChBVJLEP3PT3d+JnBoYRkt9RtJmyo8I2lkTYY4qnlz2dzsi3ts027xxtUZNtW/rK9Pa9NE4BPgk4GhrK02c7vQKAi+83aHdm3Q8BYBosSOMp1WGN+2BeGoGtHdvUAuZodJ7gDBYJWAFAxaAlhIMIKxApUlEBxbuNW1KxcklBx0PZU+iH3jABv358+GVNQMcLHJKaWA1SMqXDGxWacQsUGLcZQuwdqCRjIMG/jls8odcVI2rrzAPV/ahHt3TKeEktcTwwP+Zn9Yk8DKvLvU2elivH8dO79Mo1+qq3XbEMrqKh+duz4ybCsGxfBxyahQJAKACoGKWAYpgMqhkHUYEw6hYpqSS9Dro9fn2mAMfkzZw/yu/cnDaFO894T9wxKSGb2lcHf8v6t6f4xc8Ur1b4KFbMP7jfWUu3LjD4rDbxBRdV3K3/vfnSg13sYzX4HAhVVQKnOlxmNnMGp3gkpgawv34I5D5gLBaKtAKBitCOA9Z0q4BQqMqhblXlALNM+qTJNqNOMuqStpj3ZR+naq/PROymPiEzAlHVL6cfcM7bj3mzegSan76THK9cUENCcxWhe56WGKXnGqHvlzL1RezZTaqsuRiYig8Yem9+mF+s3p6d2bRL+lEooLMZ8npNN3TavMUwsbtqWqhRPNPzmcZPrNacJn2wzshvV7ECeKPfNP4+q2Yj6VanlkRHJe+LsyMLXFBD68MPr8H7PXb5kOZ/HqBmXMtty97Ej9MxHm+nUbxforuKJ1K1iVVr8dYaRqajqJdfg9c1xYB3Na0hNvGVwOj1XOo8HVNQ5OvDNSgGnUFEtRfZWhszA8eC3P9pCxYSEAn4FxO5OxXXLh1ve0Riqdf1yDoOgQJwrAKio3wEAVNQsJt6goloCzICrxsN9PRq1qGAufcV8+n53mgCMDOnMzUtUEKaWHbMcsoyaf1bhmgoVuSzYyr63pjHeoCJnI1rZa/ncfFo1pINlcxd//eZ9+FP+LDUxN6QxQ0VZbi2PDmc0otmLZl8kuBMyBQAVQyYlDEVIASdQ0QzV+m9bT4Or1hUQT5Y/31LkBgHL7ild3oBsDPYWNX3QcpwVVDx+7qxR2ssyyHV8lVYzQDt58YIAm+axalkywzbpE4+b/fle+vCHQ3kyGiUUlCXT6v4XH9xP3/16giTs7Lt1Hc1p3EqAT1lmzT9zOfaQqnWFFmrmpN183q9aSs5zbi1ajJKK/oP6bF1n7M3OF7nP+fe2pmG7NtnGgbXqVrFaHr+4VDzWH0DFWI9w7O3PG1Q0lyoPfDxZlD9vXP2MyEZUoaIsc96+66AhEpc3q5mK3KhFLVX21WyFDVllKqpRkKXQoV439iKNHUGB0CsAqBh6TYO1CKgYrIIhnu80U1GFfk4yFSVAM4M+bxl/OmUqOvE7lFBRZnGi2UuIDz7MaasAoKK2oYFjNgoEChVV+OTtrkT1nRV89AUVnUIuBoTj920Tu5WZkwwOvd11qAI6tUzaX6ioSusNXtqBQHW+3V2J5kxMOY7LvRk2Sh3tDroaBx6j3i8pMzoZ/HoDt7HyJQJUjJVIxs8+gslUVIHflm1fGKXQnIVolTGodn/2tzuzL6iolmCHct34OQHYKRQIXAFAxcC1C9dMQMVwKRug3VBBRV93KtpBRc4Y3DX/BXFPID92mYqRvFNRvcdQZhwm/3MWbRw/wMhg9OZ3qKCivLeS7cn7HdU7JwMMOaZBAa0VAFTUOjxwzkIBb1DRqgRZhXay5NcMFRl4qaXFalm0OaPRrvzZah2nAVRBnBkQqntju7LM2F+oyLDTquTYDBVVeGcGhlbz1axJFaia58rfX6zXnDpsXE7jazc17pKUOtnFgTNB1VLxcDfQcRq3cI8HVAy3wrAfagWcQkW+U/HZ4W1pxODWHncqzl6wyYCKZ3MvUK0mo6hRvds9MhUPfvODKInm+xgZKgZ6p6KqgQoVQ7luqHWGPSgQiwoAKuoXVUBFzWISKqgo7yW06/6slj8zkNs6c7RQou5jwykrYw/x+4TiibZQkTshB9r92Vw+LDso29mz67jsr9+hhIpmX1D6rNkXCO6EXAFAxZBLCoNhVsBJpqLqirwTkKEg30UoYaG8T1FCLn8zFe2y5dR1ZAMWK0kYxvHDZcbyscvO4/sUVajmb6aiHfCzW8dbpqNdpqda+u0PVLTLVJT3KVrFgfVBpuIfYf5mwTwUCJ0CTqEilz8XLVKIuNy4bJliRmMWLoVmkHg064T4/OkhrWn5mo9o+aInqWOPGTS0fwo1rl9ZNG2Rpcqy/Nnb3Yy+MhWDWTd0KsISFIhPBQAV9Ys7oKJmMXECFTVzHe5AASgQgwoAKsZgUGN8S06gIkM1eY8gwz6rOxXNUJHnTMvYbTRwMWcqlk4oLO4lVMft/PGw5TreSnOtoCTbXPz1ftGYRQV8KlRMyJdf3AHJj7lLtLwTkcFd3ZLlPMY981GauOuQISaPs7tT0S5T0dt89b5Hzmbk5/6bKhj3TDJsVEEo2+KHdTQ3p5FQ0RwH3KkIqBjjf7TF1PYCgYryTsWYEgKbgQJQwLECgIqOJQv7BEDFsEvsbAFARWd6YTQUgALhVQBQMbz6wnroFXACFe06FsvPP8vJFvCQoaC813DQXXXok59+EHf+STAnx/FuuJHJhd8vU/dK1emT41k0tUELks1eZMdkuzJrsxpq12R+p3Y1lpl7/PnK5I6iiYnsWD3m7nvo9a8zRJdnfhi48cMwcnXmAbEXLuHuXbmm2AvDx9zLlzw6K8uOy/6WP9vN53XVsmW1+/MrB/YZ3Z69daKWvqgl5GocOONT1Qrdn0P/vYJFKBBKBQAVQ6kmbEGB+FIAUFG/eAMqahYTQEXNAgJ3oECcKwCoGOcHwIXbdwIVXbg9uAwF8iiAOxVxKNymgBOo6La9wV8oAAXCqwCgYnj1DcQ6oGIgqoVxDqBiGMWFaSgABRwrAKjoWDJMiLICgIpRDgCWj7gCgIoRlxwLBqkAoGKQAmI6FIhjBQAV9Qs+oKJmMQFU1CwgcAcKxLkCgIpxfgBcuH1ARRcGDS4HpQCgYlDyYXIUFABUjILoWBIKxIgCgIr6BRJQUbOYACpqFhC4AwXiXAFAxTg/AC7cPv89igcKxJsCf/yBRi3xFnM37xdQ0c3Rg+9QILoKACpGV3+r1QEVNYsJoKJmAYE7UCDOFQBUjPMD4MLtI1PRhUGDy0EpgEzFoOTD5CgoAKgYBdGxJBSIEQUAFfULJKCiZjEJBVTMzTlOy/u3pvvHzKXESlVtd+jvuEAlyj6YQct6NqPLF88LE2Wr16cOM1dT/oIJxO/ee64PdZy1lhKKl7Bdwt9xvnzc89o02jpztDGs/YxVlNSwha9pYX3PPp049DW1HLeAMrdvoI9fn2noE9aFYRwKOFAAUNGBWBiqhQKAilqEAU5EUAFAxQiKjaVCooATqJiecYh6DphLG1c/Q4klrg/J+mYjubkXKeWhiTS0fwq1TK4RljX8NZp9/BTVajKKZk3pkceX9Rs/pamzUil1xUhKSChgabLrE7OpUoVSNGJwa69LRkJXdsAfn/3VBuOgACsAqKjfOQBU1CwmsQIVJVBsPXGJAe/Wj+5Fp7OzBDj75XBmxKAiw7v0VfOp25JtAmAyTF3ctRHdN2JaVMGiChU1O4ZwBwoYCgAq4jC4TQFARbdFDP4GqwCgYrAKYn6kFXACFSPtW7TX8wYV/fFNN6joj88YAwWcKACo6EStyIwFVIyMzn6v4hQqMqj7MvVNYf+OlE5039PTaeXAdnQ0fSflK1CQOi9Mo+uKJwqIdiY7y3bcQ7PX0o454+juRwcK0GbOYjSvw9l13jIdOfPu/UlDDJDHCzNoXDO0IyX/cxZtHD9A+FM4sYwYk31wP616sr2hE2cSJlaqZvjN41qMepk+nDnayG5Us/t4otw3/9x44Diq3X2ILUD0NldmMcosyTLV6lL68nlCT4akvC/2nfVmHazGse4yS5TXknuT2ZpH9u0wPmM7tzVp45GpqGZWyr1cOp/rsUdz5qfMCpWaessA9ftAYmDcKwCoGPdHwHUCACq6LmRwOEgFABWDFBDTI66AE6ioZtR9mvE9jR6/Qvj7+ZdHqGDBa2jHhueoetXyIiOuVcfJ4l3ZMsVo75bxRmYjg7alb20X79YtH06N61cWmYmnfj1HXxw4QisWP0lzXk0zMhUl2DuadcLDFvvSoMUYOn/+tzxrqOs3rFfJyCa088sO/vmbqbh154E8++U9jhx75d+FE8d2ypOtyL507PGS0IwfmQF6LPuU+LlokUK0fddBQyfO2pRZnPJz1a6qh9wz+9Vv2EL65WQu1ax2C/V97D6a8+r7hh7mWPAaqt68eJeHG9KSef2EH3aaT5q+luYsTPOIc8QPMhaMigKAilGR3euigIqaxcQJVDSDsXWjelLdXiMFRJTlz/+4KUmAqFvqNhOQTYK9tlOXW46zgoq5OdkG8BJ/Gf+5jq/SagaZF079IsCmeaxa1nw2J1vARvaJxzFQ+353Wp6MRh6nlkyr+09fMd8oJWbYufbpbtT6hcUCVprhpjnkagYlw761I7sKn/lhUFev99NCOx73zZa1xjvpsxx3W5PWAjKa/ZfjZCyKJJYxxlmVP7MPshT60rlcI5afvjVH+CSBrsy2lPC1evvehp8yI5RLzfFAgWAUAFQMRj3MjYYCgIrRUB1rRlMBQMVoqo+1A1EgGKjI4FAFg+XKFBcALbndBFr4ch8BGBk48cMlwPzzwW9/FJBKAsrVS4bQYwNfIZ7Ln6vlzxI4ylJoOZ/X4LLkvj2bCbsMx45k5QhY9m3mMWrTeQq9s+wpqpBUUgBLX37Z6eYPVHx15hPUrutUy/2aYaUK7MywToWKDEufHd42z95mL9hk6Me2Hu75Er21cJBwX9VcrlvpttIGuJSwV5Zsq7bMsUhucpdYmz+XWpZMvN5Wcy7/tttbIGcSc9yjAKCifrECVNQsJoFCRRUeecsgVN9ZwUdfUNEppFIz7mTmJINDb3clqrBQLZP2FyqqIfV1V6HM/pP7lr8zhL3p7sZ5YKeEgKqOvJ4KRdV3hz/eagBS1s4OhKqfv//CYCpWvqIAhHaP6ndC8UQP2KqCY2/gV7OjD3c0VQBQUdPAwC1bBXSBimlHMqnb5jV07dX5aET1BvT+0Uxa2qwdFcqXPyLRm/35XrFO/VI30fSM3TSrUcuQr33u8iXqkraaHq9ck5qVS/LYF+9/1J7NlNqqC92I/8AV1pgDKoZVXhgPgwLBQMX+Ty0ystNU4KcCLumy3V2J8nMJstRxJUvcYHmHo/kOQhV+bdn2BW3c8plHdiKDNDP880fKQKCialeFit6y+dT9cKaiBHneQKC6jt1dify5GiM5bvmiJ6ljjxk+763k/ctY8nrqfZqq5uyn2R+ZhWl+54/uGOMeBQAV9YsVoKJmMfEGFa1KkK3KZM1QUS2/5e2qZdHmjEa78merdZxKp5ZEmwGhuje2K0t7/YWKDOxUG7KE2aoMW/Xb6n5FtsNQj6Gimhmp3oFohorqODNUVBvE8NqyPJnL1s2ZilxezZmSMrNU9dXc+Ibf8T75UbMxw92Ax2ncMd7dCgAqujt+8ei9LlBRQr1+VWpFPAxfnDjuARKj4QugYuTCDqgYOa2xUmgU8AYV1fJYzqwb+HiyAZa4/FltVGLOQpSlybIU92zuBcumJ2bYqP7OO1ShmNyxGZap8Iuhoiw7luNlCTYDO7Nfdk1WeK4/UFFmR1rZDTRTUYV3ZmBoVbLM2qsgVdVJjZG0xYD13geet21AI0vX2Y4saz92/KRHLFTNGRwiUzE030e3WQFU1C9igIqaxcRJpqLqupq5xuWwEhbK+xRlUxJ/MxXtst3MmX128jGA40fNtrMDceYSZX8zFdUyY7tMTfP+pb+8v90LJlLzUTMFxLPLVPQXKqqZiqp2nKkowaFZK7vuz1aZimoGJWuKTEXNvrgx7A6gYgwHN0a35g9U/Ol8LvXduo7mNG7lkUXHn6esW0o/5p6hUgmFjSw7hnRtUt+gC79f9vicwdmU9J1Cya9O/iyyEt9JeYR2/niYxu/bJj5vn1SZ7r+pAr1yYB/NbdyK+mxdR6d/u0gHT/5M8xo/QEu+yaD/vbE0zT+wT9gfVbMRfffrYm2c7gAAIABJREFUCVqVecBjLdU3afelhinEvvXY/LZY66qrSPg8Yd82sabMHlT3y+M6b1pJUxu0oDuLlTBOgTnrUP5+T+nyxGBUZl6Kv9sTy4qsS37UTEVVJ973R9lHkakYge8ZoGIERMYSIVUgmExFO6ioOihh4+wXe1p2dfYGFQPNVJQl1t6EUiGo3Th/oaIKJlW73hq1+LpTUXbYtstCVKEeAz+rTtTmub4yFc379TdTkUEu7lQM6dfSNcYAFfULFaCiZjFxAhVVKMWQyepORTNU4zm75r9gNHAxZyqq9/3JcSoYU9fxVlprBSXVLsxqpqIKFfMXShB3QPJj7hLNc/iOQ87mK1ezgcc4FcSpdypysxK77s9WdxCa71T0Fyqqdy/a3anIeqn3N6r3QJrLouWdknynIt+deO+T4yl95QIjg1Fmn6oNbXCnomZf5hhxB1AxRgIZR9sIFCqaoRpn9zHce6ZmIwEau1WsJuDaoO2p9EPuGQHVdh87IkqcFzdtS3VLlhOArXRCYWLYJ+fzzwzkVKgox8g1OTyqPQaL3SpVE/YY6qk/sw8SJC5q+qCILANPBpYMEe2AKfutgkarI6H6zHYkfFTXUPc5oU4zAypWKZ6YRydAxch88QAVI6MzVgmdAqGGimo2Y2KJ6z3uVGTIxo+8U5HLfN9YMFA0fJH3JqqQsUbVWzyyG2VGnsy083WnImfQyfsWx416iAYMX0QS1ql3PQYDFb3ZDaT7s2zUYgUVuelKpQqlxH2H6p2K5pJpqXO7B+72gI0qZGRb5lgseOlx6v3kfCODkTV6fvIa0UzG152KoTuRsOQmBQAV9YsWoKJmMXECFc3dgM1dgrO/ShfwkKGgLMGt+9hwysrYIzLzJJiT41gK2UG4escnKGv/brp/zFySDUa4ozQ/amdlCSWtAKO5XFftSizLjtlep3nv0Ybn+xkdq+8d8gLtX/2q6PLMD0M1frhLNJcM8164hPt/O/cXe2H4KOGb7HAty59leNXybXUP/LNZR3P3Z/ZDwkm7OxUZPha4rqjYg7n7slp+rr6Tn1t1f1ZLuaXeqh2ew4+8e1HVGt2fNftSu9wdQEWXBzAO3fcGFdVsO1Uahnh89+DQHRtoWfMOHtmLDPDUz1Wgd/zcWY97A1Uo5w0qyuw/czageS0GgbcWLSZgpvqYgR9nKjJg5MxDc+mznOdPCbRasvx5TrYAoRJ2yp/5Tkg5bmVyRxq2a5O4U7FEoevy6GSlZxweybBvGVAx7BJjgRArEGqoyMCQYZQsQVa7L5u7F6tNXqygIncjtus47G/3Z7X7tJ1fvro/c+dp9WG/+VGbnljtV65n1f1ZtWe+U9Gu/FmWkEt/2A/WiB+rjtfc/dmq/JlLtvnhJjbmDtOqRqOGPUi79n5jAF9vmof4WMKcSxQAVNQvUICKmsXECVTUzPW4dcdb05m4FQUbjxkFABVjJpRxs5FAMxXt7gA0f64CPYaKKmzzFyrKxibm7EhvUNEMRGWpNQdWhXcyK9LcFMYfqKjubeFXnxpAk+d++MMho9GM9HP+va0NqMh+qI1ZzHuJmwMYhY0CKkZBdCwZlAJOoGJQC2EyFIACMacAoKJ+IQVU1CwmgIqaBcQPdwAV/RAJQ1yrAKCia0MXt44HChXtIJivTMVIQMV2SZVFafH42k2NEme1NNmcSWnV7dkfqMiHhrMjSxYqTN+cyqHBVeuK7EczqESmol5fL0BFveIBb3wrAKjoWyOMgAJQwFoBQEX9TgagomYxAVTULCBwBwrEuQKAinF+AFy4fX+gotW2ZCMUCe5kdt6L9ZpTh43Lbe9UjAZUZN+mZewWTWH4UaFiMHcqsi2ZESmbsXC5s2zAwvc22t2pKD+Xpd0MJ3GnYmS+QICKkdEZq4ROAUDF0GkJS1Ag3hQAVNQv4oCKmsUEUFGzgMAdKBDnCgAqxvkBcOH2A4WKvFW7Ls/euj9HAirynYoMEmVH6UF31aFPfvrB8i5D3oe5KYs/3Z9lqCVclY1p5OdOuz93r1RdZDuaO2y78Ehp7zKgovYhgoMmBQAVcSSgABQIVAFAxUCVC988QMXwaRuQZUDFgGTDJCgABcKkAKBimISF2bApEAxUDJtTETZsbtbib+lzhN3EciFSAFAxRELCTMQUAFSMmNRYCArEnAKAivqFFFBRs5gAKmoWELgDBeJcAUDFOD8ALtw+oOKVoEmQyF2tre5YdGFo4bKNAoCKOBpuUwBQ0W0Rg79QQB8FABX1iYX0BFBRs5gAKmoWELgDBeJcAUDFOD8ALtw+oKILgwaXg1IAUDEo+TA5CgoAKkZBdCwJBWJEAUBF/QIJqKhZTGIFKmZu30Afvz6TOsxcTfkLJliqnJtznJb3b033j5lLiZWqahYJuAMFoAArAKiIc+A2BQAV3RYx+BusAoCKwSqI+ZFWQBeomJt7kVIemkhD+6dQjaq3UHK7CbTw5T5UvWp5vyVZv/FT6v/UItq7ZTwllrje73m+BmYfP0W1moyiWVN6UMvkGh7Dec2ps1IpdcVISkgoYGmq6xOzqVKFUjRicGuvS6VnHKIGLcbQ+fO/eYzr8nBDWjKvny83Hb9XfZ+9YBMd/PZHR+vImCU3ucvn3hw7hwmuUABQUb8wASpqFpNYgYr+yAqo6I9KGAMFoqsAoGJ09cfqzhUAVHSuGWa4WwFARXfHLx69B1T0HXVvUNH3bCInULFN5yn0zrKnDJga7Nre/ANU9Cd6GONNAUBF/c4HoKJmMXECFdeP7kXFylek2t2HiF3w7/y0HLeAOFNw1ZPtjd21n7GKkhq2EL/veW0abZ05mvIVKEg317qHrkkoLOYw5FvctRGdyc4S4+5I6SQ+l7a/TH3T43NvUFBmKraeuITWjuxKRRLLkDr/vqen08qB7eho+k7hR+eFachW1Owswh0owAoAKuIcuE0BQEW3RQz+BqsAoGKwCmJ+pBVwAhU5k46hFz88jzMCj2WfMrLrypYpZmQJyiy27bsOivETx3YS2WzmzL5J09eKDLnZL/YUmYp9H2tGc15NI55XsOA1tGPDc1Qy8XqRKXg064SwpWbuqdl9/Pm2XV8ZPvBarTpOFnMa1qtkZBOqn6s+28E/fzMVt+48YKwn7S59azuNHHvl321SAzXG7EvHHi+JffJjhor8mdkv/p3tmm2qn0uNWJ+eA+bSxtXPiOxNVX/2l7Ms+z52Hz3UbbqHthwX6beMg8waletUuaOcmPNw27oitmosVF3Z1pyFaSHPII30dwXr5VUAUFG/UwGoqFlMnEBFtcSYt8GQ7u5HB1JC8URaM7QjtZ26XIA6hojf704Tpci/HM403l1XPFFAxHLV65OEfLfUbSYgZfbBDGNcbk62UcrM66wb1ZPq9hrpFQKaoSLP4/WP7NshICNDRF4f5c+aHUC4AwVMCgAq4ki4TQFARbdFDP4GqwCgYrAKYn6kFXAKFbk8d/miQaIM2AzbGDYdycoR8E4tp+VxD/d8id5aOIg+zfjeo1zYDBXN5c8VkkoK2ChLbCXY5Gw+CRv79mwmoBavL6GihJ3sa+P6lYWNcmWKC7Cnllbz+vx4K032Byq+OvMJatd1qlGyrdo1Q0FpjyGpGZD6ylRkuxu3fCY0/jbzmAC6vEd+ZBk2/9y598s0+qm24nNfUNEcL3MZOfvPD5dgq4BQavzs8LZiHwx+1VjIs8Bl4XZ7jvR5x3qhVQBQMbR6hsIaoGIoVAyhDSdQUQV/7MJ7z/WhjrPWUkLxEh4eqfAxfcV8OnHoayMDkYGj+rucqGYhqlDR7n5EswRmqChhpWoXUDGEBwemoECYFABUDJOwMBs2BdwKFb84cZyG7thAy5p3oBtt7iK2E43ncofnSXXvoxG736fBVevSncU8/3+BUAiediSTXjmwj5Y2a0eF8uU3TP50PpdS1i2l8bWbUrNySaFYCjYcKACo6EAsDNVCAadQUYVeZvikZsVxJp3VHX2+MhV93anIcEpCQTMwU9c3w0vp67tvDqdufWc7uq8xEKioBleFit6y9uzuVJQZjlZ3GErblW4rbXm3oz+ZimaoaD6YEvwyVLTKmuT7Ips0utMDXqrw13wvppqd6eTOTC2+MHDCQwFARf0OBKCiZjHxBhW5vNmqhJizE08c+sYDDqpjeYtlq9cXmYLvvzBY7FiWNatQ0VwyrZYly5Jpntt44Dij5NpOPjNUZB+5/BpQUbMDB3eggA8FABVxRNymQLxBxXOXL1H/besNkCgB46xGLT3AXzjjCKgYTnV92wZU9K0RRuilgDeoaC6nHfh4cp6sN1leLHellsqq89ctHy6yGwOBimq5Mq8j1zh2/KRHYxYz1JQZfZwpp75TS7bVsmi7yPgDFdXMQW60otoNNFPRDG3NJeXSX5ntqJYsSxAZCFS0WofXkCXqamMWFWqqTXJU+MvgEJmKen3vQ+UNoGKolAydHUDF0GkZEktOMhV5QQkF+efbmrQR4I6B3vuThlC3JdtE1qI/mYoMCrkU+r4R0/LAP7Uz86XzuUaZtbyj0WrjgIohOQ4wAgWirgCgYtRDAAccKuAPVGQI1nfrOprTuJVHVqCEYz/mnqFSCYUptVUX8Z4z9LptXmN4srhpW5GRx59PSd8pPv/q5M907dX56J2UR4wswUHbU2lV5gHxXs5hCNglbTXtyT7q8bk5U3H253tp/L5tYoy0e0uRG8Tc079dpIMnfxY2+Xnv8Lf0UsMUwz9e9/6bKggf+edbixajflVqeShp/px/54ftsC9tUt+gC79fzqODzFTksXIftRPL0tGzvyJT0eFZDdVwQMVQKQk7kVLAaaaiXSmtXedj3ocKmBgEqt2SZWmtBFbmTEVZ4iw7LwebqWjuDK1m4dlp7i9UVDXwlt2nruPrTkW1pJznyQ7Z5i7Uqk21k3bJEjd4gGC1fFreqWjOVFTH8J6CzVTcsu0L3KkYqS90hNcBVIyw4H4sB6joh0iRHOIUKnIJ9LL/z965gFs5rYv/PRxtsZRsbRZScrLFUZRIpXLZJLfSRVKnSG1dtxJKOySElHZy64LcdSFKtkShxCYp5B7VZtmiC5Fd2/F/3m+fMf9jfc0511xzfnPO8X3fbz7PeU6t9X1jvO/vHWttft4xRq/TpGqN35aTiEYqVtmzxJOA+kl3pqJfKqqsXDJ5jHf24RdvLEp0QapUzOZMRToVC7mKmAsCwRFAKgbHkpEKQyBbqWhk3x//u4kn41Tqfbz5W+l15LFy8QtPyn1/OM+Thfr1l/6+xtsCvPSrtZ5sVLnX/IDanmQ7qKSaJ+bM+0bSma3NN/2fKNSvq5Tsu+gZT0TqxzyzckOZjFj2QkJqGuF3U7PTys2h79gC0RDWcf2i0U/f3spsBKHm3rBmqbeVuWf9Rp6I1PH/vvX7RL5GKl792oJyXzcc2P5cmHVuz4JULDxzZsyNQC5S0S/b7K29esmHbovVswr9Zyqai0mMMGzd4shEF1xFUlHnuP7W2d7FJv7zFjM5U9HfbRnUmYqjR5wvA6+8L3EhSrozFVNVLNmW4WSMTQfmD1u3Jc4x1DHNdnOVivaZiubcRXO2pD6rIjETqWjm0Brp9me7e7IyZyrmtkp521UCSEX3KoNUdKwmlZWKpnNQb1c2W5rN18zNyqcMGSNvz5qaOG/RbGWuVlpL6rU6U7Zv/d57197i3PySK2X9imXexS+1m7RM3NSsuMz258rc/pxMKv62Tj1v3LL3l3P7s2PrkHAgYAggFVkLYSOQTir6Ow5NbiOatJYTD6yT0ZmGtoxTqWjLPyMSjfwzgtLM498mbIvM/ffcK+X8/nFPPqiuJ/z8W5/NPJlsgdZnjCy1habGaJ/taD/39Y8/eGcq3n3SOZ4MNfn5hWzY1kzY40Uqhr2C8Ys/F6motOxzAO2tz/Z2V33ObH/WP5tt0XpD8DlnHCvf/7CtnFQ08uvNtz/z5KF2upmbiEcMPU+WvP6hqHzUbj17/gF92si7q9d5F8KYm46T3f5sbxNOt03ZrAZ/LubrmpN+TOelXk5j4rTHNfMlu/3ZXnGpziH0n8OY7JbnVLdt6/hmfq3P4H5nevz8UtHcXK3bnDVOc9u21mj4kHby+OzXErdn++t30AH7pL39OX4/VfHJGKnoXq2Rio7VpLJSMZfwjXw0l6jkMhbvQgAC0SSAVIxmXaOcVbadiioLbUFoM7K3MevXdbuv6VS0Ly4x8u/qJq2TXlxib6+2x/dLzZLdqpTbIq3Pdqr33+KXlTpet7/OkHEt25a7mCUTqWiLwE82f+d1ZZruSZuDPYeRire1aCOdn3s8sd0ZqVjcnyikYnH5M3vlCVRGKlZ+dN6AAASiTACp6F51kYqO1STfUtF/GctRZ3VNdDg6hoJwIAABBwggFR0oAiFUikC2UjHV7ct+2ejvVEwmFdN1KiaTgJqgPf+sT95LbLHWW5ZTdUDm0qmoc5px9c/mDEY/BzoVK7X8ivIwUrEo2Jk0BwJIxRzg8SoEYk4AqejeAkAqOlaTfEtFx9IlHAhAwHECSEXHC0R4OxHIRComw+bfmmzOTuxZ/xi5/m+LvPMNTQehvp+uU1E7/vwXn5itxtPef8ub3r4QRbcT29ufbam4dcd2r+uxWenBO3Uq6jjZnqloRKZeyLLP7lUT5zcaDhWdqfjA6reTni3JmYqF/6FEKhaeOTPmRgCpmBs/3oZAnAkgFd2rPlLRsZogFR0rCOFAIOYEkIoxXwAhTD9bqWhLNvvWY3srst7CfO3xJ8tDH6yQh9t0Fr1QJVmnogrDVLc8+7+uW5/1fES7Q1BjUZFobqEe2PAEeXrNBzudZajPJbuUJZPbn/VdE4u5XMaUO5vbn6tV+Y1ccFgD75IbPoUlgFQsLG9my50AUjF3howAgbgSQCq6V3mkomM1QSo6VhDCgUDMCSAVY74AQph+LlIxhOnudFlLJucphjFPYk5NAKnI6ggbAaRi2CpGvBBwhwBS0Z1amEiQio7VBKnoWEEIBwIxJ4BUjPkCCGH6cZOKWiIjEm9pfrpctfR5GXxM83IXt4SwjIRcCQJIxUrA4lEnCOjvaT4QgAAEsiXw66+/Zvsq7+WBAFIxD1BzGRKpmAs93oUABIImgFQMmijj5ZtAHKVivpkyvtsEkIpu14fodiZApyKrAgIQyJYAnYrZksvfe0jF/LHNauTKSMWy1Svk2VF9pcukOVJSc/+s5kv2Uqbjzh3Z23v97NFTApvbP9D2n7bKjEEd5fjug6Req7Z5m4eBIQCB5ASQiqyMsBFAKoatYsSbKwGkYq4Eeb/QBJCKhSbOfBCIDgGkonu1RCo6VhOkYvmCIBUdW6CEEzsCSMXYlTz0CSMVQ19CEqgkAaRiJYHxeNEJIBWLXgICgEBoCSAV3SsdUtGxmuQiFT95eb7MvKyTl9HBjU+UzhNnSZU9Sry/a1fhu/Me9f7cacJMr+tv64av5YEereX7svXe1486q6vXdWh3Kv6woSxlN2S6TkUd4+Fep8mOn3+SaqW1pOf0xYluSvt7dpzL7h8viyaO9GLZbfc9pNu0BfLbOvXoVHRsjRJOvAggFeNV7yhki1SMQhXJoTIEkIqVocWzLhDIViouX7FGeg28W56bdbWU7l/DhVSyjqHHpXdKx3OPl7PPODbrMfLxos34q7JNReN9y+1zZNh1//53V/088/iVRWelMa3+6EuZfk9/mfvcWzJu0jyZ98QwKSnZPbBS6Liznn7Dm6Oij66hI35/oFw1uF1Fj2b0/aDHy2jSLB5CKmYBLc+vIBXzDLiyw2crFVX+qcRrd/N0qd2kpSfiqpfW8iShyrpv13xQThieN/YRmX99fzm0+WlywkVDPJE4+/Iu0mHc417ImWyrTiUVjaxs3KmPN7Y+t6VsvSc5t/+4VR4f0E7OvPZuKT3iGO97+9atL/vWPVyev2VIQj6asU8ffjtSsbKLiOchECABpGKAMBmqIASQigXBzCQOEUAqOlQMQsmIQLZSMaPBQ/BQZcRRodNxQdyqvLtr2gJ5feGNnjwu+3qTND11hEwae3FRxaItFfNZl0yFc9ASMOjx8sUIqZgvstmPi1TMnl1e3sxWKpatflveeGhiojtRuxZV0nW951lPHlZ0JqGKQCP7cpWK/jMZbWG5dUNZuThTQTQiFKmYl2XGoBDImABSMWNUPOgIAaSiI4UgjIIRQCoWDDUTBUQgE6moIumCXn+Rx6b9KdGVaAuvt1Z8JiNvfMKLaOW7a2WPPX4jr8wfJY2Pqet1kZ3T5VbvewfX2jchp/TvKk4efOxl73va/XbSif8tZ51/s2za/KOsem9tua+9vGR14jntKPRLF/27frSrTGNr2fZa+emnf5abU2PpP3SafLdxqzRpdKg8ft9lcungKTLyig5erPqx323V4ohE95udh/m6Pq/xtmh6uNx+17PefDdf19XroNO8TL57lVRN+pzpaksWr46t8m7d+m+9cSZP6CNXXfdIojM0VZx2V6FdBz9vjVPn19qe0fEmmXZH3wQDs7RSCUR/Z6BdRzOuWR8nnlBfJk3+q7cmHr/vTzLgivu8nP7nglaJWmnHq/2cWTsaRzLui159L7GmdBztMrU7FW0GJp6tW3/2amDWkV3bVOvFrIfRY2fLw5MHykeffJWyW1QZVNurqjzz3Fvl8vOvKf/PQLL8tNvSXt/p4ktVb31/y/c/yQuLVnnr0s43oF8d3jBIxSBpBjMWUjEYjoGNkk4q2luYdavysRf0S3QU6tbmz5YuSEhFI/bOHjVZZg7pLKdfNX6ni07s7dKagNlyrH/OpVPRCE2z5dkWll+8sahcnAacOTtx3fJXEyw1R6RiYEuLgSCQFQGkYlbYeKmIBJCKRYTP1EUhgFQsCnYmzYFAUFJRxaEtBmvXqukJNltYqQDRj8osu9PMCKhZ04fIJYPuFX3XbDm1ZaEKmC4X/8UTll99vTEhknRMFUaXDzhLjj3m0HKddPr+2vUbPDmoMsq8rxJR5zXCSEWOX7AZsXNq6waepFQpZsSnxnjnbb28efVjxlcOmnf/3m28751x6tGJP3++9htPqupW5vbdxspTD18hB5TWSBmvLbHs7c86n83VxHnE4Qd50s50Fdrs7I5DHcvkk27Lt/K2x0u2zFKNe8D++3hzXHNlB6/eGsusp1/3aqcfk7/+WZ/reG5Tr+Y63nML3/F4av7mud/XO8DjadZGqu3PWmMjGH/Yui3BaeK9z3nz6hy2LDXrpV+v0xJxmvWia0JlZLc+d5QTz8k42PnZNU03vuaXbF1pjKamKk3tzlD/ek5Vb31u8ZL3E+stk3pn82sEqZgNtfy+g1TML99Kj16oTkWzRdnIxmJ3Kmpnoi1F6VSs9NLhBQjkhQBSMS9YGTSPBPR/R/lAIG4Efv3117ilTL4hJpBOKtpdVHaKKs1UtJkzFbVT0ZYbRvj4paIZw3SNqQS0pZb5uoo400VnCxX7PZVWtphKFYu/o9KO07/1OdXZfP6vG9n24tMjPQlq4vVvVzZiyBaMpjsxlQhMdY6iLRWVdyZnCNriLV1nZ6rlm8lZhanGHfTHMxL1UYFrx2LLW1sw6nP29xYuXpUQjCr47HjunPLXpGcqaidqRWcb+teRfTao8jfrynSvZrIF2ha4mpPJVzmkGt8W4yY/sz71DEvNwy+K022J99fbSNRUP29B/NpCKgZBMdgxkIrB8sx5tGylYrozFe2zD81W5DP+PEmeu3FgooNRJd6SyWO8y1H0k0unYrozFb/74pPE2Y3mTEWdT89VNFJRz13UC2RqNz6RTsWcVxQDQCA3AkjF3PjxNgQgAAEIQAAC5QkE1ano335qLtFItk1XO8iSncvnlx+mo0y3y/qlphF1KiZXf/j3coLJbLc275htwH6J4z+Xz+6Ssy/88H/d31lp5GhFUtGWqLZUTBWvxm+ElC0VdWu16eaz4/Rv8dX3tdPNdFQa+WlLr3SXkFTUqeiXwOlkWjqpaEs3v1S0L4jR8c32YWXgv6hFt7N3uXhCQvLaa8Zeh+br2lmrH1s0J9sOnqlUtGWmyVe3Zqca3y9N7fVjS8VU68N0b5ot3abedqejSmykYrx+6yMVHat3tlKxpOb+kur2Z//WYnP7s33bcvNLrpT1K5Z5Zy+W1CxNSMWKbn82N0objPYN0qluf04WpxGJehO13hbd7KKhsvr5Wd7FM3OG9ajwTEjHykg4EIgMAaRiZEpJIhCAAAQgAAEnCORbKtpJGtFiJFeqTkXz9XTn/dkCS/9sbm9O112XrOPQvt03207FTKWikXq2jNNOtFRdh6m6FlN1KvrlZ66diqnOVLS3jfs7A03Hnr9DL9NORbtTUKWbEYf+H5ZU25+TdSr65WchOhVTcbDzy7RTMdX6yLTeSEUnftUWLAikYsFQZzZRZaRiZiPyFAQgAIHsCSAVs2fHmxCAAAQgAAEI7EwgE6mYjJt/W3GyTsVkYknHMmfs6Z/NxSq65fSRKYO8C1/8HX32c/bZcKb7bN/f7pXydmL7zD+/jPOfqejf+mqLoXRnKmYqFTUP/1mB/jMV/WcUJutUtM9k1C26Jk7tlDMdjKYbtHWLIxNnFZpbnDM9U9GI22S3P5szCNOdqWh3IKaTivbZi6nOVDR5mvMOU21/1q/7GYwd3U3umrog0cFotvVrp2KQZyqaMwyVm+nEDfpMRZu33bHqr7e9LR2pGK/f/EhFx+qNVHSsIIQDgZgTQCrGfAGQPgQgAAEIQCBgAvmUiubiDbOF1b6B1r9V177kxZaK/ufMbb6KwXzPvthFv25vdfXfRG3Lz2SXcKS6jTfd7c+ZSkWN077t2pwnmSpe0ymoOflvf04WjxFL5sbo4UPayeOzX0vcYJ3sluaKukGNWLS3Ids10O+nu/35uVlXezeGV7T9ee/qe3o3M6e7Hdn+nsk/2e3PyeKxeek7+jHblfNx+7OcUrpKAAAgAElEQVTNKN34lb392V7P9vEAysaut92xiVQM+Jem48MhFR0rEFLRsYIQDgRiTgCpGPMFQPoQgAAEIACBgAlkKxUDDqNow/kva8lHIPmUOvmIt5Bjprt4pJBxpJork/MUXYizWDFwUUuxyKeeF6noWE2Qio4VhHAgEHMCSMWYLwDShwAEIAABCARMIO5SUXHmWxwhFVMvWpelYiGEc8A/zgUfDqlYcOQVTohUrBBRYR9AKhaWN7NBAALpCSAVWSEQgAAEIAABCARJAKkYJE3GgkC8CCAV3as3UtGxmiAVHSsI4UAg5gSQijFfAKQPAQhAAAIQCJgAUjFgoAwHgRgRQCq6V2ykomM1QSo6VhDCgUDMCSAVY74ASB8CEIAABCAQMAGkYsBAGQ4CMSKAVHSv2EhFx2pSGalYtnqFPDuqr3SZNEdKau6fl0y2/7RVZgzqKMd3HyT1WrXNyxyZDrp1w9fyQI/WcvpV43eK5ZOX58sbD02UzhNnSZU9SpIOOXdkb9m3bn054aIhaacsBFcNIJOYM2XDcxDIFwGkYr7IMi4EIAABCEAgngSQivGsO1lDIAgCSMUgKAY7BlIxWJ45j1YZqZjzZCEbIJ1UzCQV16RiJjHzDASKTQCpWOwKMD8EIAABCEAgWgSQitGqJ9lAoJAEkIqFpJ3ZXEjFzDgV7KnKSEW7o65s9dvy8l3Xe3F+8/G7stvue0i3aQuk9IhjvI64mZd18r5XrbSW9Jy+ONHZqKLt3XmPet/rNGGm1G7S0utM/PmHTfLNx+9J+1selOUzpiQ6FY3Y+75sfbmxNJaHe50mO37+aac57PkPbnxiopswVVyp5F+mnYpr33xlp3w1x0UTR3p5njRo9E7dihrLnGE9PGb6MR2gP2wo8/68+157y7rlryY4adem6eI0X7fHtXmYnDWu528eLNs2b5TSIxtL4869Pbamu9JfC53D5q2TH3VWVzl79BQvjlTMl90/XpbPnFyuzgVbwEwUOQJIxciVlIQgAAEIQAACRSWAVCwqfiaHQKgJIBXdKx9S0bGa5CIVVRzaYrB6aS1PoD0+oJ2cee3dnmBU4aQf3QKsf/52zQeepDKC8ryxj8j86/uLvqtft7c/G+FotkKb93UO3ZbcuFMfb1yVY1vK1nuy7LsvPpHZl3eRDuMel9/WqecJy4riSlWSTKRi22vulCevuDBpvn5ZaQs7v6yzpaLK0hZ9hu+U2/InJif46VhzhveUdmMe8MK3mZt59617eEJcGtlrtmzbY/lrcWjz07y59euG5V41S1My1+3fqXJzbLkTTggIIBVDUCRChAAEIAABCISIAFIxRMUiVAg4RgCp6FhBRASp6FhNcpGKz98yJNGdZgs/W3CZdFOdlWi+bkSW/VxJzdKkZzj6zyC05dcXbyySz5YuKNedqCLNL/8yKUM2UtEe15aK6br57Hy0U9GIvHQi0J4n1VmJ+nW7Rua5djdP92RjRedWav6mljqffZ6mzVzj9MdjujD938uEO8/EmwBSMd71J3sIQAACEIBA0ASQikETZTwIxIcAUtG9WiMVHatJOqlob4/VzrpjL+iXEEu6/dm+qMTfhWi2JputuNt/3Jr00hO/bLT/rqhsKWbQ+WWZLb9UKpptx+Z5swVbhZ0/rlSXrOi7mUhF0x2ZbNxsOxVteecXhsm2LCt7W6TanOwambFUsD566ZkpL6AxW9d1HLOtfeuGsnK1sJmrOKRT0bEf7BCHg1QMcfEIHQIQgAAEIOAgAaSig0UhJAiEhABS0b1CIRUdq0kunYqppKKdopGNpw+/PemtzumkYradimaLdTrUtgRN9VymUtEWk/a46S5qqehMRXPDdqouRFvqqfBLdhO1/92KOhX9+WbaqagilzMVHfvBDnE4SMUQF4/QIQABCEAAAg4SQCo6WBRCgkBICCAV3SsUUtGxmgQtFe1uxpKa+5c7U1Elm37MmYq6zfecG++TV+4andiKa0vG0iMaletuNB15ptOuojMVtYPOnLfYst9IWXDL5WJknX3WYy5SMd242dz+bC5qSSYVnx8zWPatW98779A+U9G/ZdpwPvzU9uVkoy0ZdSx/Lc748yR57saBiQ5GZbRk8hjvMpmKzlR0bFkTTogJIBVDXDxChwAEIAABCDhIAKnoYFEICQIhIYBUdK9QSEXHahK0VFRhqDLKbEG2b1/2315sX/Jizvfzdy6munE409uf7dunU8VV0e3PevO0/dG49WNfepIsXzNfstuf7fH8Zyqm2v5stpCbeDQOvbFZP8luvNbbn5Ntf9Yt2/rRS2z8N0zbjJpfcqWsX7EsIXzTMXdsWRNOiAkgFUNcPEKHAAQgAAEIOEgAqehgUQgJAiEhgFR0r1BIRcdqUhmp6FjohAMBCESQAFIxgkUlJQhAAAIQgEARCSAViwifqSEQcgJIRfcKiFR0rCZIRccKQjgQiDkBpGLMFwDpQwACEIAABAImgFQMGCjDQSBGBJCK7hUbqehYTZCKjhWEcCAQcwJIxZgvANKHAAQgAAEIBEwAqRgwUIaDQIwIIBXdKzZS0bGaIBUdKwjhQCDmBJCKMV8ApA8BCEAAAhAImEDYpeIPP2yTvfaqGjAVhoMABDIhgFTMhFJhn0EqFpZ3hbMhFStExAMQgEABCSAVCwibqSAAAQhAAAIxIKD/vsMHAhCAQLYEfv3112xf5b08EEAq5gFqLkMiFXOhx7sQgEDQBJCKQRNlPAhAAAIQgAAEwkhg7ty5MnbsWHnllVfCGH5oYvY6WZFGoakXgUIAqejYGkAqOlYQwoFAzAkgFWO+AEgfAhCAAAQgAAF58MEHZdasWfLMM89AI88EkIp5BszwEAiYAFIxYKC5DueKVNz+01aZMaijHN99kJQe0UgeH9BOzrz2bik94piMU/zk5fny/C1DpOf0xVJSc/+M36vowa0bvpYHerSW068aL/VatS33uM75xkMTpfPEWVJlj5KkQ80d2Vv2rVtfTrhoSNqpylavkId7nSY7fv6p3HNHndVVzh49paIwK/19O/blT0yWb9d8UKl5TM0ObX5ahblVOjheiC0BpGJsS0/iEIAABCAAAQiIyMSJE2X58uUyffp0eBSAAFKxAJCZAgIBEkAqBggziKGQihVTTCcVK35bpDJScfblXaTDuMcTMjXXudPFh1TMpHo8U2gCSMVCE2c+CEAAAhCAAARcITBq1CjZuHGj/OUvf3ElpMjHgVSMfIlJMGIEkIqOFbQyUlE76VR6eZ//+A+vI/CHDWWJ7rpqpbUSXYKmi23d8le9x08aNNrrZvN39i27f7zXIXf68Nu9TsXGnXvL8hlTRN/bbfc9pNu0BbJXzVKvU/D7svXeWHbnnt3dp19fu/zVRAw618zLOnnvHNz4xEQ3of11O+ZU8i/TTsW1b76SmM+M++68R2XRxJHlGNhLQGOZM6yHl6d+/FJRv+aPS/+u49pczXPm64aR8nl2VF/pMmmO171p89d4tctSmT911f+UY6t1MXGbOpiuUTP/7w47ynvnyDadvdratbC56ljLZ04OvIPUsR8lwgmIAFIxIJAMAwEIQAACEIBAqAgMHjxYqlevLtddd12o4g57sEjFsFeQ+ONGAKnoWMUrKxV1e267m6d724D9sk1l05ay9Z68s7fT6nNzhveUdmMekLLVb5fbLuyXiv7tz7+tU8+TjWaLrRGb2s1nZGPjTn08qaXzG6loZKfGWrtJS2+M6qW1PLlpb63W+fWTbmtyJlKx7TV3ypNXXJjYsm2P65eCZjyVpH5BWlGnoo772dIFHuPvvvjEE7qao37MNmz98zMjeknz3sO8r1ckFf318m8j1/j1o1uwbUFoGLfoM9zLQ8WvXQuzFnRbeKqcHftxIBwHCCAVHSgCIUAAAhCAAAQgUFACPXv2lKOPPlouu+yygs7LZNorw0UtrAMIhIkAUtGxalVWKtrSyy+f7K447ZhLdkZfRZ2KFZ2pqHLKSEG/MLPn98tLE2un8TNk7rV9KnVeYzZS0S6zLRXTde2lOlPRdHkmO8PQjL1v3cOTnu2YSaeiXyr6l6gRvyoVk3VN6nmRdY4/qZy8tOWv/1xMuzuzMmdmOvajQzh5IoBUzBNYhoUABCAAAQhAwEkC7dq1k/bt20uPHj2cjC/qQSEVo15h8osaAaSiYxVNJxXtbbbaiXbsBf126noz24tNWvZWWfv9ThNmet2N2UhFe7uyzmPm2LqhrNzFLH6paTr6tFPO/p69ZdveFp2qNJlIRbtzUC9ascfNtlPRL239W8pNvKbb0d6ybERkNlIx2Tw6h9mibl/MYktN+5IcW/6qOKRT0bEffIfDQSo6XBxCgwAEIAABCEAgUAKtWrWSIUOGyLnnnhvouAyWOQGkYuaseBICLhBAKrpQBSuGynYqptpKm+rmY53KFkwqAu3bks3WWiOs/J2KZouzuXk5105F/83QdhderlLRZpCuu8+ep6IzFe0t5fqeuSHbfwu1PaZ9k3ZJzdJyItjePm3OVPR3KtrPaE65dip+8cYizlR07Ofe5XCQii5Xh9ggAAEIQAACEAiKQMOGDeWOO+6Qli1bBjUk42RBwGWp+OSTT0qHDh3kmWeekbPPPjuL7HgFAtEjgFR0rKa5SEV/B5+9tVcv+dBtsXpWof9MRXMxiRGGtRufmOiCq0gq6hxLJo/xLjbxn7eYyZmK/m7LoM5UbNlvpCy45fLEhSjpzlRMtQSSbRlOxth0YG7/cWviHEMd02w3V6lon6lozl00Z0vqsyoSM5GKZg6tkW5/trsnK3OmomPLnnAcJoBUdLg4hAYBCEAAAhAIOYGXX35ZunfvLnXr1pV58+ZJSUlJUTI6+OCDvfkbNGhQlPmZ9P8TyEUqbtu2TSZNmiS33XabfPPNN7LLLrtIx44dZdy4cXLQQQfljHnu3Lly/vnni67bJk2a5DweA0AgCgSQio5VMRepqKnY5wDaW5/t7a76nNn+rH8226L1huB6rc6U7Vu/LycVjfwqe3+5Jw+1083cRNz8kitl/YplovJRu/Xs+Rt3uVQ2fPK+dyGMuek42e3P9jbhdNuUTan8uZiva076MZ2XejmNidMe18xntiRXRirqs/5zGP3b0lX2pbpt27yvcWl9jus2wOPnl4rm5mrd5qxxmtu2tUbNLhoqq5+flbg921+/ar87MO3tz44tecJxnABS0fECER4EIAABCEAghAR27Nght99+u4wYMUJ++eUXrzuwGFJR565Ro4a8//77UqtWrRCSjF7I2UpFXVP9+/eXKVOmeKK6bdu28umnn8rYsWNlv/32kxdeeEFq165dKWC//vqr6LhVqlTx3lu+fLnXqfj000+LdrbqZ/v27bLbbrt5F8zwgUAcCSAVHat6ZaSiY6ETDgQgEEECSMUIFpWUIAABCEAAAkUksHHjRundu7do19fUqVNl4cKFsm7duoJLxe+++86TTZs2bZK99tqriESY2iaQrVRcvHixnHLKKXLDDTfIsGHDEpJv5cqVcuqpp3odhrq9vTLy7x//+Ie0aNFCdt11V7n44oulXr16MnLkSJkwYYIsWrRIZs+e7UnxJUuWeGuJDwTiSACp6FjVkYqOFYRwIBBzAkjFmC8A0ocABCAAAQgETGDLli0yYMAAGTRokLeFVG9ZXrt2bUGlonawNW3aVL799tuAs2O4XAlkKxV1Pc2cOVOWLl3qbac3H+02HDhwoLe+9HsHHnhgxiGuX79exo8fL59//rm8/fbbokL8xx9/lD333FP22WcfadSokScahw4dilTMmCoPRo0AUtGxiiIVHSsI4UAg5gSQijFfAKQPAQhAAAIQyDOBQkvFt956Sy644AL55JNP8pwZw2dDIBupqKJPb+z+17/+lVROP/LII9KzZ0+vu1A7D7P5qAzXOT766CM58sgjvS7F6tWrZzMU70AgUgSQio6VE6noWEEIBwIxJ4BUjPkCIH0IQAACEIBAngkUUirqVuvhw4fLm2++meesGD5bAtlIRd2m3KxZM08YTp8+faepn3vuOe+MxWxvbTbnNb766qvelv1OnTpJ586dvXNBK7OdOlsmvAcBlwkgFR2rDlLRsYIQDgRiTgCpGPMFQPoQgAAEIACBPBMolFTUrbGTJ0/2Luzg4y6BbKRiWVmZt529devWSaWiXrCilwFp/S+88MJKJ69diSoRb7rpJrnyyivlmmuu8f48Y8YM7+IWPhCIMwGkomPV5790OFYQwoEABETPouEDAQhAAAIQgAAE8kGgEFJRbwRWmagSiI/bBFyTivrPwbpt+tZbb5W7775bDjnkEO+MxcGDB8uQIUPkxBNPpFvR7SVFdHkmgFTMM+DKDk+nYmWJ8TwEIJBPAnQq5pMuY0MAAhCAAAQgkG+pqDJIL2bRLjU+7hPIRirqhTutWrWSY489Ni/bn92nRoQQKB4BpGLx2CedGanoWEEIBwIxJ4BUjPkCIH0IQAACEIBAngnkUypeffXV8ssvv8gtt9yS5ywYPigC2UjFQlzUElR+jAOBqBFAKjpWUaSiYwUhHAjEnABSMeYLgPQhAAEIQAACeSaQL6nYt29fOfjgg72LWfiEh0A2UlGzGzFihNx3332ydOlSqVu3biJh3b48cOBA71Zo/d6BBx4YHhhECoEQEEAqOlakQkjFZfePl8+WLpB2N0+XOcN6yPHdB0m9Vm2TkihbvUKeHdVXukyaIyU1988rrULN9cnL8+WNhyZK54mzpMoeJYHnNHdkbzn81PbeuBXNs3XD1/L4gHZy5rV3S+kRxwQeixkwX2x13KVTbpZzbpxWIcuguQc9Xt7gh3xgpGLIC0j4EIAABCAAAccJ5EMqXnDBBd522EsvvdTx7AnPTyBbqbhs2TLvopbrrrtOhg0bljjnULe+6yUtevvzPffcI//5n//pnRf+9NNPyzfffCPdu3eXqlWremF8/PHH8sQTT8hFF10kBx10EMWBAAQyIIBUzABSIR8ppFTMl1TLlle+xFe28WTznoquDxc+JWePnpLR64WSihkFk+VDKqn1c8JFQ9KOELQEDHq8LNOP/GtIxciXmAQhAAEIQAACRSUQtFRs06aN9OzZU7p06VLUvJg8OwLZSkUVhUOHDpXbb79dunXr5klElYZjxozxAnnppZekfv363p/NbdHr1q2T+fPnyxlnnOF9Xdfigw8+KL169ZKpU6dmlwBvQSBmBJCKjhU8E6moImrO8J7SbswD5boHVbLMvKxTIqNOE2YmOhDN93bbfQ85pOnJ8vMPW3bqVNRxH+jRWr4vWy/VSmtJz+mL5YcNZeU6Fe05Dm58otftp58ZgzpK9dJa8u68R72/H3VW14RYSxWXfv35mwfLts0bpfTIxtKy30hZcMvlXlekmXf3vfaWdctf9cY0+Wz/aas3n/n6SYNGJ4SWismHe50mO37+SUx8a998pdw8jTv3luUzpiQ6FVWKLZo40pvDjOWfw4ylnY32HIaTdnHqO8+M6CXNew/zug5t6bX8icny7ZoPdpKNfqmoXY7/3Pq9fP76S+Vy0Hn1e8n4pqrb7Mv/7x+k/uM/pO2IO+SliSMTHafJOOkcNgtdK92mLUh0UNrz28zt9agMU3VeGh6771VdPl48L7HGTAdsqvFT8fZLxVTvp1t/L991vVf3bz5+V/z5OvaroWjhIBWLhp6JIQABCEAAArEgEKRUbNq0qYwaNUpOP/30WLCLYpLZSkVlsWPHDrn33ns9kfjVV1/JLrvsIiqZVTQedthhCVxbt26Vzp07y4oVK8rJxgkTJsjll1/udTT27t07injJCQKBE0AqBo40twGzlYoqXlQidRj3uCeBzBZnlX7fffGJJ9p0u3PtJi09Iacfe/uz+brZCq3vqwQ79oJ+Camoos8/jorE04ffnhhT51OJp9uqVUjpJ1Vc9nMas92paOZq0We4JwxVGG0pW++JQFvQpRNa+s6+devLvnUPT8Tjl30ag9mivP3HrQkh9tZjd3mxa8ehkXanXzVeSo9o5InXxp367BSXcra3AmfSSZdMKq5d/mpC6BreGouJU/9s5OVv69Tz2Cerm3lXt7bbbP3iz+b0/C1DvLlV9OnXDQNdD8tnTt4pLrNt3mz5TrWNXscxcs8IyUzGT8fbrp2uCd3S71/vJTVL064/lfAqq8361/WcaZdpbj/p4XkbqRieWhEpBCAAAQhAIM4Efv/733tdZscff3ycMYQ+91ykYuiTJwEIhJAAUtGxoqWTiv6OKxO63TVmvmYLLVu+aDea+Z4tFVW+JDs70ZZRZavfLndGoNdpeMsQ6XrPszL/+v5yaPPTPNGWbkuvPy5bYvmloi0jM+n6SyXxTJxGltnPPT9msCce023dNV2LKu78nGyZu3VDWbmtz9lKRSPy7HltqWifA5lqy7hfMqerY6ofASOWVbIZ8Wg42UJQ389kC7S/DnZM2ilq18GMb0ttFZ1+3ipazTo260/j8ceb6ufCXn92vo79WihqOEjFouJncghAAAIQgAAEMiCw3377yauvvlquGy2D13jEQQJIRQeLQkgQSEMAqejY8si2U9GIFLM9Vv9utuzaXVyppKI+bwsWg8UWPzq26QYz24BVRJ439hFPKppuuWTdd8ni8stOv1S0JWe6ra5mW7TdnWmLN/+7fqlqyyg7b7ON2nxN5/FzsnP94o1F5bY4ZysVjVyzpaJ2ACbbpu0XdcnqZmSc4emvo3nHv+Vbv67b2E0nqs3JL+AylYr2xTWm3mb9JBtfL7yx16XNWyWuLRXNdniTj9mCb2+Ltn8u/OsPqZj8lyFS0bH/kSAcCEAAAhCAAAQSBH766SfZe++95e9//7v87ne/g0wECCAVI1BEUogVAaSiY+XOViqm68YrVKdiMqmo4seWQuk6KCsjFU3Zkkkm/wU0qaSiPpesU9HINSO5Ct2pmEoq+uVfss7JTKSiv+PUvOOXsvnuVLTXbBCdisluMa/MzwVSEano2P8cEA4EIAABCEAAAmkIfPnll15n4ubNm2W33XaDVUQIIBUjUkjSiA0BpKJjpc5EKiYL2ZYnVfYsKXfGoZ4VqOcA6pmAqc5UNGfX6TOmK067Ev2Xp6Q7U7EiqeiPK9tORVsE2mcq6jmM9pZps4VWu93sDjn/VmrTfWk4nXLZjd5FLkYqmm3n2qlYiDMVk0nFb9d8mOiCtC+E2atmaaK2qerm71RMxUnn9bOo3fhE74zBIM9UNJ2l+TpT0dRRz73U8zSN1K5o/SEVkYqO/c8B4UAAAhCAAAQgkILA+++/713Goh2KfKJFAKkYrXqSTfQJIBUdq3G2UtHeuqq32J4yZIy8PWtq4rZf+zzG5pdcKRs+XS1tRkz0LjAxMjDZLbuVuf05mVQ0F4no1lR/XP6OuUw7FY000luq9ZPslmv9un37cyqp6L9V2ZxPafPSbbT6MbIv37c/J5OKRgZXdON1qlu7/Wcv2vkZTjZXHafZRUNl9fOzErdkB337s32jtvIN8vZns/U53c+Ff/0hFZGKjv3PAeFAAAIQgAAEIJCEwJIlS+TSSy+V9957Dz4RJIBUjGBRSSnSBJCKjpU3W6noWBqxDUdl3YcLn4rVDcKZnKcY2wURgcQ5UzECRSQFCEAAAhCAQEQIzJs3T2655RbvUhY+0SSAVIxmXckqugSQio7VFqnoWEGyCEc77nTLtW5HjvpHOyCXTrlZzrlxmtiX40Q97zjlh1SMU7XJFQIQgAAEIOAugYceekhmzJghc+fOdTdIIsuZAFIxZ4QMAIGCEkAqFhR3xZMhFStmxBMQgEDhCCAVC8eamSAAAQhAAAIQSE7gjjvukDfffFMefPBBEEWcAFIx4gUmvcgRQCo6VlKkomMFIRwIxJwAUjHmC4D0IQABCEAAAkUmcP3118u3334rEydOLHIkTF8IAkjFQlBmDggERwCpGBzLQEZCKgaCkUEgAIGACCAVAwLJMBCAAAQgAAEIVJrAkCFDZK+99pJRo0ZV+l1eCCcBpGI460bU8SWAVHSs9khFxwpCOBCIOQGkYswXAOlDAAIQgAAEikTgoosukgYNGsjgwYOLFAHTFoMAUrEY1JkTAtkTQCpmzy4vbyIV84KVQSEAgSwJIBWzBMdrEIAABCAAAQhkTaB9+/Zy7rnnSs+ePbMegxfDSQCpGM66EXV8CSAVHat9MaXi9p+2yoxBHeX47oNS3ly8dcPX8viAdnLmtXdL6RHHZE1Px3mgR2v5vmx9uTEObnyidJ44K/CbhPWW4mdH9ZUuk+bIDxvKEn8uqbl/xjksu3+8fLZ0QUbx6bP6OeGiIRmPrzE+3Os02fHzT+XeOeqsrnL26CkZj5Ppg5+8PF/eeGiil8/yJybLt2s+qNQ8Zr0c2vy0tHnqPB8ufKpSY2eag11Xfy0rU69M54vjc0jFOFadnCEAAQhAAALFI9C6dWu57LLLpF27dsULgpmLRgCpWDT0TAyBrAggFbPClr+XiikVM8kqaKl4+lXjEwIzU0mVSZz+ZwopFXWupVNulnNunFYpOarvzb68i3QY93hC2Br5anPKJv9k7xRKKurcc0f2lsNPbZ9SVgeVkz0OUjEYqkjFYDgyCgQgAAEIQAACFRM4+uij5S9/+Yu0atWq4od5IpIEkIqRLCtJRZgAUtGx4mYiFVU0zRneU9qNeUBMd5YRUl46//Ef0nP6Yq8jz3S+VSut5X3NPK/CZdHEkbLb7nvIIU1Plt+UVJPTh99erlNRRdC78x71htRuOfP9dctf9d47/8458spdo+XnHzbJNx+/J50mzJTSIxqV60A0XXb++DqNnyEzh3QWvyzTuOyOORVfMy/r5MVgdzHaXze5VdmzpFz8tgDV97VT8exRk715tUPSvFe2+u3EHPqc5lGvVVtvTjOP4fTzD1sSnYo2n5MGjU5069kCLVnec6/tk7TTM5lUNEJu3yc0paoAACAASURBVLr1y41v6uKf166Xdjf6O/lskbj2zVe8TsXGnXvLU1f9T6LO+p5ZH/pFzb3btAUJ0Wny/t1hR3nvHNmmsxeb3WnpX2+2aP3ui0+Sdor6Y/XzSMY7WX66XpLVy7Ef9dCEg1QMTakIFAIQgAAEIBBqArVr15ZnnnlGGjZsGOo8CD43AkjF3PjxNgQKTQCpWGjiFcyXi1RUgdju5umeEPN3uKmQ2VK23hNiKnVMR9xeNUs9CVi78YnlpKKGabbG6p+fGdFLmvceJvq82f782zr1PIlXvbSWt7XV32loSyEdI118+v1079tzqUizt2CbrcaNz+9ToVT0b39W8Wp3B9rdbcrJxFy7SUtvbP2Y7cLLZ04uJ2+VvUpVW/ga0Wbqkq78mXQqpoovVb3062bbtwrlZFLRv/1Zn3n+liEJCa1rRz9GNvrzbtFnuCeddR017tTHE4z2equyR4lXW7OGUm2b92+/93dSJuNdUrO03Lb2VPXSGPhkRwCpmB033oIABCAAAQhAIDMC//u//ys1atSQd999Vw4++ODMXuKpyBJAKka2tCQWUQJIRccKm04q2t15dtgq2eocf1I5OeYXQ3ZHl3az2d2ApjvQ7lS0JZUtZOzuPyP6Up2p5+8UtOVdqjMV7fMD/dtXjWRqe82d8uQVF+7U7eeXUsk6FSs6UzGVdFMG9veeHzNY/N2DyuzYC/qV2/qcqvsw2bJLdaai6UZMtj1c5Z3GsW/dwxMS2K5XJp2KFZ2paHePmvnMWZHm77r+bHmZLO9MtkDbAtOeK9m8hreZVztOjQj31wupmP0vOqRi9ux4EwIQgAAEIACB9AQ2btwoNWvWlE2bNkm1atXABQFBKrIIIBAuAkhFx+qVS6eivyPNbBs2KZptrG89dpf3JXP5RzKpqN2O9hZYI7aSSUX7Yhe/+DRz6nx2fP5OymQSyp7f5GC21dpbu822aH3GvmgmU6lob6vVMcx4enmJfTGLkYradThnWA+xZaphqOcG2mIr3UUi/qXnZ+AXw0Yq6vZz+2NEbLJ6ZSMVk81jb3+387alpt3dmOzszUyk4v8Xx5PkySu6eeI4mbw2vFXimnWlsjxZvfJx8Y9jvzbyGg5SMa94GRwCEIAABCAQWwKfffaZHHfccfLdd9/FlgGJ70wAqciqgEC4CCAVHatXkFLRllt2mv5zC1NJRfOO3QGo23v925+NVPSLwlRST7fhJruAROMwW1z1GX+cqUqVKn7/9utktz9rd5stw/LRqWjL1HTLLVV3n9m27pemqcay62VvDzZMjXgzZyr6OxX9HaKF7FQ0a6ZRx0tkzWsvJC67oVOxeL+okIrFY8/MEIAABCAAgagSWL58uZx//vny6aefRjVF8sqSAFIxS3C8BoEiEUAqFgl8qmkzkYrJ3vV3pPmlnS3s7HMEU52p+O2aDxNbpO3z8JKdqZhKKuqcSyaP8S750E+6TkX9frozFfUcPnNOX8t+I2XBLZeLbmU2okzfN2cqmjMeU82v+dtbZo1UNBe96Fgq2rb/uNU7J1Avk8nlTMVcpGKyOhopaOLTcwz1Y7a02/XSr6c6ZzATqWjm0DM3tbPV7p403aJBnalo1rXpHLUvofGvX5OTLU31/VT1Yvtz9r/okIrZs+NNCEAAAhCAAAR2JrBw4UIZNmyYvPXWW+CBwE4EkIosCgiEiwBS0bF6BSUVNS37jD7/Db5mq6xuJ67X6kzZvvX7che1GIlmttr6z/Ure3954vZne/uzvQW3+SVXyvoVy0S/7++YS9apqDGrtNKtxea24WS3PBuRqLdX68e+FdrOuXGXS2X920u9LbS21DTySf9/13uelfnX9xdzo/UpQ8bI27OmJoSlPb/ms+HT1eW651LdwqzboHULeTLZa18yYy+/VOcv+js4/bdy25fk+Oul49s3fR/XbYBXE5WmtlTUP+t2ed3mrLVWOWduyG520VBZ/fysnW69Nmun2u8ODOT2Z8PCvwb8slH/btZjqtuf9Rl/vRz7UQ9NOEjF0JSKQCEAAQhAAALOE5g1a5bce++98sILLzgfKwEWhwBSsTjcmRUC2RJAKmZLLk/vZSsVsw0n2eUf2Y7Fe/8moKJr6ZSbE/IRLuJ1mRrRCo9wEUAqhqteRAsBCEAAAhBwlcCUKVNkwYIFMnPmTFdDJC4HCCAVHSgCIUCgEgSQipWAVYhHCyEV/Zep2DcuFyLHOMyh3YH6MbckxyHnVDnqevtw4VOJi4HizCKMuSMVw1g1YoYABCAAAQi4RWDs2LHyySefyOTJk90KjGicI4BUdK4kBASBtASQio4tkEJIRcdSJhwIQMBhAkhFh4tDaBCAAAQgAIEQELj66qvlX//6l9x6660hiJYQi00AqVjsCjA/BCpHAKlYOV55fxqpmHfETAABCFSCAFKxErB4FAIQgAAEIACBcgT69esntWrVkuHDh0MGAhkRQCpmhImHIOAMAaSiM6X4dyBIRccKQjgQiDkBpGLMFwDpQwACEIAABLIkcMEFF0jLli2lb9++WY7Aa3EkgFSMY9XJOcwEkIqOVQ+p6FhBCAcCMSeAVIz5AiB9CEAAAhCAQBYEzjjjDOnRo4d06dIli7d5Jc4EkIpxrj65h5EAUtGxqiEVHSsI4UAg5gSQijFfAKQPAQhAAAIQqCSBpk2bynXXXSdt2rSp5Js8DoF/79z79ddfQQEBCISEAFLRsUIVUiqWrV4hz47qK10mzZGSmvunJKHPPdzrNNnx80+JZ3bbfQ/pNm2BlB5xjGz/aavMGNRRju8+SOq1alsQopnGniqYuSN7y75164vefP1Aj9byfdn6co8GfSO23gb92dIF0nniLKmyR4k319YNX8vjA9rJmdfe7XHMx8fkmckt1Prs4ae298J446GJ5WKtKDbNRTmeftX4vK4BU/fzxj4i86/vL+uWv7pTaAc3PlEad+4ty2dMqVQOqXLUOZdOuVnOuXFaonapntWbrivLLh3boMerqI7Jvo9UzIYa70AAAhCAAATiSeDwww+X6dOny/HHHx9PAGSdMwGkYs4IGQACBSWAVCwo7oonc1Uqzr68i3QY93hCfqnsmDOsR0IsVpyZW0/4paItw/IhSYslFTOlrvX8cOFTcvboKZKNyCq0VLRFuEo///rMNO9Mn9P66aciOZsNO6RiplXgOQhAAAIQgAAEXCaw3377ySuvvCK///3vXQ6T2BwngFR0vECEBwEfAaSiY0siE6moAmfO8J7SbswD5ToM7Y7CaqW1pOf0xd73jSQzXV0nDRpdrkPPPFu2+m2ZeVmnBJFOE2Z6XWeppI2KOf2cPvz2cp2K+vV35z3qfc90/JkOs1qNmsvyx+8Ru9NRn1MZY+bWTjPt6NOPdkBWL62VcjzTsWa6JE2uhzY/zRNAycbVTsF0UlHntTv87DH0e4aLfv35mwfLts0bpfTIxl7My5+YLIsmjvRit3PMRCqmql9l5tG4//HxKvnm4/dE6/ztmg+8jkxlkW59PDOilzTvPcyTxkaM7b5Xdfl48Tyx15LmoWOqfLQ/FUnFVHXQMXRMw0xj1lj9a9asie+++GSn7tpk69Pk0O7m6Z78rnXMCfK3hyd53baGi67RdD8nps4ao/0zp39P1WGajp0/J3v8dLU3nY/m58H8HNvvp1ujL991vVeqbz5+d6efu0x+/dGpmAklnoEABCAAAQjEl8BPP/0kNWrUkPXr18vvfve7+IIg80AIIBUDwcggECgYAaRiwVBnNlG2UtEvdVQubSlbnxBdRgTZcuSHDWUJQaN/tru9bAmmIidZJ5hf3KjY048tQYys0q/rFurDT23nCSn/+Po9FUC1m7RMiEQjK/VdFXZr33wl0R2pXzNbt1UO2fkZ4aPPmLh/W6deYlydP51UtFmW1CxNycWOx8i4528ZkpC5Rrr68022/XmvmqXe9uHGnfp4Us2uX2Xmsd9LJk+Tja/1tbf3GkGl0squh18kZioVjTDz19ffFbn9x60JWffWY3d5w+sz/nr4t+xnIhXtNaTyWsVi4/P7eGvCCGi7Xsk6cc328HRb/A07I0ftMVPVtKLam5+n58cMTjCx47PXua5D+2dL147mW5la+n9TIRUz+93NUxCAAAQgAIE4Evjqq6+kXr16smnTJqlSpUocEZBzwASQigEDZTgI5JkAUjHPgCs7fDqp6O9GMmOrwNi37uFiCy37zEFbutnxpDuX0N7Gma1UNPJM5/SLH/s8wa0bysqdQ+d15t0yRLre86x3bp6RPvY7tlTUDkuTu/7ZSBjtGrTPMbRzUkGT7kxFI4X89bPHUGFjM/c/a3f12d149nOmm9HOR7tLbV7KJ9N5bImlYxp5Wuf4k8p1+PnHN1uf9R3D33S6pupOtPNI16no3xJsj68diqaTMtXPir0dXSVvNlLRrCH/mk8ll5Ntgc9kC7Sfnf8MyGQdtRXVRtdz22vulEcvPTNxZmW6Lfrp1mgmtUQqVva3Ns9DAAIQgAAE4kng/fffl9NOO02+/PLLeAIg67wQQCrmBSuDQiBvBJCKeUOb3cDZdiomE4729lt7S7K9rdkWNPYzGr295TRZp6LpiDJbTI0wSbad1S9zbEH4xRuLysm/VCImlVTUWE13ona4GUmVTOSZ7a5GZpmLWtJdMJKKi0pF+1IO//ZWjcts/65o+7NfHKaTrunm8V/MYv7ul85+/vaWZr8EzEREpZOK/tz99TXCzy+8/ZcD6brNViqatVmRVPRf2GPL5Uylor0mzHxnj5osM4d0LneRTSa1McLdSMVU8WW6RjOpJVIxu9/dvAUBCEAAAhCIE4GlS5fKH//4R3nvvffilDa5FoAAUrEAkJkCAgESQCoGCDOIoXKRipncOptJt592ymXSqZjqTEXDwd9hZotJf6ecHbu/U9EIoVSxa7waS7X9D5INn65OnA2YTqBUdKaiycHfeebvArPj9sszf6diutufdT5b8Kbjk26eVFKxom44f6eiP69k5yja6z3ITkX/uZhBdCpmIhUruok7U6lod5WmWst2jhXVxnQqPnnFhUlvCq/sGq2olkjFIH6TMwYEIAABCEAgugTmzZsnN998syxZsiS6SZJZ0QggFYuGnokhkBUBpGJW2PL3UiZSMdnsfqmjAmT5zMne+X72FtNUZyraW4ir7FninTWnHz3LMNn2Z/tMN3NeoYqbb9d8mDjfUMWJ/0zFFn2Ge2cGVuZMxUykounUNN2VuvXav+XaPtPOv/05VaeiLWz8XPydinZOej6gnpFYu/GJO50hmc2ZiqnkpX+eVFLRdGRmeqZikFIx3ZmKyZidctmNsnzGlMS2d/uMx3x1KppzLHXN6zmOdszmDMXKnKlouoHzdaaiHZ/GbERmJmsUqZi/39+MDAEIQAACEIg6gYcfflieeOIJmTt3btRTJb8iEUAqFgk800IgSwJIxSzB5eu1bKWixmPfIGtvfTbC0WydNMLDfF3fNecX6s2y+u4pQ8bI27OmSpdJc0QvcfFvRbXHtzvJzMUe9k3T5uZh7cTbfa+9Rb9n37qr8ye7HVi/rnIzE6locjHSzNTHHteeM9NORXursZ+LfX6jikKbs87V7KKhsvr5WYnLctJ1KuoFG5ncAFzRPEaWKnP92JKxsrc/q1DW+fwdl+luf/Zvz7Vvyvbf7m3kqr1112w3tuumQlQ/uq3d39Vn1r1/e36yS4TMTeb+Lf9mu3yyW9INx2xvf7Yld9C3Pye7KbuiNVqs7c8vv/yydO/eXerWrSva3VBSUpKvX6GMCwEIQAACEIBAngjccccd8re//U0eeuihPM3AsBAQQSqyCiAQLgJIRcfqlYtUdCyVcuGkuxTG5bjjEptKOHsLdFzyzjTPTLY+ZzpW2J7L5fbnHTt2yO233y4jRoyQX375RVq2bIlUDNsCIF4IQAACEICAiIwePVo2bNggEydOhAcE8koAqZhXvAwOgcAJIBUDR5rbgEjF3PjxdvYEMtnem/3o4X1ThfjSKTfLOTdO8zo34/bJVipu3LhRevfu7W2Pmjp1qixcuFDWrVuHVIzbAiJfCEAAAhAIPYEhQ4Z4uwyuv/760OdCAu4TQCq6XyMihIBNAKno2HqIqlR0DDPhQAACGRLIVipu2bJFBgwYIIMGDZImTZpIjx49ZO3atUjFDLnzGAQgAAEIQMAFAhdffLEcddRRMnjwYBfCIYYYEEAqxqDIpBgpAkhFx8qJVHSsIIQDgZgTyFYq+rEhFWO+kEgfAhCAAARCR6B9+/ZyzjnnyEUXXRS62Ak4vASQiuGtHZHHkwBS0bG6IxUdKwjhQCDmBJCKMV8ApA8BCEAAArEkcNJJJ8mf/vQnadeuXSzzJ+niEUAqFo89M0MgGwJIxWyo5fEdpGIe4TI0BCBQaQJIxUoj4wUIQAACEIBAqAkcffTRMmHCBGndunWo8yD4cBJAKoazbkQdXwJIRcdqj1R0rCCEA4GYE0AqxnwBkD4EIAABCMSKQJ06deTpp5+Whg0bxipvknWHAFLRnVoQCQQyIYBUzIRSAZ9BKhYQNlNBAAIVEkAqVoiIByAAAQhAAAKhJ/Drr7/K3nvvLatWrZLatWuHPh8SCC8BpGJ4a0fk8SSAVHSs7khFxwpCOBCIOQGkYswXAOlDAAIQgEDkCWzcuFH23Xdf2bx5s1SrVi3y+ZKg2wSQim7Xh+gg4CeAVHRsTSAVHSsI4UAg5gSQijFfAKQPAQhAAAKRJrBmzRpp0qSJfPfdd5HOk+TCQwCpGJ5aESkElABS0bF1gFR0rCCEA4GYE0AqxnwBkD4EIAABCESWwPLly6Vz587y2WefRTZHEgsfAaRi+GpGxPEmgFR0rP5IRccKQjgQiDkBpGLMFwDpQwACEIBAJAm8+OKLctVVV8lbb70VyfxIKrwEkIrhrR2Rx5MAUtGxuiMVHSsI4UAg5gSQijFfAKQPAQhAAAKRIzB79my5++67ZeHChZHLjYTCTwCpGP4akkG8CCAVHas3UtGxghAOBGJOoCKp+PPPP8tXX30l++23n+y5554xp0X6EIAABCAAAbcJTJ06Vf7617/KrFmz3A6U6GJLAKkY29KTeEgJIBUdKxxS0bGCEA4EYk5ApeKcOXNk3bp18ve//10+/fRTWb9+vZSVlXmHum/fvl1222036dixozz00EMxp0X6EIAABCAAAXcJ3HbbbfLRRx/JlClT3A2SyGJPAKkY+yUAgJARQCo6VjCkomMFIRwIxJyASsVq1arJjh07ZNu2bSlp1KlTRz7//POY0yJ9CEAAAhCAgJsERowY4f2HwLFjx7oZIFFB4P8IIBVZChAIFwGkomP10l+ifCAAAQi4RKB69eqyZcuWtCGpeKzoGZdyIhYIQAACEIBAXAj0799fDjzwQLn66qvjkjJ5hpgAUjHExSP0WBJAKsay7CQNAZGXX35Zrr32Wlm8eDE4IJCSwLJly6Rt27ayefPmtJT0HwD/9a9/yS677AJNCEAAAhCAAAQcIdC1a1dp0aKF9OvXz5GICAMC6QkgFVkhEAgXAaRiuOpFtBAIjABSMTCUkR5o7dq1cuSRR8qPP/6YNs899tjDO6fpoIMOijQPkoMABCAAAQiEhYD+R8Hu3bvLBRdcEJaQiRMCglRkEUAgXASQiuGqF9FCIDACSMXAUEZ6ID1Lcffdd5f//d//TZunbpFesGCBHHfccZHmQXIQgAAEIACBMBA44YQT5JprrpEzzjgjDOESIwQSBJCKLAYIhIsAUjFc9SJaCARGAKkYGMrID1RSUlJhp6Keqfjggw/KueeeG3keJAgBCEAAAhBwmUD9+vXl/vvvl6ZNm7ocJrFBICkBpCILAwLhIoBUDFe9iBYCgRFAKgaGMvID6c3Oug063adq1aoybtw46du3b+R5kCAEIAABCEDAVQL777+/d1724Ycf7mqIxAWBtASQiiwQCISLAFIxXPUiWggERgCpGBjKyA+knQ5vvPFG2jz1gparrrpKbrrppsjzIEEIQAACEICAawS2bdsmNWrU8P4j4H777edaeMQDgYwJIBUzRsWDEHCCAFLRiTIQBAQKTwCpWHjmYZ2xc+fOMnPmzJ3C17MWd911V++8xZ9//tk7T/H1118Pa5rEDQEIQAACEAglgbKyMjn00ENl06ZN8pvf/CaUORA0BAwBpCJrAQLhIoBUDFe9iBYCgRFAKgaGMvIDvfrqq3LeeefJgQce6N3ufMghh8hhhx3m/fmAAw5I/N9rr70mnTp1kpUrV9IlEflVQYIQgAAEIOACgdWrV8upp54qX331lQvhEAMEciaAVMwZIQNAoKAEkIoFxc1kEHCHAFLRnVpEKZJ//OMf0rBhQ+/SltNOOy1KqZELBCAAAQhAwCkC+h/zevfuLe+//75TcREMBHIhgFTMhR7vQqDwBJCKhWfOjBBwggBS0YkyRDaI008/Xf7whz/I0KFDI5sjiUEAAhCAAASKReDZZ5/1zjFeunRpsUJgXgjkhQBSMS9YGRQCeSOAVMwbWgaGgNsEkIpu1ycK0V1xxRXy9ddfy0MPPRSFdMgBAhCAAAQg4ASBRx55RB577DGZN2+eE/EQBASCJIBUDJImY0Eg/wSQivlnzAwQcJIAUtHJskQuqIcfflhuvfVWWbVqVeRyIyEIQAACEIBAoQlMmjTJuxRN//eVDwSiSACpGMWqklOUCSAVo1xdcoNAGgJIRZZHoQi8++670qBBA3nnnXe88xb5QAACEIAABCBQeQI33HCD6NnFd9xxR+Vf5g0IhIQAUjEkhSJMCPwfAaQiSwECMSVQTKn45JNPSocOHeSZZ56Rs88+O6YViF/aRx99tAwZMkT+53/+J37JkzEEIAABCEAgBwKXX3657LHHHjJ69OgcRuFVCLhPAKnofo2IEAI2AaQi6wECMSWQTipu27ZNdHvNbbfdJt98843ssssu0rFjRxk3bpwcdNBBORObO3eunH/++aIxNGnSJOfxGCA8BHr06CH77ruvt5b4QAACEIAABCBQMYFevXrJkUce6f2HOT4QiDoBpGLUK0x+USOAVIxaRckHAhkSSCUVd+zYIf3795cpU6ZI9+7dpW3btvLpp5/K2LFjZb/99pMXXnhBateuneEs/37s119/FR23SpUq3t+XL1/udSo+/fTTie2w27dvl9122030HyT4RJvA+PHj5bnnnvPWEh8IQAACEIAABFITOO+88+Sss86Siy++GEwQiAUBpGIsykySESKAVIxQMUkFApUhkEoqLl68WE455RTRc3uGDRuWkHwrV66UU0891esw1LN8KiP/9PyfFi1ayK677ur9Q3G9evVk5MiRMmHCBFm0aJHMnj1bfvnlF1myZIknLvlEn8DChQula9euouuqtLQ0+gmTIQQgAAEIQKCSBE4++WQZOHCgtG/fvpJv8jgEwksAqRje2hF5PAkgFeNZd7KGgLf1+NprrxWViPZn0KBBMnPmTFm6dKnUrVs38S3tNtR/sJ03b573vQMPPDBjiuvXrxftTvv888/l7bfflo0bN8qPP/4oe+65p+yzzz7SqFEjTzQOHToUqZgx1fA/uGHDBq9T9f7775fTTz89/AmRAQQgAAEIQCAgAsccc4z3z04nnXRSQCMyDATCQQCpGI46ESUEDAGkImsBAjElkEwqqug799xz5V//+pcnD0tKSsrReeSRR6Rnz55ed6F2Hmbz2bJlizfHRx995J0PpF2K1atXz2Yo3okIgTZt2oh2Y1x55ZURyYg0IAABCEAAAtkTOOSQQ+Spp54SveCMDwTiRgCpGLeKk2/YCSAVw15B4odAlgSSSUXdptysWTNPGE6fPn2nkfUcPD1jMdtbm815ja+++qpMnTpVOnXqJJ07d5bbb7+9Utups0yZ1xwmcNVVV8nf//53UXHNBwIQgAAEIBBXAnvvvbe88847UqdOnbgiIO+YE0AqxnwBkH7oCCAVQ1cyAoZAMASSScWysjJp2rSptG7dOqlU1AtWWrZsKZMnT5YLL7yw0oFoV6JKxJtuusnrSrvmmmu8P8+YMcO7uIVPvAk8+uijMmbMGO+cRb1xnA8EIAABCEAgLgQ2bdrkHQmzefNmdnDEpejkmZQAUpGFAYFwEUAqhqteRAuBwAgUWirqmYy6bfrWW2+Vu+++W3Rrj56xOHjwYBkyZIiceOKJdCsGVt3wDvTee+955yy+9dZboudJ8YEABCAAAQhEnYD+81Djxo29M6f5QCDuBJCKcV8B5B82AkjFsFWMeCEQEIFkUvHbb7+VVq1aybHHHpuX7c8Bhc4wMSCgl/f86U9/kh49esQgW1KEAAQgAIG4EtAL7Dp27Chr1qyJKwLyhkA5AkhFFgQEwkUAqRiuehEtBAIjUKyLWgJLgIEiT0AvBdKtYHr7JR8IQAACEIBA1Ai89NJLcsUVV4geL8MHAhD4NwGkIisBAuEigFQMV72IFgKBEUgmFXXwESNGyH333SdLly6VunXrJubT7csDBw70boXW7x144IGBxcJAEEhFQC/x0TX34osvAgkCEIAABCAQGQJ6zvRdd93F/75FpqIkEhQBpGJQJBkHAoUhgFQsDGdmgYBzBFJJxWXLlnkXtVx33XUybNiwxDmHn376qXdJi97+fM8998h//ud/iorGp59+Wr755hvp3r27VK1a1cvz448/lieeeEIuuugiOeigg5zLnYDCRUA7Oc4//3zvApcDDjggXMETLQQgAAEIQMBHYNq0afLcc8/JrFmzYAMBCPgIIBVZEhAIFwGkYrjqRbQQCIxAKqmoonDo0KGiHWLdunXzJKJKQ72VVz8qeOrXr+/92dwWvW7dOpk/f76cccYZ3tf1HLwHH3xQevXqJVOnTg0sZgaKLwE971MvcNH1ZNZZfGmQOQQgAAEIhJXAbbfdJh9++CH/fBTWAhJ33gkgFfOOmAkgECgBpGKgOBkMKMSleAAAIABJREFUAuEhkEoqagY7duyQe++91xOJX331leyyyy7Spk0bTzQedthhiSS3bt0qnTt3lhUrVpSTjRMmTJDLL7/c62js3bt3eKAQqfMEVHLrZUJXXXWV87ESIAQgAAEIQMAm8Oc//1n++c9/ytixYwEDAQikIIBUZGlAIFwEkIrhqhfRQiAwAumkYmCTMBAE8kBAt+Vrd+yjjz6ah9EZEgIQgAAEIBA8gf79+3tHeOjZ1XwgAIHUBJCKrA4IhIsAUjFc9SJaCARGAKkYGEoGKgKBxx57TG644QZZtWqV7LrrrkWIgCkhAAEIQAACmRG48MILpXnz5tKvX7/MXuApCMSYAFIxxsUn9VASQCqGsmwEDYHcCSAVc2fICMUlsHr1amnQoIH87W9/k0aNGhU3GGaHAAQgAAEIJCGgx3boGdVdu3aFDwQgkAEBpGIGkHgEAg4RQCo6VAxCgUAhCSAVC0mbufJJoHHjxjJgwADvtnE+EIAABCAAAVcINGvWTEaOHMkFY64UhDhCQQCpGIoyESQEEgSQiiwGCMSUAFIxpoWPaNoXX3yxVK9e3btMiA8EIAABCECg2ATq168v9913n5xwwgnFDoX5IRAqAkjFUJWLYCEgSEUWAQRiSgCpGNPCRzhtvXX8mWee8W4i5wMBCEAAAhAoFoHS0lJZtGiRHH744cUKgXkhEFoCSMXQlo7AY0oAqRjTwpM2BJCKrIEoEtB/ievYsaOsXLlSDjrooCimSE4QgAAEIOAogZ9//ln23ntv+eKLL2T//fd3NErCgoDbBJCKbteH6CDgJ4BUZE1AIKYEkIoxLXwM0t64caM0bNhQ7r33XtED8vlAAAIQgAAE8k2grKxM6tatK5s3b5bf/OY3+Z6O8SEQWQJIxciWlsQiSgCpGNHCkhYEKiKAVKyIEN8PO4EzzzxTWrRoIcOHDw97KsQPAQhAAAIOE/jggw/klFNOka+++srhKAkNAuEggFQMR52IEgKGAFKRtQCBmBJAKsa08DFL++qrr5Y1a9bI448/HrPMSRcCEIAABApB4LXXXpNLLrlEVq9eXYjpmAMCkSeAVIx8iUkwYgSQihErKOlAIFMCSMVMSfFc2Ak88cQTMmrUKO+cxd122y3s6RA/BCAAAQg4QmD+/Ply4403ytKlSx2JiDAgEH4CSMXw15AM4kUAqRivepMtBBIEkIoshjgR0K1pes6idpQce+yxcUqdXCEAAQhAIA8EHnnkEXn00Ufl2WefzcPoDAmB+BJAKsa39mQeTgJIxXDWjaghkDMBpGLOCBkghASaNGkiffv2lYsvvjiE0RMyBCAAAQi4QODOO++UZcuWycMPP+xCOMQAgUgRQCpGqpwkEwMCSMUYFJkUIZCMAFKRdRFXAr169ZKSkhL5y1/+ElcE5A0BCEAAAlkSuOGGG+Trr7+WSZMmZTkCr0EAAukIIBVZHxAIFwGkYrjqRbQQCIwAUjEwlAwUQgITJ06UJ598UhYvXhzC6AkZAhCAAASKQWDo0KFStWpVGT16dDGmZ04IxIIAUjEWZSbJCBFAKkaomKQCgcoQQCpWhhbPRpGA/gy0b9/eu8ClVq1aUUyRnCAAAQhAICAC2uV+xBFHyOWXXx7QiAwDAQgkI4BUZF1AIFwEkIrhqhfRQiAwAkjFwFAyUIgJbNq0ybvA5a677pKzzjorxJkQOgQgAAEI5ItAhw4d5Mwzz+Q83nwBZlwIWASQiiwHCISLAFIxXPUiWggERgCpGBhKBooAgbPPPltOOOEEufrqqyOQDSlAAAIQgEBQBE4++WQZMGCAnHfeeUENyTgQgEAaAkhFlgcEwkUAqRiuehEtBAIjgFQMDCUDRYTAiBEj5NNPP5UnnngiIhmRBgQgAAEI5EKgUaNGMm7cODnppJNyGYZ3IQCBShBAKlYCFo9CwAECSEUHikAIECgGAaRiMagzp+sEZsyYIddcc42sWrVKqlSp4nq4xAcBCEAAAnkicMghh3gXeh1zzDF5moFhIQCBZASQiqwLCISLAFIxXPUiWggERgCpGBhKBooYgY8++kgaNGggS5YskSZNmkQsO9KBAAQgAIGKCNSoUUNWrFghderUqehRvg8BCARMAKkYMFCGg0CeCSAV8wyY4SHgKgGkoquVIS5XCBx33HHSp08fueSSS1wJiTggAAEIQCCPBDZv3iwqFPUSr7333juPMzE0BCCQigBSkbUBgXARQCqGq15EC4HACCAVA0PJQBEm0Lt3b6latapMnDgxwlmSGgQgAAEIfP7556JnKKpQ5AMBCBSPAFKxeOyZGQLZEEAqZkONdyAQAQJIxQgUkRQKQuCOO+6QWbNmif7M8IEABCAAgegR0K3OHTp0kDVr1kQvOTKCQMgIIBVDVjDCjT0BpGLslwAA4koAqRjXypN3NgReeeUVOeecc7wLXA4++OBshuAdCEAAAhBwkMBLL70kQ4cOlbffftvB6AgJAvEjgFSMX83JONwEkIrhrh/RQyBrAkjFrNHxYkwJbNmyxbvAZdKkSXL22WfHlAJpQwACEIgOAb3d+c4775QXX3wxOkmRCQRCTgCpGPICEn7sCCAVY1dyEobAvwkgFVkJEMiOgHYs6iUuf/7zn7MbgLcgAAEIQKDoBKZNmybz58+X2bNnFz0WAoAABP4/AaQiqwEC4SKAVAxXvYgWAoERQCoGhpKBYkhg5MiR8uGHH8rMmTNjmD0pQwACEAg3gXHjxskHH3wgU6dODXciRA+BCBJAKkawqKQUaQJIxUiXl+QgkJoAUpHVAYHcCOjlLSNGjJCVK1fK7rvvnttgvA0BCEAAAgUhoP9RaNu2bXLbbbcVZD4mgQAEKkcAqVg5XjwNgWITQCoWuwLMD4EiEUAqFgk800aKwMcffywNGzaUxYsXy/HHHx+p3EgGAhCAQNQIDBgwQPbff3+Or4haYcknUgSQipEqJ8nEgABSMQZFJkUIJCOAVGRdQCA4Ak2bNpVevXpJ7969gxuUkSAAAQhAIDAC3bp1kxNOOEH69+8f2JgMBAEIBE8AqRg8U0aEQD4JIBXzSZexIeAwAaSiw8UhtFAS6NOnj1SpUsW7HZoPBCAAAQi4Q+DMM8+Url27yoUXXuhOUEQCAQgkJYBUZGFAIFwEkIrhqhfRQiAwAkjFwFAyEAQSBO688055/PHH5dVXX4UKBCAAAQg4QKB58+be+bdt27Z1IBpCgAAEKiKAVKyIEN+HgFsEkIpu1YNoIFAwAkjFgqFmopgRWLJkiWhXjF7gUqdOnZhlT7oQgAAE3CFwxBFHeDc8N2vWzJ2giAQCEEhLAKnIAoFAuAggFcNVL6KFQGAEkIqBoWQgCOxE4Pvvv/cucJkwYYKce+65EIIABCAAgQITOOCAA+TFF1+U+vXrF3hmpoMABHIhgFTMhR7vQqDwBJCKhWfOjBBwggBS0YkyEETECbRr104aN24sI0eOjHimpAcBCEDADQL//Oc/Ze+995Y1a9ZIaWmpG0ERBQQgkDEBpGLGqHgQAk4QQCo6UQaCgEDhCSAVC8+cGeNJ4JprrpHVq1fLrFmz4gmArCEAAQgUiMDXX3/tHTuxefNm2X333Qs0K9NAAAJBEkAqBkmTsSCQfwJIxfwzZgYIOEkAqehkWQgqogRmz54tw4YNk1WrVknVqlUjmiVpQQACECgegQ8//FBOOukkKSsrK14QzAwBCORMAKmYM0IGgEBBCSAVC4qbySDgDgGkoju1IJJ4EPj000+lQYMG8tJLL0nTpk3jkTRZQgACECgAgWXLlsnFF18sH3zwQQFmYwoIQCCfBJCK+aTL2BAIngBSMXimjAiBUBBAKoaiTAQZQQInnHCC9OzZU/74xz9GMDtSggAEIFBYAs8995yMHj1aXnvttcJOzGwQgEBeCCAV84KVQSGQNwJIxbyhZWAIuE0Aqeh2fYgu2gQuvfRS2XXXXeXOO++MdqJkBwEIQCCPBB599FF5+OGHZf78+XmchaEhAIFCEkAqFpI2c0EgdwJIxdwZMgIEQkkAqRjKshF0hAjcddddov9CvGTJkghlRSoQgAAECkNAf4cuXbpUHnnkkcJMyCwQgEBBCCAVC4KZSSAQGAGkYmAoGQgC4SKAVAxXvYg2mgT0X4jbtGnjXeByyCGHRDNJsoIABCAQMIEbb7xRvvrqK7q9A+bKcBBwgQBS0YUqEAMEMieAVMycFU9CIFIEkIqRKifJhJjA1q1bvQtcxo8fL+3atQtxJoQOAQhAIP8ErrjiCvnNb34jN9xwQ/4nYwYIQKDgBJCKBUfOhBDIiQBSMSd8vAyB8BJAKoa3dkQeTQLt27eXo48+Wq699tpoJkhWEIAABHIkcMkll8jhhx8uQ4cOzXEkXocABFwlgFR0tTLEBYHkBJCKrAwIxJQAUjGmhSdtpwlcd9118u6778rs2bOdjpPgIAABCBSaQMeOHeWMM86QXr16FXpq5oMABApIAKlYQNhMBYEACCAVA4DIEBAIIwGkYhirRsxxIPDkk0/KlVdeKStXrpQ999wzDimTIwQgAIG0BE455RTp16+fdOjQAVIQgEDECSAVI15g0oscAaRi5EpKQhDIjABSMTNOPAWBYhD47LPPpGHDhrJgwQJp1qxZMUJgTghAAAJOEGjcuLGMHTtWTj75ZCfiIQgIQCC/BJCK+eXL6BAImgBSMWiijAeBkBBAKoakUIQZawLNmzeX7t27y6WXXhprDiQPAQjEk0DdunVl1qxZ0qhRo3gCIGsIxJAAUjGGRSflUBNAKoa6fAQPgewJIBWzZ8ebECgkgb59+3rT3X333YWclrkgAAEIFJXAPvvsI8uXL5dDDjmkqHEwOQQgUFgCSMXC8mY2CORKAKmYK0Heh0BICSAVQ1o4wo4lgXvuuUcefPBBee2112KZP0lDAALxIbBlyxbZe++9ZePGjVKjRo34JE6mEICARwCpyEKAQLgIIBXDVS+ihUBgBJCKgaFkIAgUhMCyZcvkD3/4g3eBy6GHHlqQOZkEAhCAQCEJfPHFF3L00UfL5s2bCzktc0EAAg4RQCo6VAxCgUAGBJCKGUDiEQhEkQBSMYpVJaeoE/jxxx+9C1xuvfVWOe+886KeLvlBAAIxIvDOO+9I+/bt5fPPP49R1qQKAQj4CSAVWRMQCBcBpGK46kW0EAiMAFIxMJQMBIGCE+jQoYMcddRRct111xV8biaEAAQgEDSBRYsWyZAhQ2TFihVBD814EIBAyAggFUNWMMKNPQGkYuyXAADiSgCpGNfKk3dUCIwaNUq0s+epp56KSkrkAQEIxJCA/g6744475KWXXoph9qQMAQj4CSAVWRMQCBcBpGK46kW0EAiMAFIxMJQMBIGiEZgzZ47X3bNq1SopKSkpWhxMDAEIQCAbAvfdd5/MmzdPnnzyyWxe5x0IQCCCBJCKESwqKUWaAFIx0uUlOQikJoBUZHVAIBoE9PyxBg0ayF//+ldp3rx5NJIiCwhAIPIExo8fL++//75MmzYt8rmSIAQgkDkBpGLmrHgSAi4QQCq6UAVigEARCCAViwCdKSGQRwItWrSQrl27Sr9+/fI4C0NDAAIQyJ3AyJEj5aeffpJx48blPhgjQAACkSKAVIxUOUkmBgSQijEoMilCIBkBpCLrAgLRI9C/f3/55Zdf5J577olecmQEAQhEgsDAgQNlv/32kz//+c+RyIckIACBYAkgFYPlyWgQyDcBpGK+CTM+BBwlgFR0tDCEBYEcCdx7773ywAMPyLJly3IcidchAAEIBEugW7du0rRpUxkwYECwAzMaBCAQGQJIxciUkkRiQgCpGJNCkyYE/ASQiqwJCESXwOuvvy4nn3yyd4HLf/3Xf0U3UTKDAARCQ+Css86SCy64QC688MLQxEygEIBA4QkgFQvPnBkhkAsBpGIu9HgXAiEmgFQMcfEIHQIZENi2bZt3gcvNN98sHTp0yOANHoEABCCQHwJ6idTVV18tZ555Zn4mYFQIQCAyBJCKkSklicSEAFIxJoUmTQj4CSAVWRMQiAeBjh07yhFHHCHXX399PBImSwhAwCkCRx55pEyZMkWaNWvmVFwEAwEIuEkAqehmXYgKAqkIIBVZGxCIKQGkYkwLT9qxJDB69GhZvny5zJkzJ5b5kzQEIFAcAgcccIAsXLjQ+w8bfCAAAQhkQgCpmAklnoGAOwSQiu7UgkggUFACSMWC4mYyCBSdwNNPPy2XXXaZrFy5UqpVq1b0eAgAAhCILoF//vOfUqNGDfnss8+ktLQ0uomSGQQgEDgBpGLgSBkQAnklgFTMK14Gh4C7BJCK7taGyCCQLwJffPGFNGzYUJ599llp0aJFvqZhXAhAIMYE/vGPf0jt2rVl06ZNUrVq1RiTIHUIQCAbAkjFbKjxDgSKRwCpWDz2zAyBohJAKhYVP5NDoKgETjzxROnSpYv079+/qHEwOQQgEC0CH374obRu3Vq+/vrraCVGNhCAQMEIIBULhpqJIBAIAaRiIBgZBALhI4BUDF/NiBgCQRIYMGCAbN++XSZPnhzksIwFAQjElMDrr78uF110kXzwwQcxJUDaEIBAEASQikFQZAwIFI4AUrFwrJkJAk4RQCo6VQ6CgUBRCOiNrNOmTROVAXwgAAEIZEvgueee826YX7ZsWbZD8B4EIAABjwBSkYUAgXARQCqGq15EC4HACCAVA0PJQBAINYE33njD266oF7gcdthhoc6F4CEAgcITeOyxx+Shhx6S+fPnF35yZoQABCJHAKkYuZKSUMQJIBUjXmDSg0AqAkhF1gYEIGAI/Pzzz94FLjfccIN06tQJMBCAAAQyInDXXXfJkiVL5NFHH83oeR6CAAQgUBEBpGJFhPg+BNwigFR0qx5EA4GCEUAqFgw1E0EgNAQ6d+4sv//972X06NGhiZlAIQCB4hC46aab5Msvv5Q777yzOAEwKwQgEEkCSMVIlpWkIkwAqRjh4pIaBNIRQCqyPiAAgWQEtFvxb3/7mzzzzDMAggAEIJCUwBVXXCFVqlSRG2+8EUIQgAAEAiWAVAwUJ4NBIO8EkIp5R8wEEHCTAFLRzboQFQRcIDB37lzR26FXrVol1atXdyEkYoAABBwh0Lt3b6+jeejQoY5ERBgQgECUCCAVo1RNcokDAaRiHKpMjhBIQgCpyLKAAATSEVi3bp00aNDA61hs2bIlsCAAAQhIx44dpU2bNnLJJZdAAwIQgEBeCCAV84KVQSGQNwJIxbyhZWAIuE0Aqeh2fYgOAq4QaNWqlScSBg4c6EpIxAEBCBSBwKmnnip9+/aVDh06FGF2poQABOJCAKkYl0qTZ1QIIBWjUknygEAlCSAVKwmMxyEQYwKDBg2Sbdu2yZQpU2JMgdQhEF8CjRs3lltvvVVOOeWU+EIgcwhAoCAEkIoFwcwkEAiMAFIxMJQMBIFwEUAqhqteRAuBYhOYOnWqTJ482bvEhQ8EIBAfAoceeqjMnDlTGjVqFJ+kyRQCECgaAaRi0dAzMQSyIoBUzAobL0Eg/ASQiuGvIRlAoNAE3nzzTWnRooV3gYte1MAHAhCINoF99tlH3nrrLalbt260EyU7CEDAGQJIRWdKQSAQyIgAUjEjTDwEgegRQCpGr6ZkBIFCENi+fbt3gcv1118vnTt3LsSUzAEBCBSYwJYtW6RGjRry3Xffef+fDwQgAIFCEUAqFoo080AgGAJIxWA4MgoEQkcAqRi6khEwBJwicP7558t//dd/yY033uhUXAQDAQjkRmDt2rXSsGFD2bRpk+i/3POBAAQgUEgCSMVC0mYuCOROAKmYO0NGgEAoCSAVQ1k2goaAUwRuuukmWbZsmcydO9epuAgGAhDIjsA777wj7dq1ky+++CK7AXgLAhCAQI4EkIo5AuR1CBSYAFKxwMCZDgKuEEAqulIJ4oBAuAnMmzdP+vXrJytXrmSbZLhLSfQxJ7B48WIZPHiwrFixIuYkSB8CECgmAaRiMekzNwQqTwCpWHlmvAGBSBBAKkaijCQBAScIrF+/3tsu+dRTT0mrVq2ciIkgIACBzAnoz+7EiRNl0aJFmb/EkxCAAATyQACpmAeoDAmBPBJAKuYRLkNDwGUCSEWXq0NsEAgngdatW8t5550ngwYNCmcCRA2BGBK4//77vSMMnnzyyRhmT8oQgIBrBJCKrlWEeCCQngBSkRUCgZgSQCrGtPCkDYE8E/jTn/4kW7dulWnTpuV5JoaHAARyJTB+/Hh577335L777st1KN6HAAQgEAgBpGIgGBkEAgUjgFQsGGomgoBbBJCKbtWDaCAQJQIqKO6++2558803o5QWuUAgUgSuueYa+fHHH2XcuHGRyotkIACBcBNAKoa7fkQfPwJIxfjVnIwh4BFAKrIQIACBfBJ46623pFmzZt4FLvXr18/nVIwNAQhUkoAeUVCzZk0ZOXJkJd/kcQhAAAL5JRCEVNR/z+nevbvUrVtX9EK5kpKS/AbN6BCIMQGkYoyLT+rxJoBUjHf9yR4ChSCwY8cO7wKXa6+9Vs4///xCTMkcEIBABQT0X7SPO+44GThwIKwgAAEIOEcgF6mo/9xx++23y4gRI+SXX36Rli1bIhWdqzABRY0AUjFqFSUfCGRIAKmYISgegwAEcibQpUsXr1vgpptuynksBoAABLIncPbZZ3uCv1u3btkPwpsQgAAE8kggW6m4ceNG6d27t3fx1NSpU2XhwoWybt06pGIea8XQEFACSEXWAQRiSgCpGNPCkzYEikRgzJgxsmTJEnn22WeLFAHTQiDeBFq0aCHDhg2Ts846K94gyB4CEHCaQLZSccuWLTJgwADR4x2aNGkiPXr0kLVr1yIVna42wUWBAFIxClUkBwhkQQCpmAU0XoEABHIiMH/+fOnTp4+sWrVK9tlnn5zG4mUIQCBzAv/93/8t9957rzRv3jzzl3gSAhCAQBEIZCsV/aEiFYtQPKaMJQGkYizLTtIQ4KIW1gAEIFAcAl9++aU0aNBAZs2aJSeddFJxgmBWCMSIwIEHHigLFiyQI488MkZZkyoEIBBWAkjFsFaOuONKAKkY18qTd+wJZNKpyM1psV8mAIBA3gj8P/beBMyK6trbX4mobdsKIsoggwRBEEGGoHGAKAgKQS7BQGwFRSZBHFBpHJBRQaRRcEDQIGLA2whXJEpQQcGAEYlhECRMGmQIgwwytG2L+vk9a5t13Ke6qk7VGXfV+dXz/J/b3adq77XfVQe/vP+19m7dujV16tSJBg0alLI5MDAIZDOB48eP0xlnnEFbt26latWqZTMKrB0EQCBABCAVA5QshAoC2FMR7wAIZC8BN6mIk9Oy973AykEgnQTuuece4j2Qpk+fns5pMRcIhJ7Al19+STVq1KCvvvqKcnNzQ79eLBAEQCA8BCAVw5NLrCQ7CKBSMTvyjFWCQBkCTlIRJ6fhZQEBEEgngZdeeomeffZZWrVqVTqnxVwgEFoCmzdvplatWtG+fftCu0YsDARAILwEIBXDm1usLJwEIBXDmVesCgRiEnCSijg5LSY63AACIJBkAqtXr6aLL75YHeBywQUXJHl0DAcC2UNg5cqV6sTTTZs2Zc+isVIQAIFQEYBUDFU6sZgsIACpmAVJxhJBwI6Alz0V+TmcnIb3BwRAIB0EfvjhB3WAy8MPP0z5+fnpmBJzgECoCLz99ts0cuRI+uijj0K1LiwGBEAguwhAKmZXvrHa4BOAVAx+DrECEIiLAKRiXNjwEAiAQIoJ3HjjjVSzZk0aN25cimfC8CAQHgKzZ8+ml19+md56663wLAorAQEQyEoCkIpZmXYsOsAEIBUDnDyEDgKJEIBUTIQengUBEEglgccff5z436iFCxemchqMDQKhIDBlyhRatmwZFRUVhWI9WAQIgEB2E4BUzO78Y/XBIwCpGLycIWIQSAoBSMWkYMQgIAACKSLAFVd9+vShTz75hCpVqpSiWTAsCASbwGOPPUY7d+6k5557LtgLQfQgAAIg8F8CkIp4FUAgWAQgFYOVL0QLAkkjAKmYNJQYCARAIEUEdu/eTRdddBG9+uqr1Lp16xTNgmFBIJgEhgwZQuXKlaOxY8cGcwGIGgRAAAQsBPjAyEsuuYT40Kny5cuDDwiAQAAIQCoGIEkIEQRSQQBSMRVUMSYIgEAqCLRp04Y6duxI99xzTyqGx5ggEDgC/fr1o7p161JBQUHgYkfAIAACIOBEoH379nTFFVfQ8uXLiQ+fwgUCIGA+AUhF83OECEEgJQQgFVOCFYOCAAikiMC9995Lhw4dohkzZqRoBgwLAsEg0LVrV2rXrh317ds3GAEjShAAARDwQICF4t13303XXnstvfPOOzRx4kSIRQ/ccAsIZJoApGKmM4D5QSBDBCAVMwQe04IACMRNgE+3feqpp2j16tVxj4EHQSDIBNq2bUu33XYb/eEPfwjyMhA7CIAACEQR0IWifACxiJcEBIJBAFIxGHlClCCQdAKQiklHigFBAATSQGDNmjX061//Wh3gcuGFF6ZhRkwBAmYQ4Pd+3LhxdPXVV5sREKIAARAAgSQQsBOKEItJAIshQCBNBCAV0wQa04CAaQQgFU3LCOIBARDwSuD//b//pw5wefDBB+nGG2/0+hjuA4HAEjjvvPPUgUXNmzcP7BoQOAiAAAhYCbgJRYhFvC8gEAwCkIrByBOiBIGkE/AqFZM+MQYEARAAgSQRuOmmm6h69er0+OOPJ2lEDAMC5hE488wz6R//+AfVqVPHvOAQEQiAAAjEScCLUIRYjBMuHgOBNBKAVEwjbEwFAiYRgFQ0KRuIBQRAIF4C48ePpyVLlmAz93gB4jljCRw9epTOOOMM2r9/P1WsWNHYOBEYCIAACPglMGvWLLU/8pNPPun50cGDB1OTJk2oe/funp/BjSAAAqknAKmYesaYAQSMJACpaGRaEBQIgEAcBHgz91tvvVXts3jWWWfFMQLDcPbWAAAgAElEQVQeAQGzCOzYsYMaNWpEX331Ff3yl780KzhEAwIgAAJJIODnIBY/VY1JCA1DgAAI+CAAqegDFm4FgTARgFQMUzaxFhAAgT179qh9Fv/3f/8XB1ngdQg0AZbjnTp1ou3btwd6HQgeBEAABGIR8CIWIRRjUcTnIJBZApCKmeWP2UEgYwQgFTOGHhODAAikkEDbtm3p2muvpfvuuy+Fs6R+6Hnz5tH1119Pb7zxBl133XWpnxAzGEGA/9t8991309q1a42IB0GAAAiAQKoJuIlFCMVU08f4IJA4AUjFxBliBBAIJAFIxUCmDUGDAAh4IMD7LvE+dC+//LKHuxO7ZcuWLfTHP/6RDh06RB999BFVrVo1sQH/+/Sbb76pxuV/q1u0aJGUMTFIbALMu0ePHvSrX/2KFixYQHl5ebEfStId8+fPp0mTJtH777+fpBExDAiAAAgEg4CdWIRQDEbuECUIQCriHQCBLCUAqZiliceyQSBLCPz5z39WG8CnquLrxx9/pFdffZV69+5N33zzDdWoUSMhqcjjfffdd3TSSSepDK1atUpVKv7lL39Rbd18HT9+nE488UT6xS9+kSVZTN8ymf3EiRNp6NCh9MMPP1CrVq3SKhVnzJihcv3666+nb9GYCQRAAAQMIqCLRQhFgxKDUEAgBgFIRbwiIJClBCAVszTxWDYIZBEB3puOT4pct26dOvQiWRdLRJZPXFU2evRoNeyf/vSnhKTivn376IorrqATTjiBevXqRXXr1qVhw4apOZYuXUqvvfaakl0ffPABVa5cOVlLwThEqsq0b9++xNWh06ZNo3fffZf4oJR0VSqyzOR39KWXXkI+QAAEQCCrCaxcuZIGDBhAzz33HP3mN7/JahZYPAgEhQCkomGZQvWBYQlBOCAAAkYS4KouXCDglUDjxo1pyJAh1L17d6+PuN7HVW3cYt2mTRu13+H48ePV/wBKpP15586dqrJy27ZttHr1aiW6vv76azr11FOpYsWK1KxZMyUaeV5IxaSkMTLIkSNH6I477qC77rpLtZrfcsst6pCUdEjFESNG0LFjx1TucYEACJQlMHLkSBo1ahTQgAAIhJgA/7eQv+u4gkkAUtGwvLFU/OjwBMOiQjggAAIgYA6B31QYTJCK5uQjKJHwPnlVqlShwsLCpIf8+OOPJywV9aBYcv3P//wPbd68mRo2bKiqFMuXL5/0uDGgPYF0SUWWmJUqVaLhw4cjFSAAAg4EWDT8v3/OomG/qwNGIAACISTwyF8/p1/+ujukYoBzC6loWPIgFQ1LCMIBARAwjgCkonEpCUxAEyZMoMWLFxPv25TMK5lSkasgBw4cSMuXL1etuF27dqVu3bqp/f7QzZDMrDmPlQ6pePPNN6uqyDvvvDM9i8IsIBBQApCKAU0cwgYBjwQgFT2CMvg2SEXDkgOpaFhCQhLO6AFFtPqDz2na4ruoUpXTU7qqkuJvafAN09UcE2b3oty8k1M6HwbPPgKQitmX82SueNGiRcRCh/dbTFYbcTKlIlclskQcO3asatnmKjb+ec6cOergFlypJ5Bqqcgt85xjrp7FBQIg4E4AUjEcb0ivl9fTrJV7ohbTqu4ZNH9AU8rLKee4yAXrvqQuU9fSvP5NqGPjs8MBA6uIIgCpGPwXAlLRsBxCKhqWkJCEA6kYkkRiGYoApCJehEQJ8KEofKLyzJkzqW3btokOR8mSitzWz4ey8B6NU6ZModq1a6s9Fu+55x669957qWXLlqhWTDhbsQdIpVTkHN5///3UsWPH2IHgDhAAAdUSifbn4L8ILBWXbf2KlhdcQlXLn0wiC8d0rksF7WoHf4FYQdwEIBXjRmfMg5CKxqTip0AgFQ1LSEjCiSUVN63dRf07PEelJcfViguLbqWW7Ruqn90+43EXFq1S91WpUUFVQnJlIioVQ/LiGLoMSEVDExPAsNq1a0f8//HhJ4lcyZKKicSAZ5NHIFVS8cILL6SpU6eqU75xgQAIeCMAqeiNk+l3WaVicen31HnKGhU2Vytu+bKEWj/5MZUc/0H9TWSjtVJx9Y6jUfehgtH0zMeOD1IxNiPT74BUNCxDkIqGJSQk4bhJRZGGvYdcTT0GtaaZk5bQi+PfpakLb1et0n3aPk3X975MfaaPs3HNTiqavEy1OO/4bL+Skq3/pxENLuwCqRiS98bUZUAqmpqZYMZVUFBAe/fuVVWL8V6QivGSM/O5VEjF6tWrq708+eAdXCAAAt4JQCp6Z2XynW5ScVavRtR9+noa1KaWanHme+et+ZKW3NuCdh8ujbQ/X1mvYpSIvOvVjVHVjyavH7E5E4BUDP7bAaloWA4hFQ1LSEjCcZOKukSs36Q6Hdh7VInEZlfUoas6NaZhvV9RgpE/s7v0asUO+c0hFUPyzpi8DEhFk7MTzNhmzZqlToXmfRbjuSAV46Fm7jPJlIp88E6FChVoy5YtdM4555i7aEQGAoYSgFQ0NDE+w/LS/qxXIeaedIKjVOQ2ai/7MfoMEbdniACkYobAJ3FaSMUkwkzGUJCKyaCIMawE3KSi9TNdKtY+v3KkatEqFVlGTh65kFgk3j7idxERiUpFvH+pJgCpmGrC2Tn+unXr1D6La9euVf/Xz+UmFXmfxL/85S/05ZdfqoM5TjnlFDU0S6ZXX32Vbr31VuIqNlzmEEiWVOScc24PHz5Mubm55iwQkYBAgAhAKgYoWS6h2h3U0v2SqjT9lka058i31LJwJR0o/k6JxPc2HaQxC/9dRipyFaO0Q8tUkIvBfz8gFYOfQ0hFw3IIqWhYQkISTiKVigX5L0XtschIrCc88+9S3QipGJKXxuBlQCoanJwQhNakSRO67777fJ3M6yYV9+zZQ7/5zW9ox44dtHDhQmrfvr2ixOLqz3/+M/Xu3ZumTZsWAnLhWUIypCJLYz6UhQ8FwgUCIBA/AUjF+NmZ9KS1UlGPzbpvYuGibY5SUZ4TEbnjUGlk/0WT1otYvBOAVPTOytQ7IRUNywykomEJCUk4ie6pyK3Qw6fkR+23OOf55bT6g8/V4Sxvzf5npGoRUjEkL43By4BUNDg5IQnt5ptvprPPPpsmTJjgaUVuUrG4uJi6detGa9asoSVLllCDBg3UmJMmTVLykg/u6Nu3r6d5cFN6CCQqFVeuXEn8Dm3evDk9AWMWEAgxAUjFcCTXTSpK2/PQDr+i7pdUi6pa1PdUbF6rvPqMqxO5wtEqI8NBKvtWAakY/JxDKhqWQ0hFwxISknD0fQ9lSTm5J0X2StRPeNb/zvc6nf5sfaZ8xVw659wz6ZEXb1L7MPLFh7jwadC4QCCZBCAVk0kTYzkReOKJJ+jtt9+mxYsXAxIIeCbAh7GMGDGCPvroI8/P4EYQAAFnApCK4Xg73KQir1Bvj250Th6t/08x8cnOfHWZulb9zO3P1tOfpYU6HJSycxWQisHPO6SiYTmEVDQsIQgHBEDAOAKQisalJLQBvfvuu3TTTTepA1yqVKkS2nViYckhMHv2bJoxY4aS0bhAAASSQwBSMTkcMQoImEoAUtHUzHiPC1LRO6u03AmpmBbMmAQEQCDABCAVA5y8AIbOh23wwS0si6655poArgAhp4MAt7H/7W9/o6KionRMhzlAIGsIQCpmTaqx0CwlAKkY/MRDKhqWQ0hFwxKCcEAABIwjAKloXEqyIqBrr72W2rRpQwUFBVmxXizSO4HHHntMHcQzZcoU7w/hThAAAU8EIBU9YcJNIBBYApCKgU1dJHBIRcNyCKloWEIQDgiAgHEEIBWNS0nWBDRkyBDavXs3zZo1K2vWjIW6E7j//vvphBNOoLFjxwIVCIBACghAKqYAKoYEAYMIQCoalIw4Q4FUjBNcqh6DVEwVWYwLAiAQFgKQimHJZDDX8corr9C4cePUPou//OUvg7kIRJ0UAv369aPzzjuPWDbjAgEQSA0BSMXUcMWoIGAKAUhFUzIRfxyQivGzS8mTLBVxgQAIgAAIuBP48ccfgQgEMkbg008/Vfssrlq1ipo0+el0SlzZRaBbt27Utm1b6tu3b3YtHKsFgTQTYKk4atSoNM+K6UAABNJJYMSIEcTfdVzBJACpaFjeUKloWEIQDgiAgHEEUKloXEqyNqCmTZuqPRZvvPHGrGWQjQtnmchVil27ds3G5WPNIJBWAqhUTCtuTAYCaSeASsW0I0/6hJCKSUea2ICQionxw9MgAALhJwCpGP4cp2uFqIBJF2nM45cAqjb8EsP9YSUAqRjWzGJdIPATAUjF4L8JkIqG5RBS0bCEIBwQAAHjCEAqGpeSwAbE/2P1zf98Qc363BLYNSDw9BI4/vXXdNKpp6Z00tXTXqbrzjkXrWAppYzBg0IAUjEomUKcIBAfAUjF+LiZ9BSkoknZICJIRcMSgnBAAASMIwCpaFxKAhsQpGJgUxfqwCEVQ51eLM4nAUhFn8BwOwgEjACkYsASZhMupKJhOYRUNCwhCAcEQMA4ApCKxqUksAGFWSqWHDhIb/S5g4r37ovKT16VytRp2rOUW+nMpOftu5JvaNHgh9S47SaMpRNzT6Htyz+kw19sp4t65HueT2Kv2uwi+u3wBzw/F5YbIRXDkkmsIxkEIBWTQRFjgIC5BCAVzc2N18ggFb2SStN9kIppAo1pQAAEAksAUjGwqTMu8GyQirqYS7Wss0rFIzt20oL+g6hp7x6Qij7efkhFH7Bwa+gJQCqGPsVYYJYTgFQM/gsAqWhYDv1IxU1rd9GYO+fQxLl9qFKV06NWMnPSElrx7maaMLsX5eadbLvKA3uPUp+2T9N9439PLds3NIwEwgEBEAABewKQingzkkUg26SiXSXhJzOL6OPJf1JIWUBKheGBTVuUEPy+tFR91rbwUarV8jKSv4so5ErExQUPq8+rNW8aqVS84sHB9NadgyOVknU7tFNVh38bPY62LlykxtSrJvX5OI5ju/eqeKRS0SmeZL0LJo0DqWhSNhBLpgn4lYq9Xl5PDarmUUG72lGh7znyLbUsXEmTutWnjo3PdlxW4aJt9M6GAzR/QFPKyymX6eVjfhAIPQFIxeCnGFLRsBz6kYpuoUMqGpZYhAMCIJA0ApCKSUOZ9QNlm1S0VirqQvCsBuerdmkWeZcNvjuqjfnDCU/RntWfqLZpHkOvPnSSiiwnrZWKfO+nRXOVuJTParduFZmPRSLPsX/jZiUqRURaRSaL0DUvzqSOUydRpfr1QvceQyqGLqVYUAIE/EpFp6kgFRNIAh4FgRQSgFRMIdw0DQ2pmCbQXqfxIxWtlYrL39pABfkvUU7uSXTxVXWp+EipqlScUDCPap9fmXoMah0VRqxKRRmPH2p2RR01Fl+Db5hOVWpUoIVFq9TvHfKb0/ApP+2VpD/Df9+787BrtaRXLrgPBEAABIQApCLehWQRyAapaN1TUUQdM+SqQZGFvMci/873X/XIMFo67BH1mV69yM94rVS0k4qSN71akeNp2K1LlKi0yk+rREx1G3ey3q94x4FUjJccngsjAb9SUa9ULC79njpPWUPLtn5FreqeQV8c/EZVKlarkEP9Zm2gNwc2o6rlozu63CoV9fGY9bz+TVTV44J1X9LIBZ8r/Ot2HaPck06gJfe2oGY1Tyf9mcbVT1P3jOxYx7VaMox5xJpAwIkApGLw3w1IRcNyGK9UZEHYv8Nz9MiLN1Hzlucp8cdXvO3PLCyt47FIHFzYJWrsVcs/o2G9X6GpC29XLdjSTu01BsPwIxwQAIEAEIBUDECSAhJiNkhFaSEWkddiYF+1v6G0QrM41C9pSZZqQflM5KJd9aFd+7OdVJRWaxaJLW7vG6mMjCUVrfITUjEgXzCECQJJIJCIVGTBuONQqWplfn/LIeoydW1EBDqF5iYVreN1n75eycPdh0sjY19Zr6ISmTUr5tD0WxqRPp7XGJKADUOAQGAIQCoGJlWOgUIqGpbDeKXixjU7qWjysohE5IpB/Xe7ZbpVKlqf59+fGPI6PTO/Pz1291y69OrzVeUjj3FP12k09JlutH/PEd8xGIYf4YAACASAAKRiAJIUkBCzSSqKiCs9fCTSNmyVdXZp00+RZiF5TovmcbU/X3B956iW6u9KSspIRW6F5j0UUan4Ml13zrnE7ycuEMh2AvFKxQGtaii5N6hNLVUVKBWD8rtfqWh9Xn6/pmElalDlVBo0ZxMtL7hEVT6ySNy4p5ie/mODuGLI9pxj/dlFAFIx+PmGVDQsh25ScfSAoqiW4263tYwc1PLW7H9GHcySqFS07skordZjZ9yspGL+wFbqcBddKn78/hbfMRiGH+GAAAgEgACkYgCSFJAQs0kqckr0SkGWd057KupVhG736QevWA9qsatU1CXm1rcWqQNiuGpR9nDEnoo/fXHQ/hyQf0AQZloIuEnF1TuOUusnP6aS4z9EWo6fXbpdHdTS/ZJqUQezJCoV7fZklFZrloqT3tseOdxFpOKYzvXiiiEtYDEJCBhCAFLRkEQkEAakYgLwUvFoUCoV7aQiKhVT8UZgTBAAASsBSEW8E8kikG1SUW95ltOcvZ7+rO/FqD/Df+fTnO2kIudp0eCHInszNu93K7096AF1onS5nBw6ufzpdPo5VdXBLVK5yHs6xjr9mZ8N6yEtkIrJ+nZjnLAQCEqlop1URKViWN5CrCOVBCAVU0k3PWNDKqaHs+dZ4pWKPIHf/Qzd2p9j7aloJxWxp6LnNONGEACBBAhAKiYAD49GEQizVESqg0sAlYrBzR0iTz6BeKViQbvace1nGO+einZSEXsqJv99wIjhIwCpGPycQioalsN4pSILPf3k5Z6D29C/N+6lkc/fGPP0Zz6hWb8Ki25Vrc1upz/bScX6TapHnuETqG+4vSWt++gLnP5s2DuGcEAg6AQgFYOeQXPih1Q0JxeI5GcCkIp4G0DgZwKJSEXr6c8VTilHPS87J+bpz0Pnb41KAZ8czYe98CWnSfPP+unPTlJRj6FT47Po8DffR/Z5RJ5BAASIIBWD/xZAKhqWQz9S0bDQy4TDe0DyNXxKvumhIj4QAIEAEYBUDFCyDA8VUtHwBGVpeJCKWZp4LNuWgF+paDJG3gOy6/Nrae5tTahZzdNNDhWxgUDaCEAqpg11yiaCVEwZ2vgGDrJUlJbp0pLjavHNrqiDKsX4XgM8BQIg4EIAUhGvR7IIQComiyTGSSYBSMVk0sRYQScQdKnIh7nMWrknkgapbgx6XhA/CCSLAKRiskhmbhxIxcyxt505yFLRMJQIBwRAIKQEIBVDmtgMLAtSMQPQMWVMApCKMRHhhiwiEHSpmEWpwlJBIC4CkIpxYTPqIUhFo9JBBKloWEIQDgiAgHEEIBWNS0lgA+L/sTpq1KjAxo/Aw0tgxIgRxO8nLhDIdgKQitn+BmD9YScAqRj8DEMqGpZDSEXDEoJwQAAEjCMAqWhcSgIbECoVA5u6UAeOSsVQpxeL80kAUtEnMNwOAgEjAKkYsITZhAupaFgOIRUNSwjCAQEQMI4ApKJxKQlsQJCKgU1dqAOHVAx1erE4nwQgFX0Cw+0gEDACkIoBSxikovkJg1Q0P0eIEARAILMEIBUzyz9Ms0Mqhimb4VkLpGJ4comVJE4AUjFxhhgBBEwmAKlocna8xYZKRW+c0nZXGKSi2ynQ/NmYO+fQxLl9qFKV06O4un2WtgRgIhAAAeMJQCoan6LABAipGJhUZVWgkIpZlW4sNgaBsEhFt1Og+bMGVfOooF3tMjTcPsPLAwJhIACpGPwsQioalsOgS0URio+8eBO1bN9Q0R09oIj27jxME2b3oh2f7XeUioalAuGAAAgYSgBS0dDEBDAsSMUAJi0LQoZUzIIkY4meCYRBKrIY3HGolOYPaEp5OeVo9Y6j1PrJj2lWr0bUsfHZBHHo+XXAjSEkAKkY/KRCKhqWQz9SUSr7Tit/Cq3+4HO1ksKiWyMyb/lbG6gg/yX192ZX1FFSj6/BN0ynxr85l2Y/t5xKS47TwJEdaNvmfbSwaBVVqVGBpi2+S1URlhR/q+61jn1g71G6p+s0GvpMN6rfpHoUQZ7ziSGvR8bgDznO+7vPoAef6krjBs1VgpHneWDiH+ixQf+nnv/FL0j9PnnUQlXFuHHNTnph7Dvqs63rd1NO7kk0deHtaj6ev0/bp9U4vK5jR76xjcWw1CIcEACBJBGAVEwSSAyjTtd98z9fULM+t4AGCBhDAFLRmFQgEAMI+JWKLOiOfvM9vbvpEJUc/4Fa1T0jIvOKS7+nzlPW0LKtX6mVzevfREm9Beu+pEnvbacKp5SjN9btp5oVc2hSt/rUffp6NcaYznUjVYR8b5epa9Xz+tiFi7bRxj3FNP2WRlHUZM5rGlaKqkTkOPniCsWh87eqn3keHuOTXcdo/X+KI7/zPQNa1VCxc2yzVu5R93e/pGpkPp6fx8k96QS6un5FOv2UcmViMSCdCAEEyhCAVAz+SwGpaFgO/UrF/h2eo95DrqYeg1qXqQjkz7hisHnL85QcZJE3uLCL+pkvloyrln+mxCOLxev7XK4+u/Tq8yPj8X3Dp+QTy8JhvV+JiD0nbCL8Dh8ssb1Xb3HmeyVGrmrUP2OpyHGxJNXj51i48lHimjlpCb04/t2YcRmWZoQDAiCQAAFIxQTg4dEoAn6l4t9Gj6MKtWvRRT3yo8YpOXCQ3uhzB116351Uq+VljpQ/mVlEu1b8g9pNGEsn5p6CbICALQFIRbwYIPAzgXikIkvD5QWX0J4j35apCJSKwfe3HFLScMm9LWj34VIlClkyXlmvopJ3Xxz8Ro2xavsRGjRnU2S8rs+vpbm3NaF6Z+dGJJ9VJFrzJ8JPl4D6PXqlorWqUT4TqcjPccWjHj//TeKqWv5kalm4UgnPWHHhPQMBEwhAKpqQhcRigFRMjF/Sn/YrFbkC8PFZPVUFH4u/osnLIrJQfs7NO1l9xhWEz8zvT4/dPTciDq37GLKwq31+ZWp/w69VNeB943+vKh+lajF/YKtIJaTb4ln2TR65UN2iVxlapaIev1Uq6hWPPB5XU94+4ndRVZJuVZNJTw4GBAEQMIIApKIRaQhFEH6lotOiIRVD8ToYswhIRWNSgUAMIBCPVOSwWahJleCgNrUispB/5upEvYKwQZVTI+KQpZwu+bhVud+sDfTmwGY0a+VuemfDgUjlo1Q4SluzGy4WnCz7WGrypQtGq1SU+Pn/WqWiVDzyeNdNXk0vdG9I7206GFUl6VQ1aUA6EQIIlCEAqRj8lwJS0bAcuklFFn7cosxXh/zm1O22llH7E+pS8bVpf6cV725WgpGlogi7sTNuVlJR5GAsqcgtxvrFFY1cFenn0luiWQLKQS36z9xubZWKuhQVqchr1kUkpKKfTOBeEAgHAUjFcOTRhFX4lYp6peJ3Jd/QosEP0Z7Vn1DVZhfRsd17VaXiqWdVomVjCunaieMot9KZUct0q1TUx+OH2hY+qqoety//kFa98NNWJoe2fk7lcnKo49RJVKl+PdKfqVi3jrqneb9bXaslTeCOGNwJQCriDQGBnwm4SUXZm5BblLntl6sOn126PXLoiS4Vm9cqr6QetzWzVNSFHUtFbn8WOegmFaVVWSLkdmSuaGQZ6fWytkRbpaJ+aItVKooU1aUir5kvqUyEVPSaCdxnAgFIRROykFgMkIqJ8Uv6034rFfWTlP1UKnqRik77JrotmuUfX7p41MUff5aIVESlYtJfOQwIAoEjAKkYuJQZG3AiUpEFY/HefaqVefeqNbS44OGICHRasJtUtI63dNijSh5+vf9AZOxqzZsqkZlXpTL9dvgDpI/nNQZjk4HAIgQgFfEygIA3qWjHSRd0fioVvUpFu30T3fLF8q/H9HU0s1fjKPGoi79EpSIqFfGNCTIBSMUgZ++n2CEVDcthsqQin7LstqdiLKkoezQyHt7H0O5UZzt0ciiLtGTzPSwaX3vxQ3V4S6KVithT0bAXFuGAQAYIQCpmAHpIp4xXKl5wfWcl9y7M76qqAqViUH73KxWtz8vv1S+9mCqcW4tWPPEMdZr2rKp8ZJF4eNt2umzw3XHFENJUhmpZkIqhSicWkyCBeNqfpdJPl4pyyrLTnopepCILQtm7sFnN01Vrsn6qs9NS5VAWqSSUVujbWtVQh7ckKhV5XuypmOCLhsczRgBSMWPokzYxpGLSUCZnoGRJRdlH0en0Zy9S0Xr6s7Q+x2o5FgHJJ0vzpZ8oLQe58N/10569tj+zVNRPf+7a73Jau2IbTn9OzuuHUUAgEAQgFQORpkAE6SYVD2zaQgv6D6LvS0sjLccb5sxTB7XUbd8u6mCWRKWi3Z6M0mrNUvHTormRw11EKra4vW9cMQQiMVkeJKRilr8AWH4UgWRKxVinP8dqf+YWZ/30Z731OVbLMYtDObWZF6ifKC0Hucjpz37bn1lwyhgcU8dGZ9HR0u9xUAu+S4EgAKkYiDS5BgmpaFgO/UhFw0LPSDj6fo0sJnGBAAiEnwCkYvhznK4VBqVS0U4qolIxXW9J+ueBVEw/c8xoLgG/UtHclaQnMut+jemZFbOAQPwEIBXjZ2fKk5CKpmTiv3FAKronxFo9qZ8sbVgqEQ4IgECKCEAqpghsFg4br1S8qEd+XPsZxrunop1UxJ6K4X1hIRXDm1uszD8BSMXYzPTqSb5bP1k69tO4AwQySwBSMbP8kzE7pGIyKCZxDEjFJMLEUCAAAqEkAKkYyrRmZFGJSEXr6c8n5eVRvevaxzz9+ePJf4paK58czYe98CWnSfPP+unPTlJRj6FWq8vpeHFxZJ/HjADFpEkhAKmYFIwYJCQEIBVDkkgsAwQcCEAqBv/VgFQ0LIeQioYlBOGAAAgYRwBS0biUBDYgv1LR5IXyHpCL7x9ObR8fTZXq1zM5VMQWgwCkIl4REPiZAKQi3gYQCDcBSMXg5xdS0bAcQioalhCEAwIgYFqsFdcAACAASURBVBwBSEXjUhLYgIIuFfkwl60LF0X4S3VjYBOCwBUBSEW8CCAAqYh3AASyhQCkYvAzDaloWA4hFQ1LCMIBARAwjgCkonEpCWxAQZeKgQWPwF0JQCriBQEBSEW8AyCQLQQgFYOfaUhFw3IIqWhYQhAOCICAcQQgFY1LSWADglQMbOpCHTikYqjTi8X5JID2Z5/AcDsIBIwApGLAEmYTLqSiYTlMt1Q8sPco9Wn7NN03/vfUsn1Dw2j8FM6mtbuof4fnqLTkuPq92RV1aMLsXpSbd7L6bMydc2ji3D5UqcrpUfG7fWbkQhEUCICAJwKQip4w4SYPBCAVPUDCLWknAKmYduSY0GAC6ZaKe458Sy0LV9KkbvUVlUnvbaf5A5pSXk4535RW7zhK/WZtoDcHNqOq5U9Wz/d6eT3NWrknMta8/k2oY+OzI78Xl35PnaesoWVbv1J/q1kxh5YXXBJ5PlYQbuPzZw2q5lFBu9plhnH7LNac+BwEEiEAqZgIPTOehVQ0Iw+RKCAVoxMiQvGRF2+KSM/RA4po787DSizu+Gy/o1Q0LLUIBwRAIEkEIBWTBBLDEKQiXgITCUAqmpgVxJQpApmUirrsi2f9VqnI4m7HodKIpOTPWz/5Mc3q1UiJRRGat7WqERF/C9Z9Sd2nr6cl97agZjWjCyisMcUaH+IwnizimVQTgFRMNeHUjw+pmHrGvmbwKxX1Kr4qNSrQtMV3qYq95W9toBfGvqPm3rp+N+XknkRTF95O9ZtUp5Lib2nwDdNp9Qefq6q/3dsPRioV3cabUPA6HTlUQhc0q6GE3qrln1FB/ktqDr16kH9n8bewaJX6rLDoViUE9Xn1v3O15D1dp9HQZ7qp+PSL1/HEkNcj6+LPOMb7u8+gB5/qSuMGzVWCkdf+wMQ/0GOD/k89/otfkPp98qiFqopx45qdnnjUbVRNPd/voWuMrdz09ULhZhAIIQFIxRAmNUNLglTMEHhM60oAUhEvCAj8TCAeqVi4aBsNnb9VDTKmc92IoNOr+PS/69WBreqeQV8c/KZMpSKPJRWEjaufpsYe2bGOkoHW6kKpPtSl4mknn6Cev6ZhpahKQY6Jr+m3NCKOe+OeYvWzful/d7pHYnAanysUdSY8zye7jtH6/xQrRvw73zOgVQ0VJ1dISkVl90uqRmIStrknnUBX169Ip59Srky8eH9BwA8BSEU/tMy8F1LRsLz4kYrW1mW9gk+EHwu95i3PUxKRxdvwKflK+Emln35fg6Y1olqhrfcN6/1KREyK2Ht8Vk+qed5ZUePPnLSEtm3ep+bSW5CfG/XXqHn18ZzSIGs8fLAkMrd+rz4+38tt0lLVqH/GUpEFqB0PjnfFu5ujRKmIUMNeD4QDAiBARJCKeA2SRSDoUvGTmUV0eNt2+u3wB2j78g/p06K51G7CWDox95RkIYo5zncl39CiwQ/RntWfqHvzqlSmTtOepdxKZ8Z8NpU38MnYFWrXoot65JP+cyrnTNbYkIrJIolxwkDAr1Tkyj5pWT727Q903eTV9EL3hvTepoP0/LKdqpWYKwL1CkG9wu/9LYeoy9S1xGKQLxlryrKd9M6GA6rKUL+HpaL1eaks5Of19mcRcrqkkxyJFBzUplZUOzR/zmsaNGdTzDZot/F5HL1S0VrVKJ+JVOT7Za36ero+v5bm3tZEtWNzmzhLWKsEDcN7hzWkjwCkYvpYp2omSMVUkY1zXD9S0VrFZ5VoeoWfiL7BhV2UAMwf2CqqepB/50t/JtZ4IuJ4b0OOpWjyMiX0WBbK+IJBqhSt81569fnUY1DrmLQ4/skjF6r79KpLq1TkCkYWnVzxGCt+Fp9uPEzdYzImLNwAAiEnAKkY8gSncXlhkoppxBaZSoQii0QWm3yx3FzxxDMZF4tBE4l6/iAVM/E2Y05TCfiVik4tvta/S4Xg039soCrzRObpco+ZsFTk9mQWa3b3XFmvou3zXDHYpv6ZZfZUlBZnboPmSwSjm1S025vRKV9O4/P9VqnIfxMhaJWKUvHI4+liVq+kdKqaNPVdQlxmEoBUNDMvfqKCVPRDKw33uklFvaW4Q35zuqpT40j7sYQmwm3/niNK8smBJiIVbx/xu6hqRF328RjSzuxlPJF8ci9XQo5/5VYactNLZQ5+sTsQhtdT+/zKnqSijl6XqTyuHNSi/8wt4Fap6JcHpGIaXnhMAQJxEIBUjAMaHrElEI9U5OrAjyf/SY3XYmBfVQnHF0usrQsXRf1dpFvlxo3o09n/R9+XlqpnuLqQ75WqvhNzc1W1n/U+GZtF3eKCh9XYVZtdpKoRd69aE/lb3Q7t6NyrWkVVKtrFaa0qlLG4stH6WdvCR6lWy8vowKYttGxMIV07cVyZ6kMngagLPadxpbLypLw82r7s74rFpffdSUuHPRrhxOu3u0+vhLTjbl0785aqRWuuZJ0lBw7SG33uoOK9+xRnZiqilBks6D9IxZWOSkxIRfyDBQI/E3CTirInYcnxH4jbcRfc0YxGvvlZmRZju9ZgEWJjOteLHMyitzKzQOSLpeLUmy6ga59epVqirfc0r1U+6nl+RgSdnVTUc6vHJRWCdpWKfqSi0/h8OItVKuqHtlilosShS8Vnl25Xw4uIhFTENzUZBCAVk0Exs2NAKmaWf5nZ/VYq6qJMH0wqB61SMValot/xuMVZv6wVifJZvJWKLEP50qsZ9T0Y+bNEpCIqFQ37AiAcEPBAAFLRAyTc4omAX6motxh/V1JCb9/zALUaWkD/+XgVbXztDVWdx3KKBdRVjzxM1Zo3VbKQL10Esli84PrO6rPql14c+fnY7r2RMRbfP5zaPj5aPSs/l69ZQz0jlYFO7c8sHKUVWo9zw5x5ajyWZSLRWOSxPGQ5x0JN4mS513HqJKpUv54jS35GxnO6yWncr/cfUFKUpZ5wkvXv37g5Uu3IP/N9InD1OXn9u1b8Q8V8ZMfOCHdZj137s85MhGmbsSPog8eeULlgkcl/F+bcxs2yscH1nSKt1MIpVW3mkIqevr64KUsIhKVSUf3vmenraGavxlEnOXvZL9GLvGP5F2v8RKUit5CjUjFLvnhpXCakYhphp2gqSMUUgY13WD9S0Vr9xwLutRc/VIea8B6CdpV5LAGd9hC07qnoNp6+pyK3Guv7L04o+Ol/tMieitKSPOf55b73VLTOw+PqcSVaqejGA5WK8b7FeA4EUksAUjG1fLNpdL9S0aml1vp3EV+XDb47Ig5FVulVf/KcLhj1ykeWYnyJOGOJpYvNf70233ZPxQ8nPBVVmWeXU6kgvDC/a0Tq8c8s5OQzkWxuwlCvALTep89hHbfCubWi2qR1hnp1pC4YWfA5iUCe22kfRStnWafTuli4ijDme/Sc6cLRTbgm8j2CVEyEHp4NGwG/UpEFnOx9yHsq8r5/XGG4ce/Xjnsq6s+kck9F/VAWzpP1tOdknP7M40oloXW8RKUij409FcP2Dcv8eiAVM5+DRCOAVEyUYJKf9yMVeWr9tGZ9r0GnSkWWaNbTn/PK59B13S9Weyx6HY/n5jmkXVo/edrplOd4Tn+2rpF/1+cSscp/10979tr+bOXR6ncNqfhIaZk9IZOcZgwHAiCQAAFIxQTg4dEoAm5SUW95LZeTQ9dOGkerXngpUs0mA9kJOKmGE6koEsvaSuwmu+QznkfarWVOacHd+taiMlLxqkeG0dJhj5SJk5/V1yRjcaXgWQ3OV9V4UrXIn3nZkzBWpaK1GlIfl6WifrCMm1TU77NKRTkgRtYjbct2grFu+3Zl1inP6S3m/DfOOVdqckWlvkekLhwhFfEPCgiknoBfqcgROZ3y7PX05wqnlKOel52jFicHtfDPcvpzp8Zn0eFvvi+zx+KyrV+pZ+xOf+aDTayx8e/6KdT8u/UkaT6FmQ+XkedjVS3qa7SOLwe56Kc9c1u0xKWf/mzX/tys5unqhGo+RZrj6tjoLDpa+j0Oakn91yDUM0AqBj+9kIqG5dCvVDQs/MCHY1cZGfhFYQEgEDICkIohS2gGl5OuSkWvUlEqA3VRyXjkhGcrKqf2Z7tKRav8TEalotOeihwXX1KBaVcB6Ucq6lJP5mz/TKFqWXaqOrSTitZ4hKdVfqJSMYNfSkwNAhYC8UjFVEPkPQ6lYo9FWzZedvtUZiMHrDlxApCKiTPM9AiQipnOgGV+SMX0J0Q/AIdnLyy6VVVt4gIBEDCTAKSimXkJYlR+paK+hx/vVSjVfYe/2O66p6JXqcgMZX9Auz0VuTJO36PQqf2Z/y4t0xJnizv60aZ5b0QqGKUyTw4qiWdPRafTn/X9GN32VPRaqSh7L8peicyJ94W0y4e+96Hdnop6daW0Mrd88D76YNyTkUpNHnfNizNVpSL2VAziNxsxh4mAKVLRWgEo1YhhYh1rLQvWfUldpq6N3CYnV8d6Dp+DgBsBSMXgvx+QioblEFLRsIQgHBAAAeMIQCoal5LABuRXKvJC7U4bdvq7dU/BWO3P3NYsJ0iL7OOx9dZc/fRh+bvd6c92cerj8DN8iXiL5/Rnft76nLQNS2twrNOfWaLyXpFu7c/cds7Xoa2fR06/lkNS9HXqJzbLCdBy2nasdeonRjfp2Z32rVsfqYLE6c+B/Yoj8BAQMEUqhgAllgACRhKAVDQyLb6CglT0hSv1N0Mqpp4xZgABEAg2AUjFYOfPpOjjkYqpiN8qH1MxR1DH1A+mSdVpy6axwUEtpmUE8WSSAKRiJuljbhBIPQFIxdQzTvUMkIqpJuxzfEhFn8BwOwiAQNYRgFTMupSnbMGQiilDm7SBIRWThhIDgUAgCUAqBjJtCBoEPBOAVPSMytgbIRUNSw2komEJQTggAALGEYBUNC4lgQ3IFKkYWIAIPCUEUKmYEqwYNKAEIBUDmjiEDQIeCUAqegRl8G2QioYlB1LRsIQgHBAAAeMIQCoal5LABgSpGNjUhTpwSMVQpxeL80kAUtEnMNwOAgEjAKkYsITZhAupaFgOgyQVN63dRWPunEMT5/ahSlVOjyI5c9ISWvHuZpowuxfl5p3sifLytzbQE0Nep2mL7yoznpcB3OLRn+fYtm3eR8On5HsZFveAAAgYRgBS0bCEBDgcSMUAJy/EoUMqhji5WJpvApmWinuOfEstC1fSpG71qWPjsx3j59OhG1TNowGtalDnKWtoUJtarvf7BmF5oLj0ezXPP7cfpSX3tqBmNX/+32KFi7bR0PlbaUznulTQrnaiU5V5Xk7Ctp6ALadD+z0VOh2MV+84Sq2f/JhKjv9QZj3MaeOeYpW/ZPOSPMV6HzhnHMP0WxolPV+mDwipaHqGYscHqRibUVrvCJJUdAOTCanoNVGQil5J4T4QMJMApKKZeQliVJCKQcxa+GOGVAx/jrFC7wQgFe1Ziaz6quQ7uqFF1YgM47/3nLGe1uw8Rv1/WyPpkoyjYan4ya5jdFH106IkmNPfY2U7HVJRj4EF3jsbDtD8AU0pL6dcrPDS8jmkYnfi7zquYBKAVDQsb36l4oG9R6lP26dp787DVKVGhUiVH1f9FeS/FFldYdGt1LJ9Q+K/F01eRnnlc2jZXzdEPaOPxQ92yG8eqeazm4f/plcqypw5uSfRxVfVpeIjpapSsaT420iM1nG5urB/h+eotOS4mm/1B5/brqHZFXUiVY9OUlCvVNy4Zie9MPYdtf6t63cTxzR14e20f8+RCBd9fYa9BggHBEDAhQCkIl6PZBGAVEwWSYyTTAKQismkibGCTsCvVGSxdXpOOVqwfj/tOFRKXDXHFWhcuZd70glRVX1ScceM9Ko+EXbLtn5FreqeQV8c/CZSqShVgPyMPp61UvHyOhXoqSU7VGWcPrbT83olnT6uk2ySGHmeDbuLaUbPRkqQ8ThjF36u0n7JryooqSjSjnnwJZWEXFk46b3tVOGUcvTGuv1Us2IOLS+4hKqWL9tlxuvj51nE3fXqRsX4093FNLNXY3U/z9Fj+jq6sFoeHS39PiIb42EsFY/y7kpFpFfGTs/LeHZSMZ6x+d2IJSb1SkWef+SCn3KzbtexyPuz+3ApdZm6NpIbfl+fX7bTMRdB/05b40elYvAzCqloWA79SEWWdYNvmE75A1spYSiyrdttLen+7jPo8Vk9qX6T6urv0oq8avlnSqoNHNmBegxqTaMHFCkCgwu7qLEuvfp89XcWdDJGzfPOcpxHpCILRpaDj7x4EzVveZ66ny/+fVjvV2zH5ZZpFqLX974sEotIRR7POj9LU7eWZatU5HWyTJV45HlUKhr20iMcEPBJAFLRJzDc7kggmVLxb6PHUYXateiiHvmk/+w0+YFNW2jZmEK6duI4yq10ZtxZ+q7kG1o0+CHKq1KZfjv8gcg4+vgn5uaqey7M70q1Wl7mONcnM4vo8LbtUePEHRgejJsApGLc6PBgCAnEIxVZBrIcY9HFLa9dmp6tJBeLI774Z10sbfmyRN03q1cj1bKsC7T3txxSwofFFl+D5myKyB59PKuU4ntZOPHz3aevVzKT5ZHd80//sUFUyzRLsXlr9rm2woqs6vbrKvTC8l30QveGqgWa18WXtPNKO/Y1DSspwcjSsevza2nubU1UPLw2kZ76engMXc7prc58X40zcujvnx+OtHlLzCzEpI03HsbVKuRE4pP1SFUhy0y9xdyOMf9N1md9XqoSvUhFFsnyDsl4PLa8J1fWq6hyxiLWrWXZKhXlXbI+b5XHugj2204etH8GIBWDlrGy8UIqGpZDP1LR6x6CUp3IVYMsFfV9C53GYKl3T9dpNPSZboqQ3d6JVonHFZCyh6I+p76notu4+nhvzf5n1J6MTuPp6bPGo69TF4mQioa99AgHBHwSgFT0CQy3OxIIg1TcvvxD+rRorlrjVaMfjghKSMXgvviQisHNHSJPPoF4pKKIQxYz101eHSXcWHiJxBPRxvc77YnotieeLoKsz8vY1hh0QvK8VSp6oajHxQKyS9PKxKKKW58f6lCHnl263XaPQD0eq+Rk4dhv1gaa3eci6v/KBkdhJmuVOFlW8t84ho17v1ZSMVmMpZpSKiR1qeiFsf68H6lo9240qHKqquyU6kQeW5fEdnmzSkX9fv39cWt/5nlETOt7Z3p5T4JwD6RiELLkHiOkomE5dJOKXFW4sGiViphbd6/q1NjxYBP9Xr5f2odZKuryz666T5DoLcN2B6h4lYBSHRlrXOt4k0cujMqO3t5tlzY3yQmpaNiLjnBAIAECkIoJwMOjUQT8SkWpCtyz+hM1TtVmF1G7CWPpX6/Np48n/0n9rcXAvqraT6oWrc+0LXyUzmpwPr3R5w4q3rtPVRh2mvaselb+xj/X7dBOVQzGqmjkqshzr2pFXyxdFpmz5MDBqPHbP1NIHzz2RKRSkUXk4oKHo9awe9WayN9kbq5clHWVy8mhjlMnUaX69fAWpZgApGKKAWP4QBFwk4p2LcO6TIslFbmiUb+4ImxM53pRB7PoUkiqy/TnpIrMSUrqMdQ7O1dVt9k9r1emubUhS7xWWcVi8Y6raikp+ObAZjR0/paIVLS2A0t7NUtFXZKJVOTnuaXZrVKR5V6b+meqVuvHutSj/GnrlLx9b9PBKKnol7FUis5auSeSGmkztlYqyuEn1jzrLdc8iLVN2Uulon6wii5R9b0YrbzsvljWPOm83aQiKhUD9c9U1gcLqWjYK5CMSkXrKcpulYpy7/hXbqUhN71E943/vWqlTlal4oNPdaU7O0/1NK5VKvo9oRlS0bCXGeGAQIoIQCqmCGwWDutXKrLA44tln4i7S++7U7UUO7U/68+wzFs67FEl5/iS9mdpT65+6cWqfZpF4uL7h1Pbx0e7SjyOYenwR1WFIv+8ZvpMunLkQ3Ri7ilRMlJvfz71rEqRscvXrBHVOq23P3OsK554RglPbs/W15GFr0palwypmFbcmMxwAvFUKsopvrGkot2JvNbKRP13rsLTpZJbpaKd8GLh5vS8nga76jprmvS4mtcqX2Y/QxFh3S+pFiVJ3SoV3SrvrHsqSsUgV0Y2rJanWqG5gm/Ksp1RUtEvY16nXs3nVqlox9hafZlopaJw5srFZFQqepGK/F5hT0XD/2FCeFEEIBUNeyH8SEU5PEVEoOyd2KX3pfTs8AXqwBNuPZb9DaX9WfYaZHkoeyrePuJ3an9DfawXx7+rDjeRvQ+t8/R76Bp64v75NHFuH0VRntf3VLRKRY5RxpW9GmUfR47Fbk9F3heSP+PDaKS92i5tkIqGvcwIBwRSRABSMUVgs3BYv1JRRyQViLJPoZ1UrNu+naoYFPGoP8Nyz2lPRRaEb9/zALUaWuAqFVn8cYUiS04e+/2RY6lprx7qGaf258NfbKddK/6hKixZPkr7tFRcOu2piP0W0/cFgVRMH2vMZD6BVEhF656Kx779QYm321r9dFqyXsmm76moS0V5hqvgZL9GvTU3llTUn+fqSL1N28+eijKPVOdZDzWxSkVe25iF/47s8Sh7/EmFIL8RbnsE8uciLIUVH4Ij+zJaq+9EonplrEvF004+QVV28mXX/hxLKlqf99P+LHPyfpvJ3FPRi1Q0/1uZ3AjR/pxcnpkYDVIxE9Rd5vQjFXkY/fRkaQ8WkciCjluY73r0Onr9pRVK/llPRbaeqiwtxz0Ht6F1H30ROQTGbh6n0585Ln7+3xv30sjnb6TXpv2dvIzbtd/l9Pm/9tLoaTcpkamfYK23Pns9/Vlv89afkXFx+rNhLz/CAQGPBCAVPYLCbTEJuElFlnIL+g+i70tLSVp/eUD5mwzO7cxOlYoiFbnNWb+4RfqcFs2jpKLeksz3emk3ZpG5deGiMmNLtaO1EpIFKEtFaWmWB6UFe+tbiyIHtVjbtvleaYuOCRY3JEQAUjEhfHg4ZARSJRUZk94mqx+GYT39mU9H7nnZOcQVgSwf+RRkblEeck1tmvPPvZ6FF7cUOz0v8pLj0tufY53+LGLNWt1mJ/547AevrR05YIV/108j9nKasXCTalDrfn/WeP0y1lvMuU17/PX11EE0eku3HD5jJxX1FnPr83KqtZf2Z86BtGDrh9ToLeE6Ly95YnZOUlHGDfuhLHb/PEEqBv8fbUhFw3LoVyr6Dd/LgSd+x8T9IAACIJBOApCK6aQd7rn8VCqKZJMWZa+Vik4Vh3olIVPWKxq9VCratUjrY/IYTlLRSzUiVybqFY2oVEzfdwFSMX2sMZP5BPxKRfNXZE6EXtqszYk2PZG4HczjFgG3lXPL8sjrzktPoCGaBVIx+MmEVDQsh5CKhiUE4YAACBhHAFLRuJQENqBEpKJUFrpVKnLFoL4XoVQ/XvXIw6S3P1ulIgu8NS/OdD0YxSr9eAx9n0d9fKc9FblNmuPjSkpr+7M+/nclJUp68sE03GqNK7UEIBVTyxejB4sApGLq8gWpWJZtvFKRWfLFbeS4/BGAVPTHy8S7IRUNy0qqpaJhy0U4IAACIOCbAKSib2R4wIGAH6nIQ+gtytwKzJec8iwnJcc6/Zk/Z9koApDH4MNQuPVY2pKb9OxO+9atV6c12+29aK2a1JcnkvCKBwfTW3cOVh+5nf4src98GIusj9fW4va+USdIX3RzPv373aWRvRjxUqWOAKRi6thi5OARgFQMXs4QMQj4IQCp6IeWmfdCKhqWF0hFwxKCcEAABIwjAKloXEoCG5BfqRjYhSLwQBGAVAxUuhBsiglAKqYYMIYHgQwTgFTMcAKSMD2kYhIgJnMISMVk0sRYIAACYSQAqRjGrGZmTZCKmeGOWd0JQCriDQGBnwlAKuJtAIFwE4BUDH5+IRUNyyGkomEJQTggAALGEYBUNC4lgQ0IUjGwqQt14JCKoU4vFueTAP87PWrUKJ9P4XYQAIEgERgxYgTxdx1XMAlAKhqWN0hFwxKCcEAABIwjAKloXEoCGxCkYmBTF+rAIRVDnV4szicBVCr6BIbbQSBgBFCpGLCE2YQLqWhYDoMsFQ/sPUr3dJ1GQ5/pRjXPO4sG3zCd8ge2opbtG6aV8vK3NtCw3q/Q1IW3U/0m1dMyd0nxt2q9l159PvUY1NrznDMnLaEV726mCbN7UW7eyZ6fi3XjprW76P7uM+jxWT3LMBg9oIhqn1/ZMU49j174ydpXf/C5CqtKjQo0bfFdVKnK6bHCTNnn1jXEWnPKAsHAKSEAqZgSrFk5KKRiVqbd+EVDKhqfIgSYRgKQimmEjalAIAMEIBUzAD3JU0IqJhloosOFRSp6kVGJsrJ7ngXXyNv+V33UqEUtX4IvkXiCJBVjrdOPVJR1s0gcPiVfDc1S94khr2dULPpZQywe+Nw8ApCK5uUkqBFBKgY1c+GOG1Ix3PnF6vwRgFT0xwt3g0DQCEAqBi1jZeOFVDQsh36lIsuTPm2fpr07D0dViHGlWv8Oz1FpyfGov7PwKZq8jPLK59Cyv25Qn903/veqso/vHTiygxJxdvdJ9Zm1Mq2w6FZq3vI8VanH1Wo5uSfRpNf60Atj3olUKvqNU+RUQf5LKkPNrqgTqebj2OTv1qo4Xvf0wsV0w4BWNPHBv9DEuX0iFXN6DDzesSPfqKpKFqBuvF4Y+46KYev63WptegUkV8AtLFpFdRtVU/e0u75JhJ/EyH9nRlKxKfHzWBdfVZeKj5SqtfElDK1rlnn47x3ymyuB5ybOvFYqWscdXNglKo921Z78DL9vHPOq5Z/ZCkS9MjCV7yLz0NfA7+/1fS4vs4Y5zy+PVGc6vYv6e+WUMz0vki9dqBr2z0low4FUDG1q074wSMW0I8eEHghAKnqAhFuyhkA6pOKeI99Sy8KVNKlbfcV10nvbaf6AppSXU86Wc6+X11ODqnlU0K52SvNQXPo9dZ6yhv65/SgtubcFNav5cxdQ4aJtNHT+VhrTua6vOBas+5IGzdlEywsuoarl7bukZN5BbWpRtQo51G/WBnpzYDPHkDL/hQAAIABJREFU+50grN5xlMYu/Jxm9GxEd726McIsVfyCyotz0mXqWluMr/RuRM8v20Wci46Nz/b9vjGTnjPW00Md6kS9P74HcnjAKZf6dypW3JCKycpG5saBVMwce9uZ/UhFkXvSYsyttNs276PbR/xOicbre1+mBJdVArHs0kXg7u0HVVXZxjU7I4KIf+b7RDLyGHyxzNJ/1luNud3Vrv1ZhKOfOHd8tj/Sviut1CxveG0yB8tAXjNf0nKs/85xXtWpcUTm6XHzfS+Of1cJQo6bebFcZfEXi5dIJB7jtRc/VOxYVLHE7T3kampxZb2o1mO9xZnXxfc98uJNERHL8bOgm1AwL8JYxBfHxBeLYBGPXInZq6Cta2u3F6l47vmVbcfV8ygVp7pw0wWpztTuhZZ1pOpddGLboGmNqPdEJKcIR+u72O22lr5yZq3MFIGsszHsn5ZQhQOpGKp0ZnQxmZSK25d/SJ8WzaV2E8bSibmnpIXD30aPowq1a9FFPX6qLLf9d3vTFlo2ppCunTiOciudmZa4MEk0AUhFvBEg8DOBdEvFWAIknbkRSfZVyXd0Q4uqEXkoomjNzmPU/7c1jJSKVpmVKpGo5yPIvGQdzImv6bc0StqrpstdJ1GetMn+OxCkYrKJmj0epKJh+fEjFVkcjblzTlQ1Hi/H+nddMO3fcySqssxaUSbj6YKRJZOMOWzyH2nITS9FBJwuNnWRo++peFbV8r7j/Pj9LVF7DUrl5INPdaWHev45UmGop09an0W48TNL31hnW9WnV/lZmej8rBxE3Ipc1fcmdNq3T2KXyj4RhLyHov6ZvqeizlWXil73XfQrFfVx7fbGdKrGi7VXYSrfxbEzbqbH7p4btY+lxNP+hl/bSkUWvnbfGes/A7Fy5tTerQtpr7ky7J+gQIQDqRiINAUiyExKRVMBHYBUzHhqIBUzngIEYBABr1KRK/f40qsHRTIt2/qV+qxV3TMiFYj6Z/z3Lw5+Y1upKBWB/LxUBeqCzDrHvP5NVEUZV5+NXPDTfuPrdh2j3JNOiFQbOsXF93JlIkvE9f8pJqlSu7xOBdqwu1hV/LEUEknE91/yqwpqzU5x8D18f+snP6aS4z9Q90uqEvPgSsXTTj5BzWflI3HolYpX1KlAz/1tp6d1cIy8/nlr9ik5ZmW4cU+xqloc0KqGmp/X99SSHSo+vfJSj7tmxZxIdSWPx2NYxZswCCIv+cpZpaJeNcr3cBVthVPK0Rvr9pPOhD/jZ2et3KOGslaw8mddmlZW76ad4NXn4Xvk92saVlLvl15NqX+PnL4L+ncqlqhHpaJB/+DGGQqkYpzgUvWYm1S0tqpyFZ6d3LDuaWcVaLrUcpOK+n1Wqcjtr/rFFY26yNGlIt/nN06WipNHLoyaQ1qdpSqQ27X1tmi9zVYe1J/RDy6xMtFblflZaXNm4ahzEKkobcL6wSw6Sz1XPJ7E+dq0v9vKUhaOUsXI65JLKt94XuEh1aNu76AXqcjVnXbj2rVVx1upmMp3UaSiHBAjPLg93FrRKrnh6kw3Icit7HI55cwqSp3YpOrfCIxLBKmItyBZBPxKRa70O/HUXNqxfAUV791HdTu0o98Of0CF813JN7Ro8EO0Z/Un6ve2hY9SrZaXlfl7i4F9VaWgtVLxk5lF9PHkP6ln5R7rmFWbXRSpbHSaz00KSqXiBdd3VrHmValMWxcuUnPyWlrc3pfe6HOHWht/1mnas6hWTNbL5mMcSEUfsHBr6AkkIhV1QWOtnOLPdhwqVZLx/S2HVPspC0G+pP2Z/y4/H/v2B7pu8mp6oXtDenbp9qhWXn2c7tPXK3m4+3BpZMwr61VU8owlEIswp7is94nY6fbrKvTC8l1qbm6BFoEqco6ljz4mCyCJg1ucubX7tlY/VTTyfSIVh87fotbLMel8JA6Riiwkh3b4VeR5WS+3NNs9L+JKJBbfo8sn+VmkIgtdlpwcQ9fn19Lc25qoVmtr3DKvU7VdkHnJFzmWVOT3VJfbwp/fieeX7Yxw5JzN6tUo0jKtS16nfzR0Wcu5kPed75fx7N5l2QrA6TsFqRj6f6YJUtGwHKejUtGrVNTli8ih8a/cSo8MfNW2UtDp9Od4KxW5lVsO/3BKk7VykO/Tn3GqXHMTrfpc1kpCL5WKVnEVq+qN88Ht0LyvpUhKa2u7xOT0dysfr1LRblxr67B1bC97KkoburUy0Fo1m8i7+Mz8/qpS0e6EcafTn50qFa3yM1bO+Lsh82NPxfT/IwqpmH7mYZ0xHqm4bcky6jh1kpJtLOAuve9OJQ9Z2LGM43bm3avW0NJhj6r7/vPxKjq8bbuSjyUHDtLS4Y/SVaMfpv0bN0fan/l+aYX+rqSE3r7nAWo1tIA2zPlpWwx51st8lerXc0yXVSryjdZ4+W9of87sGw+pmFn+mN0sAm5S0VqdJ5FbK7j473olli7N9Koslmh8iUjU9wHUqVilmOx3p1d3NahyatTehbGq63gMiUuqw/SYueqPJR3fI3vkidzsfkm1yJ6Q1vVY90Tk6j+7PRKd+PDzIvpYaLKcsttz0vq8dR8/N6ko69XlY5v6Z0bFyXHrcdi9pUHlpUu3WFJR3w9TzyULYn2fT+s4Xlqg9f02V20/YivXpQpV4pB5RRBbvwte9oJEpaJZ/+bGEw2kYjzUUviMH6mo77vHewHK/nLcInxn56mOeyp6FTmy96LsMyjCTt9HT6oDWYo5tT/z3/U9C73Eqe+pyPv6icjq99A19MT98yMt3yKvuEpSn0NSpO+5p+9Z6Lanor5XIrc/21UqsrjURZS+p6IuFbkFlg9f4YurEVkKSpyy1yR/ZpWKUv3GlYpfbN6n9srkOa0t3k6vohepyM/ajWu3p6LTPE6nP7Mg1ferdNpTMdF3Uc+vsOW5nNqfre+JPN+l96X07PAFan9Ma87s9sGESEzhP4IehoZU9AAJt3giEI9UFMnH/5erC1kYXjb4blX5d2F+16jqxOqXXqziEKmoB6VXKn444amYex1KZSLPUa15U8f53PZLtEpFjo/vZ9kpIpNjhFT09Pqk7CZIxZShxcABJJBIpaLePitL52rE5rXKO0o4vo+lGVd5cbWfLrxkDBFkVpnHn8tnLBV1+aZLRae4YslOFot3XFUrIttE6EgcXMmnX1zRZpWbuojiajRpi9b5WCsVdQmpS8UtX5bYPs98pcpNDpdxk4q6eNL56QJNr5zTD6zR12ttFQ4KLz9SUX+nJJez+1xE/V/ZEPWuWiW2F6moM9arcXmsdzYciGwdYCcz3cQ2KhUD+A+vz5AhFX0CS/XtfqQix+J0sm6sE3dZcLE8cWt/1k891tuMrac/Szuu/P1fq3eWOf3Zb5y8NqdTnvWWXYnL6RRiq/SUk7K79ruc1q7YZnv6s37Cs1ulIscobc4smVi+nl2tfJnTh+969Dp6/aUVERGqr6vn4Db07417aeTzN6qTlKUNm1t4+eI9G/XTjPlvwjvW6c9y+re8s7IuOQnZaVw9j3anP1u/A9b3wXpCdirfRT0H/LOcjG1dg376s108IhLl9HK3nOnfhVT/e4Dx7QlAKuLNSBYBN6nIbcQL+g+i70tLqVxOjqo65MpB/aATkYrSNixVixyffigK/yxtxtIWLVLxqkeG0dJhj5AIPn1tegzyd37+rAbnR1VJWudz4mOViiJBIRWT9UYlZxxIxeRwxCjhIBCvVLTuCZeJSkU7qfj0HxuoVmi7akQ3qciirsf0dXRhtTw6Wvp9pI2aq9NY6FglnmTfWpnoJKLcKhXtpKJVuiajUlHPWaKVikHi5Ucq6qJVryxMRqUivzMsdWuckaP28JQTo63VqXbzolIxHP/exrsKSMV4yaXoOb9SMUVhOB4gkqr50j2utd013fNjPu8EnA6z8T4C7gwbAUjFsGU0c+tJtFKRJR1fbpWKeuWgLu++3n8g0vJsV6kolYkiG1NRqQipmLl3z21mSEUz84KoMkPAq1S0Rud00IQcpKJXXzntqThl2c5IhRbvqch7/E3qVl8dQOK0j5y+p6IXqSgHYHBcblJR9inkgzhkDdbqP2bA+yNKJSSLP2tLteyp+PZdv46qbnOKw9o+LYLJKhX15/3uqchx896WXPmYjD0VpfJRDi4JAi95f2O1P8ven8JYcp6MPRV5LMmjfhiL3fuk7w8q3wWn7xQqFTPzb2c6Z4VUTCdtD3NBKnqAFMctsarp4hgSj6SJAKRimkAHaBpIxQAly/BQ45GKfBALH2DCl5c9DvXqRqc9Ff/12nzateIfan9D3lORx21xRz/aNO+NSAUjVzYuLng4cgCM0x6OfvZUhFQ08wWFVDQzL4gqMwTilYq6IOGf+dRjvkSAWE9/5hN1e152jrpHl4F2J+p6Pf3Zqf1ZP0lXjytWtZcujvggE7c4nE5Rvv23NejT3cU0s1dj4n3zWFJZ+ehxOElF/YAbO77Wg0HkBGiOy3r6MwsqObVYBCCPGe/pzyIVg8TLq1TUTxTXxR8/n8jpzzK/HNgjB/vI3+M5/Vm+U5CKmfm3M52zQiqmk7aHuUyRih5CxS0gAAIgkBECkIoZwR7KSeORiseLv6b//GOVaouWU5oZjtNpzCwS5URlvs/a/swi8cTcU1S7tLRI6ydEs0jki09n5kvar5Nx+rOdVJQDaHgunP6cmdceUjEz3DGrmQQSkYpmrig7omJpaz2sxbpyvWU6lnjKDmruq3Q6JCcWGy/7KcYaI5Wf46CWVNJNz9iQiunh7HkWSEXPqHAjCIBAlhKAVMzSxKdg2fFIRX1PxRSEhCFBgCAV8RKAwM8EIBWD+zbEklmQiv5yG49U9CJ3/UWR/LshFZPPNN0jQiqmm3iM+SAVDUsIwgEBEDCOAKSicSkJbECQioFNXagDh1QMdXqxOJ8EIBV9AsPtIBAwApCKAUuYTbiQioblkKUiLhAAARAAAXcCP/74IxCBQMIE/ErFhCfEACDggQCkogdIuCVrCEAqZk2qsdAsJQCpGPzEQyoalkNUKhqWEIQDAiBgHAFUKhqXksAGBKkY2NSFOnBIxVCnF4vzSQBS0Scw3A4CASMAqRiwhNmEC6loWA4hFQ1LCMIBARAwjgCkonEpCWxAkIqBTV2oA4dUDHV6sTifBCAVfQLD7SAQMAKQigFLGKSi+QmDVDQ/R4gQBEAgswQgFTPLP0yzQyqGKZvhWQukYnhyiZUkTgBSMXGGGAEETCYAqWhydrzFhkpFb5zSdle8UnHT2l005s45NHFuH6pU5XTbePme/h2eo9KS45HPc3JPoqkLb6f6TapTSfG3NPiG6ZQ/sBW1bN8wLWv2ErdTIHbxzpy0RN3eY1DrqMeWv7WBnhjyOk1bfJcjH36An9+2eR8Nn5If1/oP7D1Kfdo+TfeN/31KGerceE63vLothJ+9p+s0GvpMN/UOxHMx26LJy2jC7F6Um3dyPEP4eibR+Zjd/d1n0OOzesa9Zi8BS5z9HrqGBv1hWtT3Tp7v+1A7WrXs86R953jOpW+si/n+Jvu7nuzxYvGFVIxFCJ97JQCp6JUU7ksnAUjFdNLGXKYTSLdU5BOL+83aQG8ObEarth+hLlPX2iKa178JdWx8dpnP9Oerlnf+fxfrJ/ne9epGmrVyD1nH5Ht4/u6XVKXptzTynKo9R76lloUraVK3+rYxykC9Xl5PDarm0YBWNajzlDU0qE0t1/s9B0BEHEOP6etoZq/GNHT+FurStHLMsb2eBl24aBtt3FPsi4mf2HFveglAKqaXdypmg1RMBdUExoxXKnqZ0k6msIQY1vuViFj0Mo4p91hFBq9veuFiGvn8jWXkVtilolWSec1rEKViou9fuqWiLltZWq94d3NKBezoAUV0VafGrlI72RIw2ePFyjGkYixC+NwrgVRLxe9KvqFFgx+iC/O7Uq2Wl3kNy/N9JQcO0ht97qBL77szrvHd4tu+/EP6tGgutZswlk7MPcVzTLgxcQKQiokzxAjhIZBJqahLQRZwfMWSe/FKxU92HaOLqp8WNT7Paff3WNk1QSpy7CISdcHoJlpjrUs+h1T0SioY90EqBiNPblFCKhqWQy9SkUXQ8D6v0OhpN0Wq7vTKNa4W44rD1R98rlY3cGQHVbnnJFNYQvA1uLBLVKUi/31h0Sr1WYf85qr6SeZpcmltmvvC30mvdOT7WGYV5L+knml2RR0lT9TYN0ynKjUqOI43dsbN9NjdcyMVWyIpLr36fBW727hSWWmVKXplJsfPPKRSkeXO5JELVWyyhv17jkRil/Xa3ccVfU4VjbEqFe3WIdV9+lySM+EguRSmOz7bH6lM5TntKu8kr5w3u3EeefEmJZR5bD2Pet4lDreviVTk5ZXPoWV/3aDyrFeE2o0n7yKPywee8/0b1+yM8Oe/FxbdqsQYjz+h4HU6cqiELmhWg7r0vpTmvbgiIubsxneTpbGkotv69c8kPsn53p2Ho74rdhWVVqmoy7izqpZXOdW/W5wjrrDlseWd5En0d9vKW5fr+nuiVzDLvI1/cy7Nfm65qqLUc+02vpfvotvzTt8pZlt8tJT+sXSrikfedbvqV0hFw/7DFeBwIBWdpSekYuZebEjFzLHHzOYR8CoVWTTxVdCudmQRUvm2bOtX1Lj6aervIzvWURVz+mf8d64SbF6rvKrw23GolGpWzKHlBZeQSDCrVPT6PI8tY/LPUnVorVQ8Paccfbq7WFX28Zwi4i6slkdHS7+PyEaOg6sa+RrTuW5kvXo8reqeQV8c/CZSqSgVjwJGKiKtlYqX16lATy3ZQSXHf4ga2+l5Fqitn/xY3Z970gm05N4W1Kzm6cR/H7vwc5rRsxHl5ZRT0+r5cZKCeqVitQo5qmK0winliPMnOeL/K9Wjfis4zXu7ERETgFQM/nsAqWhYDpMhFd+a/c9IC68uIJ3kk8gPkUws6fiSllb1H+Db/pd6FbRVf+dW29b/00hJRl2SsMDgz3ic5i3Pi4hEkZX8LEvGVcs/i1RHqv8g/rdt2xq3tOXyPSLNap53VplxOd4GTWtEiVYRPdf3vkxJSRYWIhVZXumt0Lp802WhtbpRv8/ptXGTiiJarHyYoy6gWPjI2uc8v1xNxffoY4uA4nb3WHll5hMK5tmOw9z09menfLq1w4tkYsmm513ej9de/FBJQ2nT5vVz/PKu8NhW0afHob8vLHR1Vq9N+zvZje8Wr5tU5HmdxtPfDZHrIsNFfutjs6S2toXHkorMpPeQqyPv7JK/rFdVxPp3gOWg3mLP7yVLR6mI5PdHvq9OLe0iFXdvPxjJjXzHZHz9uyPjx/qOy3fRKT7OpdN3T/+O6u+KXS4hFQ37D1eAw/EjFQ9s2kLLxhTStRPHUW6lM4l/X3z/cGr7+GgqX7OGqkjcs/oTRaNqs4tUhR9feqUii7rFBQ9H3cNVgH8bPY4ObvmMDn32b2oxsK/6/PC27fTb4Q+UoSvVhTwXz3Ns995IpaLb+BVq16KLeuSTXp1YrXlTFV/lxo3o09n/R9+Xlqr5+T6rVOQYty5cpOKRewKceqNDh1Q0Oj0ILs0EEpGKLK/e2XCA5g9oSu9vOaRklC7UeClcecjSrPv09UqK8SXtz26ViizkWD7K2HbPn3byCaqt+JqGlZT8Y9nW9fm1NPe2JrT7cClNem+7ep7bn2uckUN///xwpAWZY5q3Zp9qT5ZWX309W74sUUJvVq9GSpJa45G1spyTOVn46WPwvHr7M6/dbj12z/O8vGZpmZZ4maed4LUTjdZXySoVeX1DO/xKsdPXN2XZTrQ/p/l7mMrpIBVTSTc9Y0Mqpoez51ncpKJeIaQPyBVGLa6sZyvn9PucZEosqahXClnH0CvCrBJFpNwz8/urKkQRL/ozHJ9IRV328c8iZFgc6S2jdvGypNJbn617Nbrt3ajLIrc9Fb3st+gmFa2Va7q0fG7UX6n2+ZXL7AWp58+uqs2rVNRzqI+jS0URtpInnptFT6y4rPJV52R9XsRst9tauu5rqLOyiij9M5alenxexK+bVHSK11rF6/SFdvs+8DOxpKJecapztI6rizm7dztWC7S1EljPtf5vCQtGN1Fq/Y7L/w+JWPEJP+u7wn/XK2ud9neFVPT8nxTcGIOAH6lobRXWpduHE55SM7EE1FuSRdpx+/OpZ1WiBf0H0VWPPEzy97wqldUzLOyK9+7z1Gqs37t71RolKdsWPhpzfDepyGKy07RnVewiSr/efyDS/vyv1+bTrhX/UPEd2bEzso5UtHTjpSWCVMRbAAI/E3CTitZqQXmKqwzfvuvX1P+VDRHppQsrqUiUPQftKuR4T0UnqWjd+09+Z3nYpv6ZtlKSY+Pqw+smr6YXujcsIxVZ7sklEo3bhzfu/VoJtKf/2CBKUPK9Tnsiuu1NaK2Q1KWiyE89ThaR+iXPW6Wifo/e+ix/99ICbc2DLjP1uCEVw/UvBKRi8PMJqWhYDpNRqcgiwK5N00mmiOjQKxW5OsiuHdcqMHTZ8fH7W6Lkn7WaSwSBk1TkVOgVeiKL9DgkXdzyKbLSWlnJAs0qutzaw3lMvd1ZDmqxtgzr97lJJaeDWqxCyanaTR9bbyOVv3NFoJdKRbuqQ/2QHh7HTipKq7XMp7fd2q3bKktFFImI0yWlfMZS0XqwkP7O8jzS/spSUa/4s0plu/HdDtpx+h7YiTaJ9/YRv3M8gMcq+/V2er+VijoTN6koWwxIPqzbEHiVirq0E6F67vmVo6oJ/X7HOSan+ERc6++YvF+60I21RyOkomH/4QpwOH6kIi+ThR5fIgJF1OkI7CoBWSrype9RyFJyxRPPKJn38XN/iozrhtMqNvXfY43vJhWrX3qxqk6UNfK9Fc6tpeK96pFhtHTYI2R3jzwT4FfAyNAhFY1MC4LKEIF4KxWt+wraSUWuNNQvbid2koJ6+7PdnoUi+KzPW1uHpU3YWqnIco+f5bbhx7rUo/xp65R8fG/TwSipKK3AEje3AI/pXC/qYBarVNRbpvk5bo+WCkm7g1qsUtHp+WPf/lCmXVyqM62HvsQjFfWKUUjFDH0B0zAtpGIaIKd4CkjFFAP2O3yypKLMaxV4bnvvOVVjWSvk9DH8VjGxrHSSiiJDzz6nAv17417Vbu22f6E1Lq+VitxmrVc+OlUqWiVguisVrZLLb6Wida9MkW+xKhX9nv7tJBVZ7LlVKuoCzSqBrZWKdlJR2rozWalorUxNtFLRq1SMddq2V6lofSf492RUKjrF5/adglT0+18L3J8MAm5SkdububKQW4LL5eRQx6mTSKr3rnjwPnrvoVHUamgBVapfT7VCy70SF1cP6pWKh7/YHqn245ZnvZ2apaKdoLSu0Xowiy4VvY7vJD2l6pDFqZ1UlNZuialuh3a27dnJyEu2jwGpmO1vANavE4hXKjpVE7Ls4kpFqRi0VuI5HbSiS0WvlYq8Dv0U5liVinwKc88Z66lhtTzVCs3iT6rypFLR7oRmt7VyDIPmbIrsD+lWqShjW+N0el72S+Q5rONaT3uGVMT32okApGLw3w1IRcNy6EUq2oWsV+LprbSx9lTUTwmWKiKWSl9s3hfZl1Hfo43n1vd987OnYqxKRZaKUvWlH9JgrSyTPeT0ykrrnopWIafv16ZLRb6PKwt5PtkDUCoV9bVZ73N6beLdU9FurjtGd1QHklgPq/FSqWiXV7tx3PZUlDXL3npOa3aTik57FOqVlpJ3aZmVg4Z4PtmD00kqpnNPRb21Wt7JB5/qSuMGzaX7xv9eHSrD631x/LtqH8R49lT0IhWteyrqjPkzP3sqCmPeKzFVeyrq8bl99yAVDfuPUZaE47dSkaXe2/c8QA1+fx3t+uhjunLkQ4oU70solXzxVip6kYrJqFS0a8+2xs6/WysVU3WCdZa8ar6WCanoCxduDjkBr1LRDoPXPRXlwBFu6ZUDQtzan3kuL3sqWqUixzNm4b/V3o12lYrc9sz3DJ2/NXJQin6oib4eqRK8rVUNteeg01p1qShVhPw3r5WKHKdIRf35qTddQDf8t5qSxWwq9lREpWLIv9z/XR6kYvDzDKloWA6TIRV5SSzK5DRaOaXWrpVWb5vUK9jkwA27E6RZfJxW/hR18In15FkvJ8O6VSpaD1iR9Ojjypwin7yc/ty13+X0+b/2qhOzdT481s33tKF3562NCCxu3eSWTGl5ZY7W+1hmiXzUXyHrScDymX6SsfV0bNnv0O7UYX3dHBNfXJmnV5PJoRZ6a7Pbqdz6ONf3uVwdfPOv1TuVCOPKUD0OaU11O03ZTSpyvE6nP+sCTW8159jvevQ6ev2lFcR7Rur7a0pruy4Z4zn9mcW4Ey+n05+t7fCSU709v+fgNrTuoy/UKeZ8paL9mXOkf5etuY739GdZD8edzNOf9fj074f1O6Xvj4n2Z8P+wxTicPxKRUYhB5bIYSUi+kTMyWEp1krFWHsqepGKPP8nM4siFY9+9lSUPRv1Z6SSkseV/RJj7an4XUkJvdHnDmpwfadIy3SIX5GMLA1SMSPYMamhBBKRivqei50an0WHv/m+zB6L0k4sJylLazPj8Hv6Mx+YYn1+1srdShLy9eC1tSOHsfDv+kEt3IbMclA/NEYOVpGDWvgZvRVZP/3Yevozn5rc87Jz6Mp6FdVejLxObr0ef309emH5LmJpOnT+lqiDWuwqFeudnev4/KrtRyInMeunZSfz9GeRu3olpBy6g9OfDf3S+gwLUtEnMANvh1Q0LCnxSsV0LcPtwJN0xeA0jy5T9INJMh1XWOafN30FXdCshhKPuMwlEKv12dzIvUeGPRW9s8Kd7gTikYosDZcOe1S1Q3PrM1/6qcvcFswXS8ILru/s+fRnXSqyOPR6+vNJeXlU77r2xO3LTqc/S3Uii8VarS6n48XFxJWHdqc/swyVsfQ9IPXTn9H6nNpvFqRiavli9GARSEQq6ivVT17msWyvAAAR1ElEQVS2tjwHi0gwotUPa/HS+hyMVSHKVBCAVEwF1fSOCamYXt4xZ4NUjInI9QauGuOrx6DWiQ2Ep6MIcOXYnyctoZsHtSYIW3NfDq4aXfrGOtXKH+YLUjHM2U3v2uKRiumNELNlIwFIxWzMOtbsRCARqWg9YGRe/ybE1YS4Uk9AF4lcEWndYzH1EWCGoBCAVAxKppzjhFQ0LIemS0XDcCEcEACBLCQAqZiFSU/RkiEVUwQWwyZEAFIxIXx4OGQEEpGKIUOB5YBAKAlAKgY/rZCKhuUQUtGwhCAcEAAB4whAKhqXksAGBKkY2NSFOnBIxVCnF4vzSQBS0Scw3A4CASMAqRiwhNmEC6loWA4hFQ1LCMIBARAwjgCkonEpCWxAkIqBTV2oA4dUDHV6sTifBCAVfQLD7SAQMAKQigFLGKSi+QmDVDQ/R4gQBEAgswQgFTPLP0yzQyqGKZvhWQukYnhyiZUkTgBSMXGGGAEETCYAqWhydrzFhkpFb5zSdhekYtpQYyIQAIGAEoBUDGjiDAwbUtHApCAkglTESwACPxOAVMTbAALhJgCpGPz8QioalkNIRcMSgnBAAASMIwCpaFxKAhsQpGJgUxfqwCEVQ51eLM4nAUhFn8BwOwgEjACkYsASZhMupKJhOYRUNCwhCAcEQMA4ApCKxqUksAFBKgY2daEOHFIx1OnF4nwSgFT0CQy3g0DACEAqBixhkIrmJwxS0fwcIUIQAIHMEoBUzCz/MM0OqRimbIZnLZCK4cklVpI4AUjFxBliBBAwmQCkosnZ8RYbKhW9cUrbXZCKaUONiUAABAJKAFIxoIkzMGxIRQOTgpCwpyLeARDQCEAq4nUAgXATgFQMfn4hFQ3LIaSiYQlBOCAAAsYRgFQ0LiWBDQhSMbCpC3XgqFQMdXqxOJ8EIBV9AsPtIBAwApCKAUuYTbiQioblEFLRsIQgHBAAAeMIQCoal5LABsT/Y3XUqFGBjR+Bh5fAiBEjiN9PXCCQ7QQgFbP9DcD6w04AUjH4GYZUNCyHkIqGJQThgAAIGEcAUtG4lCAgEAABEAABEEgJAUjFlGDFoCBgDAFIRWNSEXcgkIpxo0vNg5CKqeGKUUEABMJDAFIxPLnESkAABEAABEDAjQCkIt4PEAg3AUjF4OcXUtGwHEIqGpYQhAMCIGAcAUhF41KCgEAABEAABEAgJQQgFVOCFYOCgDEEIBWNSUXcgUAqxo0uNQ9CKqaGK0YFARAIDwFIxfDkEisBARAAARAAATcCkIp4P0Ag3AQgFYOfX0hFw3IIqWhYQhAOCICAcQQgFY1LCQICARAAARAAgZQQgFRMCVYMCgLGEIBUNCYVcQcCqRg3utQ8CKmYGq4YFQRAIDwEIBXDk0usBARAAARAAATcCEAq4v0AgXATgFQMfn4hFQ3LIaSiYQlBOCAAAsYRgFQ0LiUICARAAARAAARSQgBSMSVYMSgIGEMAUtGYVMQdCKRi3OhS8yCkYmq4YlQQAIHwEIBUDE8usRIQAAEQAAEQcCPAUnHUqFGABAIgEGICI0aMIP6u4womAUhFw/IGqWhYQhAOCICAcQQgFY1LCQICARAAARAAARAAARAAARDIQgKQioYlHVLRsIQgHBAAAeMIQCoalxIEBAIgAAIgAAIgAAIgAAIgkIUEIBUNSzqkomEJQTggAALGEYBUNC4lCAgEQAAEQAAEQAAEQAAEQCALCUAqGpZ0SEXDEoJwQAAEjCMAqWhcShAQCIAACIAACIAACIAACIBAFhKAVDQs6ZCKhiUE4YAACBhHAFLRuJQgIBAAARAAARAAARAAARAAgSwkAKloWNIhFQ1LCMIBARAwjgCkonEpQUAgAAIgAAIgAAIgAAIgAAJZSABS0bCkQyoalhCEAwIgYBwBSEXjUoKAQAAEQAAEQAAEQAAEQAAEspAApKJhSYdUNCwhCAcEQMA4ApCKxqUEAYEACIAACIAACIAACIAACGQhAUhFw5IOqWhYQhAOCICAcQQgFY1LCQICARAAARAAARAAARAAARDIQgKQioYlHVLRsIQgHBAAAeMIQCoalxIEBAIgAAIgAAIgAAIgAAIgkIUEIBUNSzpLRVwgAAIgAALuBH788UcgAgEQAAEQAAEQAAEQAAEQAAEQyCABSMUMwsfUIAACIAACIAACIAACIAACIAACIAACIAACIBBEApCKQcwaYgYBEAABEAABEAABEAABEAABEAABEAABEACBDBKAVMwgfEwNAiAAAiAAAiAAAiAAAiAAAiAAAiAAAiAAAkEkAKkYxKwhZhAAARAAARAAARAAARAAARAAARAAARAAARDIIAFIxQzCx9QgAAIgAAIgAAIgAAIgAAIgAAIgAAIgAAIgEEQCkIpBzBpiBgEQAAEQAAEQAAEQAAEQAAEQAAEQAAEQAIEMEoBUzCB8TA0CIAACIAACIAACIAACIAACIAACIAACIAACQSQAqRjErCFmEAABEAABEAABEAABEAABEAABEAABEAABEMggAUjFDMLH1CAAAiAAAiAAAiAAAiAAAiAAAiAAAiAAAiAQRAKQikHMGmIGARAAARAAARAAARAAARAAARAAARAAARAAgQwSgFTMIHxMDQIgAAIgAAIgAAIgAAIgAAIgAAIgAAIgAAJBJACpGMSsIWYQAAEQAAEQAAEQAAEQAAEQAAEQAAEQAAEQyCABSMUMwsfUIAACIAACIAACIAACIAACIAACIAACIAACIBBEApCKQcwaYgYBEAABEAABEAABEAABEAABEAABEAABEACBDBKAVMwgfEwNAiAAAiAAAiAAAiAAAiAAAiAAAiAAAiAAAkEkAKkYxKwhZhAAARAAARAAARAAARAAARAAARAAARAAARDIIAFIxQzCx9QgAAIgAAIgAAIgAAIgAAIgAAIgAAIgAAIgEEQCkIpBzBpiBgEQAAEQAAEQAAEQAAEQAAEQAAEQAAEQAIEMEoBUzCB8TA0CIAACIAACIAACIAACIAACIAACIAACIAACQSQAqRjErCFmEAABEAABEAABEAABEAABEAABEAABEAABEMggAUjFDMLH1CAAAiAAAiAAAiAAAiAAAiAAAiAAAiAAAiAQRAKQikHMGmIGARAAARAAARAAARAAARAAARAAARAAARAAgQwSgFTMIHxMDQIgAAIgAAIgAAIgAAIgAAIgAAIgAAIgAAJBJACpGMSsIWYQAAEQAAEQAAEQAAEQAAEQAAEQAAEQAAEQyCABSMUMwsfUIAACIAACIAACIAACIAACIAACIAACIAACIBBEApCKQcwaYgYBEAABEAABEAABEAABEAABEAABEAABEACBDBKAVMwgfEwNAiAAAiAAAiAAAiAAAiAAAiAAAiAAAiAAAkEkAKkYxKwhZhAAARAAARAAARAAARAAARAAARAAARAAARDIIAFIxQzCx9QgAAIgAAIgAAIgAAIgAAIgAAIgAAIgAAIgEEQCkIpBzBpiBgEQAAEQAAEQAAEQAAEQAAEQAAEQAAEQAIEMEoBUzCB8TA0CIAACIAACIAACIAACIAACIAACIAACIAACQSQAqRjErCFmEAABEAABEAABEAABEAABEAABEAABEAABEMggAUjFDMLH1CAAAiAAAiAAAiAAAiAAAiAAAiAAAiAAAiAQRAKQikHMGmIGARAAARAAARAAARAAARAAARAAARAAARAAgQwSgFTMIHxMDQIgAAIgAAIgAAIgAAIgAAIgAAIgAAIgAAJBJACpGMSsIWYQAAEQAAEQAAEQAAEQAAEQAAEQAAEQAAEQyCABSMUMwsfUIAACIAACIAACIAACIAACIAACIAACIAACIBBEApCKQcwaYgYBEAABEAABEAABEAABEAABEAABEAABEACBDBKAVMwgfEwNAiAAAiAAAiAAAiAAAiAAAiAAAiAAAiAAAkEkAKkYxKwhZhAAARAAARAAARAAARAAARAAARAAARAAARDIIIH/344dlAAAACAQ69/aGIewBMr86VQM8UUTIECAAAECBAgQIECAAAECBAgQeBRwKj6upjMBAgQIECBAgAABAgQIECBAgACBUMCpGOKLJkCAAAECBAgQIECAAAECBAgQIPAo4FR8XE1nAgQIECBAgAABAgQIECBAgAABAqGAUzHEF02AAAECBAgQIECAAAECBAgQIEDgUcCp+LiazgQIECBAgAABAgQIECBAgAABAgRCAadiiC+aAAECBAgQIECAAAECBAgQIECAwKOAU/FxNZ0JECBAgAABAgQIECBAgAABAgQIhAJOxRBfNAECBAgQIECAAAECBAgQIECAAIFHAafi42o6EyBAgAABAgQIECBAgAABAgQIEAgFnIohvmgCBAgQIECAAAECBAgQIECAAAECjwJOxcfVdCZAgAABAgQIECBAgAABAgQIECAQCjgVQ3zRBAgQIECAAAECBAgQIECAAAECBB4FnIqPq+lMgAABAgQIECBAgAABAgQIECBAIBRwKob4ogkQIECAAAECBAgQIECAAAECBAg8CjgVH1fTmQABAgQIECBAgAABAgQIECBAgEAo4FQM8UUTIECAAAECBAgQIECAAAECBAgQeBRwKj6upjMBAgQIECBAgAABAgQIECBAgACBUMCpGOKLJkCAAAECBAgQIECAAAECBAgQIPAo4FR8XE1nAgQIECBAgAABAgQIECBAgAABAqGAUzHEF02AAAECBAgQIECAAAECBAgQIEDgUcCp+LiazgQIECBAgAABAgQIECBAgAABAgRCAadiiC+aAAECBAgQIECAAAECBAgQIECAwKOAU/FxNZ0JECBAgAABAgQIECBAgAABAgQIhAJOxRBfNAECBAgQIECAAAECBAgQIECAAIFHAafi42o6EyBAgAABAgQIECBAgAABAgQIEAgFnIohvmgCBAgQIECAAAECBAgQIECAAAECjwJOxcfVdCZAgAABAgQIECBAgAABAgQIECAQCjgVQ3zRBAgQIECAAAECBAgQIECAAAECBB4FnIqPq+lMgAABAgQIECBAgAABAgQIECBAIBRwKob4ogkQIECAAAECBAgQIECAAAECBAg8CjgVH1fTmQABAgQIECBAgAABAgQIECBAgEAo4FQM8UUTIECAAAECBAgQIECAAAECBAgQeBRwKj6upjMBAgQIECBAgAABAgQIECBAgACBUMCpGOKLJkCAAAECBAgQIECAAAECBAgQIPAo4FR8XE1nAgQIECBAgAABAgQIECBAgAABAqGAUzHEF02AAAECBAgQIECAAAECBAgQIEDgUcCp+LiazgQIECBAgAABAgQIECBAgAABAgRCAadiiC+aAAECBAgQIECAAAECBAgQIECAwKOAU/FxNZ0JECBAgAABAgQIECBAgAABAgQIhAJOxRBfNAECBAgQIECAAAECBAgQIECAAIFHAafi42o6EyBAgAABAgQIECBAgAABAgQIEAgFnIohvmgCBAgQIECAAAECBAgQIECAAAECjwJOxcfVdCZAgAABAgQIECBAgAABAgQIECAQCjgVQ3zRBAgQIECAAAECBAgQIECAAAECBB4FnIqPq+lMgAABAgQIECBAgAABAgQIECBAIBRwKob4ogkQIECAAAECBAgQIECAAAECBAg8CjgVH1fTmQABAgQIECBAgAABAgQIECBAgEAo4FQM8UUTIECAAAECBAgQIECAAAECBAgQeBRwKj6upjMBAgQIECBAgAABAgQIECBAgACBUMCpGOKLJkCAAAECBAgQIECAAAECBAgQIPAo4FR8XE1nAgQIECBAgAABAgQIECBAgAABAqGAUzHEF02AAAECBAgQIECAAAECBAgQIEDgUcCp+LiazgQIECBAgAABAgQIECBAgAABAgRCAadiiC+aAAECBAgQIECAAAECBAgQIECAwKOAU/FxNZ0JECBAgAABAgQIECBAgAABAgQIhAJOxRBfNAECBAgQIECAAAECBAgQIECAAIFHAafi42o6EyBAgAABAgQIECBAgAABAgQIEAgFnIohvmgCBAgQIECAAAECBAgQIECAAAECjwJOxcfVdCZAgAABAgQIECBAgAABAgQIECAQCgy8D4c2KN7eIgAAAABJRU5ErkJggg==;" vertex="1" parent="1">
          <mxGeometry x="-250" y="20" width="1301" height="734" as="geometry" />
        </mxCell>
      </root>
    </mxGraphModel>
  </diagram>
</mxfile>
